<svg width="275" height="14" viewBox="0 0 275 14" fill="none" xmlns="http://www.w3.org/2000/svg">
<path d="M7.16406 7.83496H8.47656C8.4082 8.46387 8.22819 9.02669 7.93652 9.52344C7.64486 10.0202 7.23242 10.4144 6.69922 10.7061C6.16602 10.9932 5.50065 11.1367 4.70312 11.1367C4.11979 11.1367 3.58887 11.0273 3.11035 10.8086C2.63639 10.5898 2.22852 10.2799 1.88672 9.87891C1.54492 9.47331 1.2806 8.98796 1.09375 8.42285C0.911458 7.85319 0.820312 7.21973 0.820312 6.52246V5.53125C0.820312 4.83398 0.911458 4.2028 1.09375 3.6377C1.2806 3.06803 1.5472 2.5804 1.89355 2.1748C2.24447 1.76921 2.66602 1.45703 3.1582 1.23828C3.65039 1.01953 4.2041 0.910156 4.81934 0.910156C5.57129 0.910156 6.20703 1.05143 6.72656 1.33398C7.24609 1.61654 7.64941 2.00846 7.93652 2.50977C8.22819 3.00651 8.4082 3.58301 8.47656 4.23926H7.16406C7.10026 3.77441 6.98177 3.37565 6.80859 3.04297C6.63542 2.70573 6.38932 2.44596 6.07031 2.26367C5.7513 2.08138 5.33431 1.99023 4.81934 1.99023C4.37728 1.99023 3.98763 2.07454 3.65039 2.24316C3.31771 2.41178 3.03743 2.65104 2.80957 2.96094C2.58626 3.27083 2.41764 3.64225 2.30371 4.0752C2.18978 4.50814 2.13281 4.98893 2.13281 5.51758V6.52246C2.13281 7.01009 2.18294 7.4681 2.2832 7.89648C2.38802 8.32487 2.54525 8.70085 2.75488 9.02441C2.96452 9.34798 3.23112 9.60319 3.55469 9.79004C3.87826 9.97233 4.26107 10.0635 4.70312 10.0635C5.26367 10.0635 5.71029 9.97461 6.04297 9.79688C6.37565 9.61914 6.6263 9.36393 6.79492 9.03125C6.9681 8.69857 7.09115 8.2998 7.16406 7.83496ZM9.74805 7.38379V7.22656C9.74805 6.69336 9.82552 6.19889 9.98047 5.74316C10.1354 5.28288 10.3587 4.88411 10.6504 4.54688C10.9421 4.20508 11.2952 3.94076 11.71 3.75391C12.1247 3.5625 12.5895 3.4668 13.1045 3.4668C13.624 3.4668 14.0911 3.5625 14.5059 3.75391C14.9251 3.94076 15.2806 4.20508 15.5723 4.54688C15.8685 4.88411 16.0941 5.28288 16.249 5.74316C16.404 6.19889 16.4814 6.69336 16.4814 7.22656V7.38379C16.4814 7.91699 16.404 8.41146 16.249 8.86719C16.0941 9.32292 15.8685 9.72168 15.5723 10.0635C15.2806 10.4007 14.9274 10.665 14.5127 10.8564C14.1025 11.0433 13.6377 11.1367 13.1182 11.1367C12.5986 11.1367 12.1315 11.0433 11.7168 10.8564C11.3021 10.665 10.9466 10.4007 10.6504 10.0635C10.3587 9.72168 10.1354 9.32292 9.98047 8.86719C9.82552 8.41146 9.74805 7.91699 9.74805 7.38379ZM11.0127 7.22656V7.38379C11.0127 7.75293 11.056 8.10156 11.1426 8.42969C11.2292 8.75326 11.359 9.04036 11.5322 9.29102C11.71 9.54167 11.931 9.73991 12.1953 9.88574C12.4596 10.027 12.7673 10.0977 13.1182 10.0977C13.4645 10.0977 13.7676 10.027 14.0273 9.88574C14.2917 9.73991 14.5104 9.54167 14.6836 9.29102C14.8568 9.04036 14.9867 8.75326 15.0732 8.42969C15.1644 8.10156 15.21 7.75293 15.21 7.38379V7.22656C15.21 6.86198 15.1644 6.5179 15.0732 6.19434C14.9867 5.86621 14.8545 5.57682 14.6768 5.32617C14.5036 5.07096 14.2848 4.87044 14.0205 4.72461C13.7607 4.57878 13.4554 4.50586 13.1045 4.50586C12.7581 4.50586 12.4528 4.57878 12.1885 4.72461C11.9287 4.87044 11.71 5.07096 11.5322 5.32617C11.359 5.57682 11.2292 5.86621 11.1426 6.19434C11.056 6.5179 11.0127 6.86198 11.0127 7.22656ZM19.332 5.02539V13.8438H18.0605V3.60352H19.2227L19.332 5.02539ZM24.3154 7.24023V7.38379C24.3154 7.92155 24.2516 8.42057 24.124 8.88086C23.9964 9.33659 23.8096 9.73307 23.5635 10.0703C23.3219 10.4076 23.0234 10.6696 22.668 10.8564C22.3125 11.0433 21.9046 11.1367 21.4443 11.1367C20.9749 11.1367 20.5602 11.0592 20.2002 10.9043C19.8402 10.7493 19.5348 10.5238 19.2842 10.2275C19.0335 9.93132 18.833 9.57585 18.6826 9.16113C18.5368 8.74642 18.4365 8.2793 18.3818 7.75977V6.99414C18.4365 6.44727 18.5391 5.95736 18.6895 5.52441C18.8398 5.09147 19.0381 4.72233 19.2842 4.41699C19.5348 4.1071 19.8379 3.8724 20.1934 3.71289C20.5488 3.54883 20.959 3.4668 21.4238 3.4668C21.8887 3.4668 22.3011 3.55794 22.6611 3.74023C23.0212 3.91797 23.3242 4.17318 23.5703 4.50586C23.8164 4.83854 24.001 5.2373 24.124 5.70215C24.2516 6.16243 24.3154 6.67513 24.3154 7.24023ZM23.0439 7.38379V7.24023C23.0439 6.87109 23.0052 6.52474 22.9277 6.20117C22.8503 5.87305 22.7295 5.58594 22.5654 5.33984C22.4059 5.08919 22.2008 4.89323 21.9502 4.75195C21.6995 4.60612 21.401 4.5332 21.0547 4.5332C20.7357 4.5332 20.4577 4.58789 20.2207 4.69727C19.9883 4.80664 19.79 4.95475 19.626 5.1416C19.4619 5.32389 19.3275 5.53353 19.2227 5.77051C19.1224 6.00293 19.0472 6.24447 18.9971 6.49512V8.26562C19.0882 8.58464 19.2158 8.88542 19.3799 9.16797C19.5439 9.44596 19.7627 9.67155 20.0361 9.84473C20.3096 10.0133 20.6536 10.0977 21.0684 10.0977C21.4102 10.0977 21.7041 10.027 21.9502 9.88574C22.2008 9.73991 22.4059 9.54167 22.5654 9.29102C22.7295 9.04036 22.8503 8.75326 22.9277 8.42969C23.0052 8.10156 23.0439 7.75293 23.0439 7.38379ZM27.9248 10.2344L29.9824 3.60352H31.3359L28.3691 12.1416C28.3008 12.3239 28.2096 12.5199 28.0957 12.7295C27.9863 12.9437 27.8451 13.1465 27.6719 13.3379C27.4987 13.5293 27.2891 13.6842 27.043 13.8027C26.8014 13.9258 26.512 13.9873 26.1748 13.9873C26.0745 13.9873 25.9469 13.9736 25.792 13.9463C25.637 13.9189 25.5277 13.8962 25.4639 13.8779L25.457 12.8525C25.4935 12.8571 25.5505 12.8617 25.6279 12.8662C25.71 12.8753 25.7669 12.8799 25.7988 12.8799C26.0859 12.8799 26.3298 12.8411 26.5303 12.7637C26.7308 12.6908 26.8994 12.5654 27.0361 12.3877C27.1774 12.2145 27.2982 11.9753 27.3984 11.6699L27.9248 10.2344ZM26.4141 3.60352L28.335 9.3457L28.6631 10.6787L27.7539 11.1436L25.0332 3.60352H26.4141ZM33.7422 4.76562V11H32.4775V3.60352H33.708L33.7422 4.76562ZM36.0527 3.5625L36.0459 4.73828C35.9411 4.71549 35.8408 4.70182 35.7451 4.69727C35.654 4.68815 35.5492 4.68359 35.4307 4.68359C35.139 4.68359 34.8815 4.72917 34.6582 4.82031C34.4349 4.91146 34.2458 5.03906 34.0908 5.20312C33.9359 5.36719 33.8128 5.56315 33.7217 5.79102C33.6351 6.01432 33.5781 6.26042 33.5508 6.5293L33.1953 6.73438C33.1953 6.28776 33.2386 5.86849 33.3252 5.47656C33.4163 5.08464 33.5553 4.73828 33.7422 4.4375C33.929 4.13216 34.166 3.89518 34.4531 3.72656C34.7448 3.55339 35.0911 3.4668 35.4922 3.4668C35.5833 3.4668 35.6882 3.47819 35.8066 3.50098C35.9251 3.51921 36.0072 3.53971 36.0527 3.5625ZM38.5957 3.60352V11H37.3242V3.60352H38.5957ZM37.2285 1.6416C37.2285 1.43652 37.29 1.26335 37.4131 1.12207C37.5407 0.980794 37.7275 0.910156 37.9736 0.910156C38.2152 0.910156 38.3997 0.980794 38.5273 1.12207C38.6595 1.26335 38.7256 1.43652 38.7256 1.6416C38.7256 1.83757 38.6595 2.00618 38.5273 2.14746C38.3997 2.28418 38.2152 2.35254 37.9736 2.35254C37.7275 2.35254 37.5407 2.28418 37.4131 2.14746C37.29 2.00618 37.2285 1.83757 37.2285 1.6416ZM45.418 3.60352H46.5664V10.8428C46.5664 11.4945 46.4342 12.0505 46.1699 12.5107C45.9056 12.971 45.5365 13.3197 45.0625 13.5566C44.5931 13.7982 44.0508 13.9189 43.4355 13.9189C43.1803 13.9189 42.8796 13.8779 42.5332 13.7959C42.1914 13.7184 41.8542 13.584 41.5215 13.3926C41.1934 13.2057 40.9176 12.9528 40.6943 12.6338L41.3574 11.8818C41.6673 12.2555 41.9909 12.5153 42.3281 12.6611C42.6699 12.807 43.0072 12.8799 43.3398 12.8799C43.7409 12.8799 44.0872 12.8047 44.3789 12.6543C44.6706 12.5039 44.8962 12.2806 45.0557 11.9844C45.2197 11.6927 45.3018 11.3327 45.3018 10.9043V5.23047L45.418 3.60352ZM40.3252 7.38379V7.24023C40.3252 6.67513 40.3913 6.16243 40.5234 5.70215C40.6602 5.2373 40.8538 4.83854 41.1045 4.50586C41.3597 4.17318 41.6673 3.91797 42.0273 3.74023C42.3874 3.55794 42.793 3.4668 43.2441 3.4668C43.709 3.4668 44.1146 3.54883 44.4609 3.71289C44.8118 3.8724 45.1081 4.1071 45.3496 4.41699C45.5957 4.72233 45.7894 5.09147 45.9307 5.52441C46.0719 5.95736 46.1699 6.44727 46.2246 6.99414V7.62305C46.1745 8.16536 46.0765 8.65299 45.9307 9.08594C45.7894 9.51888 45.5957 9.88802 45.3496 10.1934C45.1081 10.4987 44.8118 10.7334 44.4609 10.8975C44.11 11.057 43.6999 11.1367 43.2305 11.1367C42.7884 11.1367 42.3874 11.0433 42.0273 10.8564C41.6719 10.6696 41.3665 10.4076 41.1113 10.0703C40.8561 9.73307 40.6602 9.33659 40.5234 8.88086C40.3913 8.42057 40.3252 7.92155 40.3252 7.38379ZM41.5898 7.24023V7.38379C41.5898 7.75293 41.6263 8.09928 41.6992 8.42285C41.7767 8.74642 41.8929 9.03125 42.0479 9.27734C42.2074 9.52344 42.4102 9.71712 42.6562 9.8584C42.9023 9.99512 43.1963 10.0635 43.5381 10.0635C43.9574 10.0635 44.3037 9.97461 44.5771 9.79688C44.8506 9.61914 45.0671 9.38444 45.2266 9.09277C45.3906 8.80111 45.5182 8.48438 45.6094 8.14258V6.49512C45.5592 6.24447 45.4818 6.00293 45.377 5.77051C45.2767 5.53353 45.1445 5.32389 44.9805 5.1416C44.821 4.95475 44.6227 4.80664 44.3857 4.69727C44.1488 4.58789 43.8708 4.5332 43.5518 4.5332C43.2054 4.5332 42.9069 4.60612 42.6562 4.75195C42.4102 4.89323 42.2074 5.08919 42.0479 5.33984C41.8929 5.58594 41.7767 5.87305 41.6992 6.20117C41.6263 6.52474 41.5898 6.87109 41.5898 7.24023ZM49.752 0.5V11H48.4873V0.5H49.752ZM49.4512 7.02148L48.9248 7.00098C48.9294 6.49512 49.0046 6.02799 49.1504 5.59961C49.2962 5.16667 49.5013 4.79069 49.7656 4.47168C50.0299 4.15267 50.3444 3.90658 50.709 3.7334C51.0781 3.55566 51.486 3.4668 51.9326 3.4668C52.2972 3.4668 52.6253 3.51693 52.917 3.61719C53.2087 3.71289 53.457 3.86784 53.6621 4.08203C53.8717 4.29622 54.0312 4.57422 54.1406 4.91602C54.25 5.25326 54.3047 5.66569 54.3047 6.15332V11H53.0332V6.13965C53.0332 5.75228 52.9762 5.44238 52.8623 5.20996C52.7484 4.97298 52.582 4.80208 52.3633 4.69727C52.1445 4.58789 51.8757 4.5332 51.5566 4.5332C51.2422 4.5332 50.9551 4.59928 50.6953 4.73145C50.4401 4.86361 50.2191 5.0459 50.0322 5.27832C49.8499 5.51074 49.7064 5.77734 49.6016 6.07812C49.5013 6.37435 49.4512 6.6888 49.4512 7.02148ZM59.2949 3.60352V4.57422H55.2959V3.60352H59.2949ZM56.6494 1.80566H57.9141V9.16797C57.9141 9.41862 57.9528 9.60775 58.0303 9.73535C58.1077 9.86296 58.208 9.94727 58.3311 9.98828C58.4541 10.0293 58.5863 10.0498 58.7275 10.0498C58.8324 10.0498 58.9417 10.0407 59.0557 10.0225C59.1742 9.99967 59.263 9.98145 59.3223 9.96777L59.3291 11C59.2288 11.0319 59.0967 11.0615 58.9326 11.0889C58.7731 11.1208 58.5794 11.1367 58.3516 11.1367C58.0417 11.1367 57.7568 11.0752 57.4971 10.9521C57.2373 10.8291 57.0299 10.624 56.875 10.3369C56.7246 10.0452 56.6494 9.65332 56.6494 9.16113V1.80566ZM69.9453 6.91211H70.9434C70.9434 7.6276 70.7383 8.16536 70.3281 8.52539C69.9225 8.88086 69.3711 9.05859 68.6738 9.05859C68.1908 9.05859 67.7715 8.94694 67.416 8.72363C67.0651 8.50033 66.7917 8.19043 66.5957 7.79395C66.4043 7.39746 66.3086 6.93717 66.3086 6.41309V5.62695C66.3086 5.10286 66.4043 4.64258 66.5957 4.24609C66.7917 3.84961 67.0651 3.53971 67.416 3.31641C67.7715 3.0931 68.1908 2.98145 68.6738 2.98145C69.3711 2.98145 69.9248 3.15918 70.335 3.51465C70.7451 3.87012 70.9502 4.4056 70.9502 5.12109H69.9521C69.9521 4.66992 69.8428 4.34635 69.624 4.15039C69.4098 3.95443 69.0931 3.85645 68.6738 3.85645C68.373 3.85645 68.1201 3.93164 67.915 4.08203C67.71 4.23242 67.555 4.44206 67.4502 4.71094C67.3454 4.97526 67.293 5.27832 67.293 5.62012V6.41309C67.293 6.75944 67.3454 7.06706 67.4502 7.33594C67.555 7.60026 67.71 7.80762 67.915 7.95801C68.1201 8.1084 68.373 8.18359 68.6738 8.18359C69.0931 8.18359 69.4098 8.08561 69.624 7.88965C69.8382 7.69368 69.9453 7.36784 69.9453 6.91211ZM64.7021 6.0166C64.7021 6.62272 64.807 7.18783 65.0166 7.71191C65.2262 8.236 65.5179 8.69401 65.8916 9.08594C66.2653 9.47786 66.6982 9.7832 67.1904 10.002C67.6826 10.2207 68.209 10.3301 68.7695 10.3301C69.3301 10.3301 69.8542 10.2207 70.3418 10.002C70.834 9.7832 71.2646 9.47786 71.6338 9.08594C72.0075 8.69401 72.2992 8.236 72.5088 7.71191C72.7184 7.18783 72.8232 6.62272 72.8232 6.0166C72.8232 5.40592 72.7184 4.84082 72.5088 4.32129C72.2992 3.80176 72.0075 3.34831 71.6338 2.96094C71.2646 2.56901 70.834 2.26595 70.3418 2.05176C69.8542 1.83301 69.3301 1.72363 68.7695 1.72363C68.209 1.72363 67.6826 1.83301 67.1904 2.05176C66.6982 2.26595 66.2653 2.56901 65.8916 2.96094C65.5179 3.34831 65.2262 3.80176 65.0166 4.32129C64.807 4.84082 64.7021 5.40592 64.7021 6.0166ZM63.916 6.0166C63.916 5.29199 64.0413 4.61979 64.292 4C64.5426 3.38021 64.8913 2.84017 65.3379 2.37988C65.7845 1.91504 66.2995 1.55501 66.8828 1.2998C67.4707 1.04004 68.0996 0.910156 68.7695 0.910156C69.4395 0.910156 70.0661 1.04004 70.6494 1.2998C71.2373 1.55501 71.7523 1.91504 72.1943 2.37988C72.641 2.84017 72.9896 3.38021 73.2402 4C73.4909 4.61979 73.6162 5.29199 73.6162 6.0166C73.6162 6.74121 73.4909 7.41341 73.2402 8.0332C72.9896 8.65299 72.641 9.19759 72.1943 9.66699C71.7523 10.1318 71.2373 10.4941 70.6494 10.7539C70.0661 11.0137 69.4395 11.1436 68.7695 11.1436C68.0996 11.1436 67.4707 11.0137 66.8828 10.7539C66.2995 10.4941 65.7845 10.1318 65.3379 9.66699C64.8913 9.19759 64.5426 8.65299 64.292 8.0332C64.0413 7.41341 63.916 6.74121 63.916 6.0166ZM85.1143 9.96094V11H78.5996V10.0908L81.8604 6.46094C82.2614 6.01432 82.5713 5.63607 82.79 5.32617C83.0133 5.01172 83.1683 4.73145 83.2549 4.48535C83.346 4.2347 83.3916 3.97949 83.3916 3.71973C83.3916 3.3916 83.3232 3.09538 83.1865 2.83105C83.0544 2.56217 82.8584 2.34798 82.5986 2.18848C82.3389 2.02897 82.0244 1.94922 81.6553 1.94922C81.2132 1.94922 80.8441 2.03581 80.5479 2.20898C80.2562 2.3776 80.0374 2.61458 79.8916 2.91992C79.7458 3.22526 79.6729 3.57617 79.6729 3.97266H78.4082C78.4082 3.41211 78.5312 2.89941 78.7773 2.43457C79.0234 1.96973 79.388 1.60059 79.8711 1.32715C80.3542 1.04915 80.9489 0.910156 81.6553 0.910156C82.2842 0.910156 82.8219 1.02181 83.2686 1.24512C83.7152 1.46387 84.057 1.77376 84.2939 2.1748C84.5355 2.57129 84.6562 3.03613 84.6562 3.56934C84.6562 3.861 84.6061 4.15723 84.5059 4.45801C84.4102 4.75423 84.2757 5.05046 84.1025 5.34668C83.9339 5.6429 83.7357 5.93457 83.5078 6.22168C83.2845 6.50879 83.0452 6.79134 82.79 7.06934L80.124 9.96094H85.1143ZM92.7158 5.23047V6.74805C92.7158 7.5638 92.6429 8.25195 92.4971 8.8125C92.3512 9.37305 92.1416 9.82422 91.8682 10.166C91.5947 10.5078 91.2643 10.7562 90.877 10.9111C90.4941 11.0615 90.0612 11.1367 89.5781 11.1367C89.1953 11.1367 88.8421 11.0889 88.5186 10.9932C88.195 10.8975 87.9033 10.7448 87.6436 10.5352C87.3883 10.321 87.1696 10.043 86.9873 9.70117C86.805 9.35938 86.666 8.94466 86.5703 8.45703C86.4746 7.9694 86.4268 7.39974 86.4268 6.74805V5.23047C86.4268 4.41471 86.4997 3.73112 86.6455 3.17969C86.7959 2.62826 87.0078 2.1862 87.2812 1.85352C87.5547 1.51628 87.8828 1.27474 88.2656 1.12891C88.653 0.983073 89.0859 0.910156 89.5645 0.910156C89.9518 0.910156 90.3073 0.958008 90.6309 1.05371C90.959 1.14486 91.2507 1.29297 91.5059 1.49805C91.7611 1.69857 91.9775 1.96745 92.1553 2.30469C92.3376 2.63737 92.4766 3.04525 92.5723 3.52832C92.668 4.01139 92.7158 4.57878 92.7158 5.23047ZM91.4443 6.95312V5.01855C91.4443 4.57194 91.417 4.18001 91.3623 3.84277C91.3122 3.50098 91.237 3.20931 91.1367 2.96777C91.0365 2.72624 90.9089 2.53027 90.7539 2.37988C90.6035 2.22949 90.4281 2.12012 90.2275 2.05176C90.0316 1.97884 89.8105 1.94238 89.5645 1.94238C89.2637 1.94238 88.9971 1.99935 88.7646 2.11328C88.5322 2.22266 88.3363 2.39811 88.1768 2.63965C88.0218 2.88118 87.9033 3.19792 87.8213 3.58984C87.7393 3.98177 87.6982 4.45801 87.6982 5.01855V6.95312C87.6982 7.39974 87.7233 7.79395 87.7734 8.13574C87.8281 8.47754 87.9079 8.77376 88.0127 9.02441C88.1175 9.27051 88.2451 9.47331 88.3955 9.63281C88.5459 9.79232 88.7191 9.91081 88.915 9.98828C89.1156 10.0612 89.3366 10.0977 89.5781 10.0977C89.888 10.0977 90.1592 10.0384 90.3916 9.91992C90.624 9.80143 90.8177 9.61686 90.9727 9.36621C91.1322 9.111 91.2507 8.78516 91.3281 8.38867C91.4056 7.98763 91.4443 7.50911 91.4443 6.95312ZM100.864 9.96094V11H94.3496V10.0908L97.6104 6.46094C98.0114 6.01432 98.3213 5.63607 98.54 5.32617C98.7633 5.01172 98.9183 4.73145 99.0049 4.48535C99.096 4.2347 99.1416 3.97949 99.1416 3.71973C99.1416 3.3916 99.0732 3.09538 98.9365 2.83105C98.8044 2.56217 98.6084 2.34798 98.3486 2.18848C98.0889 2.02897 97.7744 1.94922 97.4053 1.94922C96.9632 1.94922 96.5941 2.03581 96.2979 2.20898C96.0062 2.3776 95.7874 2.61458 95.6416 2.91992C95.4958 3.22526 95.4229 3.57617 95.4229 3.97266H94.1582C94.1582 3.41211 94.2812 2.89941 94.5273 2.43457C94.7734 1.96973 95.138 1.60059 95.6211 1.32715C96.1042 1.04915 96.6989 0.910156 97.4053 0.910156C98.0342 0.910156 98.5719 1.02181 99.0186 1.24512C99.4652 1.46387 99.807 1.77376 100.044 2.1748C100.285 2.57129 100.406 3.03613 100.406 3.56934C100.406 3.861 100.356 4.15723 100.256 4.45801C100.16 4.75423 100.026 5.05046 99.8525 5.34668C99.6839 5.6429 99.4857 5.93457 99.2578 6.22168C99.0345 6.50879 98.7952 6.79134 98.54 7.06934L95.874 9.96094H100.864ZM108.739 9.96094V11H102.225V10.0908L105.485 6.46094C105.886 6.01432 106.196 5.63607 106.415 5.32617C106.638 5.01172 106.793 4.73145 106.88 4.48535C106.971 4.2347 107.017 3.97949 107.017 3.71973C107.017 3.3916 106.948 3.09538 106.812 2.83105C106.679 2.56217 106.483 2.34798 106.224 2.18848C105.964 2.02897 105.649 1.94922 105.28 1.94922C104.838 1.94922 104.469 2.03581 104.173 2.20898C103.881 2.3776 103.662 2.61458 103.517 2.91992C103.371 3.22526 103.298 3.57617 103.298 3.97266H102.033C102.033 3.41211 102.156 2.89941 102.402 2.43457C102.648 1.96973 103.013 1.60059 103.496 1.32715C103.979 1.04915 104.574 0.910156 105.28 0.910156C105.909 0.910156 106.447 1.02181 106.894 1.24512C107.34 1.46387 107.682 1.77376 107.919 2.1748C108.16 2.57129 108.281 3.03613 108.281 3.56934C108.281 3.861 108.231 4.15723 108.131 4.45801C108.035 4.75423 107.901 5.05046 107.728 5.34668C107.559 5.6429 107.361 5.93457 107.133 6.22168C106.91 6.50879 106.67 6.79134 106.415 7.06934L103.749 9.96094H108.739ZM119.198 8.48438C119.198 8.25195 119.162 8.04688 119.089 7.86914C119.021 7.68685 118.897 7.52279 118.72 7.37695C118.547 7.23112 118.305 7.09212 117.995 6.95996C117.69 6.8278 117.302 6.69336 116.833 6.55664C116.341 6.41081 115.896 6.24902 115.5 6.07129C115.104 5.889 114.764 5.68164 114.481 5.44922C114.199 5.2168 113.982 4.9502 113.832 4.64941C113.682 4.34863 113.606 4.00456 113.606 3.61719C113.606 3.22982 113.686 2.87207 113.846 2.54395C114.005 2.21582 114.233 1.93099 114.529 1.68945C114.83 1.44336 115.188 1.25195 115.603 1.11523C116.017 0.978516 116.48 0.910156 116.99 0.910156C117.738 0.910156 118.371 1.05371 118.891 1.34082C119.415 1.62337 119.813 1.99479 120.087 2.45508C120.36 2.91081 120.497 3.39844 120.497 3.91797H119.185C119.185 3.54427 119.105 3.21387 118.945 2.92676C118.786 2.63509 118.544 2.40723 118.221 2.24316C117.897 2.07454 117.487 1.99023 116.99 1.99023C116.521 1.99023 116.133 2.06087 115.828 2.20215C115.523 2.34342 115.295 2.53483 115.145 2.77637C114.999 3.0179 114.926 3.29362 114.926 3.60352C114.926 3.81315 114.969 4.00456 115.056 4.17773C115.147 4.34635 115.286 4.50358 115.473 4.64941C115.664 4.79525 115.906 4.92969 116.197 5.05273C116.493 5.17578 116.847 5.29427 117.257 5.4082C117.822 5.56771 118.31 5.74544 118.72 5.94141C119.13 6.13737 119.467 6.3584 119.731 6.60449C120 6.84603 120.199 7.12174 120.326 7.43164C120.458 7.73698 120.524 8.08333 120.524 8.4707C120.524 8.8763 120.442 9.24316 120.278 9.57129C120.114 9.89941 119.88 10.1797 119.574 10.4121C119.269 10.6445 118.902 10.8245 118.474 10.9521C118.05 11.0752 117.576 11.1367 117.052 11.1367C116.591 11.1367 116.138 11.0729 115.691 10.9453C115.249 10.8177 114.846 10.6263 114.481 10.3711C114.121 10.1159 113.832 9.80143 113.613 9.42773C113.399 9.04948 113.292 8.61198 113.292 8.11523H114.604C114.604 8.45703 114.671 8.75098 114.803 8.99707C114.935 9.23861 115.115 9.43913 115.343 9.59863C115.575 9.75814 115.837 9.87663 116.129 9.9541C116.425 10.027 116.733 10.0635 117.052 10.0635C117.512 10.0635 117.902 9.99967 118.221 9.87207C118.54 9.74447 118.781 9.56217 118.945 9.3252C119.114 9.08822 119.198 8.80794 119.198 8.48438ZM123.279 5.02539V13.8438H122.008V3.60352H123.17L123.279 5.02539ZM128.263 7.24023V7.38379C128.263 7.92155 128.199 8.42057 128.071 8.88086C127.944 9.33659 127.757 9.73307 127.511 10.0703C127.269 10.4076 126.971 10.6696 126.615 10.8564C126.26 11.0433 125.852 11.1367 125.392 11.1367C124.922 11.1367 124.507 11.0592 124.147 10.9043C123.787 10.7493 123.482 10.5238 123.231 10.2275C122.981 9.93132 122.78 9.57585 122.63 9.16113C122.484 8.74642 122.384 8.2793 122.329 7.75977V6.99414C122.384 6.44727 122.486 5.95736 122.637 5.52441C122.787 5.09147 122.985 4.72233 123.231 4.41699C123.482 4.1071 123.785 3.8724 124.141 3.71289C124.496 3.54883 124.906 3.4668 125.371 3.4668C125.836 3.4668 126.248 3.55794 126.608 3.74023C126.968 3.91797 127.271 4.17318 127.518 4.50586C127.764 4.83854 127.948 5.2373 128.071 5.70215C128.199 6.16243 128.263 6.67513 128.263 7.24023ZM126.991 7.38379V7.24023C126.991 6.87109 126.952 6.52474 126.875 6.20117C126.798 5.87305 126.677 5.58594 126.513 5.33984C126.353 5.08919 126.148 4.89323 125.897 4.75195C125.647 4.60612 125.348 4.5332 125.002 4.5332C124.683 4.5332 124.405 4.58789 124.168 4.69727C123.936 4.80664 123.737 4.95475 123.573 5.1416C123.409 5.32389 123.275 5.53353 123.17 5.77051C123.07 6.00293 122.994 6.24447 122.944 6.49512V8.26562C123.035 8.58464 123.163 8.88542 123.327 9.16797C123.491 9.44596 123.71 9.67155 123.983 9.84473C124.257 10.0133 124.601 10.0977 125.016 10.0977C125.357 10.0977 125.651 10.027 125.897 9.88574C126.148 9.73991 126.353 9.54167 126.513 9.29102C126.677 9.04036 126.798 8.75326 126.875 8.42969C126.952 8.10156 126.991 7.75293 126.991 7.38379ZM131.141 4.76562V11H129.876V3.60352H131.106L131.141 4.76562ZM133.451 3.5625L133.444 4.73828C133.34 4.71549 133.239 4.70182 133.144 4.69727C133.052 4.68815 132.948 4.68359 132.829 4.68359C132.537 4.68359 132.28 4.72917 132.057 4.82031C131.833 4.91146 131.644 5.03906 131.489 5.20312C131.334 5.36719 131.211 5.56315 131.12 5.79102C131.034 6.01432 130.977 6.26042 130.949 6.5293L130.594 6.73438C130.594 6.28776 130.637 5.86849 130.724 5.47656C130.815 5.08464 130.954 4.73828 131.141 4.4375C131.327 4.13216 131.564 3.89518 131.852 3.72656C132.143 3.55339 132.49 3.4668 132.891 3.4668C132.982 3.4668 133.087 3.47819 133.205 3.50098C133.324 3.51921 133.406 3.53971 133.451 3.5625ZM135.994 3.60352V11H134.723V3.60352H135.994ZM134.627 1.6416C134.627 1.43652 134.688 1.26335 134.812 1.12207C134.939 0.980794 135.126 0.910156 135.372 0.910156C135.614 0.910156 135.798 0.980794 135.926 1.12207C136.058 1.26335 136.124 1.43652 136.124 1.6416C136.124 1.83757 136.058 2.00618 135.926 2.14746C135.798 2.28418 135.614 2.35254 135.372 2.35254C135.126 2.35254 134.939 2.28418 134.812 2.14746C134.688 2.00618 134.627 1.83757 134.627 1.6416ZM142.816 3.60352H143.965V10.8428C143.965 11.4945 143.833 12.0505 143.568 12.5107C143.304 12.971 142.935 13.3197 142.461 13.5566C141.992 13.7982 141.449 13.9189 140.834 13.9189C140.579 13.9189 140.278 13.8779 139.932 13.7959C139.59 13.7184 139.253 13.584 138.92 13.3926C138.592 13.2057 138.316 12.9528 138.093 12.6338L138.756 11.8818C139.066 12.2555 139.389 12.5153 139.727 12.6611C140.068 12.807 140.406 12.8799 140.738 12.8799C141.139 12.8799 141.486 12.8047 141.777 12.6543C142.069 12.5039 142.295 12.2806 142.454 11.9844C142.618 11.6927 142.7 11.3327 142.7 10.9043V5.23047L142.816 3.60352ZM137.724 7.38379V7.24023C137.724 6.67513 137.79 6.16243 137.922 5.70215C138.059 5.2373 138.252 4.83854 138.503 4.50586C138.758 4.17318 139.066 3.91797 139.426 3.74023C139.786 3.55794 140.191 3.4668 140.643 3.4668C141.107 3.4668 141.513 3.54883 141.859 3.71289C142.21 3.8724 142.507 4.1071 142.748 4.41699C142.994 4.72233 143.188 5.09147 143.329 5.52441C143.47 5.95736 143.568 6.44727 143.623 6.99414V7.62305C143.573 8.16536 143.475 8.65299 143.329 9.08594C143.188 9.51888 142.994 9.88802 142.748 10.1934C142.507 10.4987 142.21 10.7334 141.859 10.8975C141.508 11.057 141.098 11.1367 140.629 11.1367C140.187 11.1367 139.786 11.0433 139.426 10.8564C139.07 10.6696 138.765 10.4076 138.51 10.0703C138.255 9.73307 138.059 9.33659 137.922 8.88086C137.79 8.42057 137.724 7.92155 137.724 7.38379ZM138.988 7.24023V7.38379C138.988 7.75293 139.025 8.09928 139.098 8.42285C139.175 8.74642 139.291 9.03125 139.446 9.27734C139.606 9.52344 139.809 9.71712 140.055 9.8584C140.301 9.99512 140.595 10.0635 140.937 10.0635C141.356 10.0635 141.702 9.97461 141.976 9.79688C142.249 9.61914 142.465 9.38444 142.625 9.09277C142.789 8.80111 142.917 8.48438 143.008 8.14258V6.49512C142.958 6.24447 142.88 6.00293 142.775 5.77051C142.675 5.53353 142.543 5.32389 142.379 5.1416C142.219 4.95475 142.021 4.80664 141.784 4.69727C141.547 4.58789 141.269 4.5332 140.95 4.5332C140.604 4.5332 140.305 4.60612 140.055 4.75195C139.809 4.89323 139.606 5.08919 139.446 5.33984C139.291 5.58594 139.175 5.87305 139.098 6.20117C139.025 6.52474 138.988 6.87109 138.988 7.24023ZM145.906 10.3301C145.906 10.1159 145.972 9.93587 146.104 9.79004C146.241 9.63965 146.437 9.56445 146.692 9.56445C146.948 9.56445 147.141 9.63965 147.273 9.79004C147.41 9.93587 147.479 10.1159 147.479 10.3301C147.479 10.5397 147.41 10.7174 147.273 10.8633C147.141 11.0091 146.948 11.082 146.692 11.082C146.437 11.082 146.241 11.0091 146.104 10.8633C145.972 10.7174 145.906 10.5397 145.906 10.3301ZM156.926 1.92871L153.631 11H152.284L156.078 1.04688H156.946L156.926 1.92871ZM159.688 11L156.386 1.92871L156.365 1.04688H157.233L161.041 11H159.688ZM159.517 7.31543V8.39551H153.925V7.31543H159.517ZM163.557 0.5V11H162.285V0.5H163.557ZM166.961 0.5V11H165.689V0.5H166.961ZM172.655 1.04688H175.95C176.698 1.04688 177.329 1.16081 177.844 1.38867C178.363 1.61654 178.757 1.95378 179.026 2.40039C179.3 2.84245 179.437 3.38704 179.437 4.03418C179.437 4.48991 179.343 4.9069 179.156 5.28516C178.974 5.65885 178.71 5.97786 178.363 6.24219C178.021 6.50195 177.611 6.69564 177.133 6.82324L176.764 6.9668H173.667L173.653 5.89355H175.991C176.465 5.89355 176.859 5.81152 177.174 5.64746C177.488 5.47884 177.725 5.25326 177.885 4.9707C178.044 4.68815 178.124 4.37598 178.124 4.03418C178.124 3.65137 178.049 3.31641 177.898 3.0293C177.748 2.74219 177.511 2.52116 177.188 2.36621C176.868 2.20671 176.456 2.12695 175.95 2.12695H173.975V11H172.655V1.04688ZM178.473 11L176.053 6.48828L177.427 6.48145L179.881 10.918V11H178.473ZM182.465 3.60352V11H181.193V3.60352H182.465ZM181.098 1.6416C181.098 1.43652 181.159 1.26335 181.282 1.12207C181.41 0.980794 181.597 0.910156 181.843 0.910156C182.084 0.910156 182.269 0.980794 182.396 1.12207C182.529 1.26335 182.595 1.43652 182.595 1.6416C182.595 1.83757 182.529 2.00618 182.396 2.14746C182.269 2.28418 182.084 2.35254 181.843 2.35254C181.597 2.35254 181.41 2.28418 181.282 2.14746C181.159 2.00618 181.098 1.83757 181.098 1.6416ZM189.287 3.60352H190.436V10.8428C190.436 11.4945 190.303 12.0505 190.039 12.5107C189.775 12.971 189.406 13.3197 188.932 13.5566C188.462 13.7982 187.92 13.9189 187.305 13.9189C187.049 13.9189 186.749 13.8779 186.402 13.7959C186.061 13.7184 185.723 13.584 185.391 13.3926C185.062 13.2057 184.787 12.9528 184.563 12.6338L185.227 11.8818C185.536 12.2555 185.86 12.5153 186.197 12.6611C186.539 12.807 186.876 12.8799 187.209 12.8799C187.61 12.8799 187.956 12.8047 188.248 12.6543C188.54 12.5039 188.765 12.2806 188.925 11.9844C189.089 11.6927 189.171 11.3327 189.171 10.9043V5.23047L189.287 3.60352ZM184.194 7.38379V7.24023C184.194 6.67513 184.26 6.16243 184.393 5.70215C184.529 5.2373 184.723 4.83854 184.974 4.50586C185.229 4.17318 185.536 3.91797 185.896 3.74023C186.257 3.55794 186.662 3.4668 187.113 3.4668C187.578 3.4668 187.984 3.54883 188.33 3.71289C188.681 3.8724 188.977 4.1071 189.219 4.41699C189.465 4.72233 189.659 5.09147 189.8 5.52441C189.941 5.95736 190.039 6.44727 190.094 6.99414V7.62305C190.044 8.16536 189.946 8.65299 189.8 9.08594C189.659 9.51888 189.465 9.88802 189.219 10.1934C188.977 10.4987 188.681 10.7334 188.33 10.8975C187.979 11.057 187.569 11.1367 187.1 11.1367C186.658 11.1367 186.257 11.0433 185.896 10.8564C185.541 10.6696 185.236 10.4076 184.98 10.0703C184.725 9.73307 184.529 9.33659 184.393 8.88086C184.26 8.42057 184.194 7.92155 184.194 7.38379ZM185.459 7.24023V7.38379C185.459 7.75293 185.495 8.09928 185.568 8.42285C185.646 8.74642 185.762 9.03125 185.917 9.27734C186.076 9.52344 186.279 9.71712 186.525 9.8584C186.771 9.99512 187.065 10.0635 187.407 10.0635C187.826 10.0635 188.173 9.97461 188.446 9.79688C188.72 9.61914 188.936 9.38444 189.096 9.09277C189.26 8.80111 189.387 8.48438 189.479 8.14258V6.49512C189.428 6.24447 189.351 6.00293 189.246 5.77051C189.146 5.53353 189.014 5.32389 188.85 5.1416C188.69 4.95475 188.492 4.80664 188.255 4.69727C188.018 4.58789 187.74 4.5332 187.421 4.5332C187.075 4.5332 186.776 4.60612 186.525 4.75195C186.279 4.89323 186.076 5.08919 185.917 5.33984C185.762 5.58594 185.646 5.87305 185.568 6.20117C185.495 6.52474 185.459 6.87109 185.459 7.24023ZM193.621 0.5V11H192.356V0.5H193.621ZM193.32 7.02148L192.794 7.00098C192.799 6.49512 192.874 6.02799 193.02 5.59961C193.165 5.16667 193.37 4.79069 193.635 4.47168C193.899 4.15267 194.214 3.90658 194.578 3.7334C194.947 3.55566 195.355 3.4668 195.802 3.4668C196.166 3.4668 196.494 3.51693 196.786 3.61719C197.078 3.71289 197.326 3.86784 197.531 4.08203C197.741 4.29622 197.9 4.57422 198.01 4.91602C198.119 5.25326 198.174 5.66569 198.174 6.15332V11H196.902V6.13965C196.902 5.75228 196.845 5.44238 196.731 5.20996C196.618 4.97298 196.451 4.80208 196.232 4.69727C196.014 4.58789 195.745 4.5332 195.426 4.5332C195.111 4.5332 194.824 4.59928 194.564 4.73145C194.309 4.86361 194.088 5.0459 193.901 5.27832C193.719 5.51074 193.576 5.77734 193.471 6.07812C193.37 6.37435 193.32 6.6888 193.32 7.02148ZM203.164 3.60352V4.57422H199.165V3.60352H203.164ZM200.519 1.80566H201.783V9.16797C201.783 9.41862 201.822 9.60775 201.899 9.73535C201.977 9.86296 202.077 9.94727 202.2 9.98828C202.323 10.0293 202.455 10.0498 202.597 10.0498C202.701 10.0498 202.811 10.0407 202.925 10.0225C203.043 9.99967 203.132 9.98145 203.191 9.96777L203.198 11C203.098 11.0319 202.966 11.0615 202.802 11.0889C202.642 11.1208 202.449 11.1367 202.221 11.1367C201.911 11.1367 201.626 11.0752 201.366 10.9521C201.106 10.8291 200.899 10.624 200.744 10.3369C200.594 10.0452 200.519 9.65332 200.519 9.16113V1.80566ZM208.954 9.03809C208.954 8.85579 208.913 8.68717 208.831 8.53223C208.754 8.37272 208.592 8.22917 208.346 8.10156C208.104 7.9694 207.74 7.85547 207.252 7.75977C206.842 7.67318 206.47 7.57064 206.138 7.45215C205.81 7.33366 205.529 7.1901 205.297 7.02148C205.069 6.85286 204.894 6.65462 204.771 6.42676C204.647 6.19889 204.586 5.93229 204.586 5.62695C204.586 5.33529 204.65 5.05957 204.777 4.7998C204.91 4.54004 205.094 4.3099 205.331 4.10938C205.573 3.90885 205.862 3.75163 206.199 3.6377C206.536 3.52376 206.912 3.4668 207.327 3.4668C207.92 3.4668 208.425 3.57161 208.845 3.78125C209.264 3.99089 209.585 4.27116 209.809 4.62207C210.032 4.96842 210.144 5.35352 210.144 5.77734H208.879C208.879 5.57227 208.817 5.37402 208.694 5.18262C208.576 4.98665 208.4 4.82487 208.168 4.69727C207.94 4.56966 207.66 4.50586 207.327 4.50586C206.976 4.50586 206.691 4.56055 206.473 4.66992C206.258 4.77474 206.101 4.90918 206.001 5.07324C205.905 5.2373 205.857 5.41048 205.857 5.59277C205.857 5.72949 205.88 5.85254 205.926 5.96191C205.976 6.06673 206.062 6.16471 206.186 6.25586C206.309 6.34245 206.482 6.42448 206.705 6.50195C206.928 6.57943 207.213 6.6569 207.56 6.73438C208.166 6.87109 208.665 7.03516 209.057 7.22656C209.449 7.41797 209.74 7.65267 209.932 7.93066C210.123 8.20866 210.219 8.5459 210.219 8.94238C210.219 9.26595 210.15 9.56217 210.014 9.83105C209.882 10.0999 209.688 10.3324 209.433 10.5283C209.182 10.7197 208.881 10.8701 208.53 10.9795C208.184 11.0843 207.794 11.1367 207.361 11.1367C206.71 11.1367 206.158 11.0205 205.707 10.7881C205.256 10.5557 204.914 10.2549 204.682 9.88574C204.449 9.5166 204.333 9.12695 204.333 8.7168H205.604C205.623 9.06315 205.723 9.33887 205.905 9.54395C206.088 9.74447 206.311 9.88802 206.575 9.97461C206.84 10.0566 207.102 10.0977 207.361 10.0977C207.708 10.0977 207.997 10.0521 208.229 9.96094C208.466 9.86979 208.646 9.74447 208.77 9.58496C208.893 9.42546 208.954 9.24316 208.954 9.03809ZM215.544 1.04688H218.839C219.586 1.04688 220.217 1.16081 220.732 1.38867C221.252 1.61654 221.646 1.95378 221.915 2.40039C222.188 2.84245 222.325 3.38704 222.325 4.03418C222.325 4.48991 222.232 4.9069 222.045 5.28516C221.863 5.65885 221.598 5.97786 221.252 6.24219C220.91 6.50195 220.5 6.69564 220.021 6.82324L219.652 6.9668H216.556L216.542 5.89355H218.88C219.354 5.89355 219.748 5.81152 220.062 5.64746C220.377 5.47884 220.614 5.25326 220.773 4.9707C220.933 4.68815 221.013 4.37598 221.013 4.03418C221.013 3.65137 220.938 3.31641 220.787 3.0293C220.637 2.74219 220.4 2.52116 220.076 2.36621C219.757 2.20671 219.345 2.12695 218.839 2.12695H216.863V11H215.544V1.04688ZM221.361 11L218.941 6.48828L220.315 6.48145L222.77 10.918V11H221.361ZM227.049 11.1367C226.534 11.1367 226.067 11.0501 225.647 10.877C225.233 10.6992 224.875 10.4508 224.574 10.1318C224.278 9.81283 224.05 9.43457 223.891 8.99707C223.731 8.55957 223.651 8.08105 223.651 7.56152V7.27441C223.651 6.67285 223.74 6.13737 223.918 5.66797C224.096 5.19401 224.337 4.79297 224.643 4.46484C224.948 4.13672 225.294 3.88835 225.682 3.71973C226.069 3.55111 226.47 3.4668 226.885 3.4668C227.413 3.4668 227.869 3.55794 228.252 3.74023C228.639 3.92253 228.956 4.17773 229.202 4.50586C229.448 4.82943 229.631 5.21224 229.749 5.6543C229.868 6.0918 229.927 6.57031 229.927 7.08984V7.65723H224.403V6.625H228.662V6.5293C228.644 6.20117 228.576 5.88216 228.457 5.57227C228.343 5.26237 228.161 5.00716 227.91 4.80664C227.66 4.60612 227.318 4.50586 226.885 4.50586C226.598 4.50586 226.333 4.56738 226.092 4.69043C225.85 4.80892 225.643 4.98665 225.47 5.22363C225.297 5.46061 225.162 5.75 225.066 6.0918C224.971 6.43359 224.923 6.8278 224.923 7.27441V7.56152C224.923 7.91243 224.971 8.24284 225.066 8.55273C225.167 8.85807 225.31 9.12695 225.497 9.35938C225.688 9.5918 225.919 9.77409 226.188 9.90625C226.461 10.0384 226.771 10.1045 227.117 10.1045C227.564 10.1045 227.942 10.0133 228.252 9.83105C228.562 9.64876 228.833 9.40495 229.065 9.09961L229.831 9.70801C229.672 9.94954 229.469 10.1797 229.223 10.3984C228.977 10.6172 228.674 10.7949 228.313 10.9316C227.958 11.0684 227.536 11.1367 227.049 11.1367ZM235.71 9.03809C235.71 8.85579 235.669 8.68717 235.587 8.53223C235.509 8.37272 235.348 8.22917 235.102 8.10156C234.86 7.9694 234.495 7.85547 234.008 7.75977C233.598 7.67318 233.226 7.57064 232.894 7.45215C232.565 7.33366 232.285 7.1901 232.053 7.02148C231.825 6.85286 231.649 6.65462 231.526 6.42676C231.403 6.19889 231.342 5.93229 231.342 5.62695C231.342 5.33529 231.406 5.05957 231.533 4.7998C231.665 4.54004 231.85 4.3099 232.087 4.10938C232.328 3.90885 232.618 3.75163 232.955 3.6377C233.292 3.52376 233.668 3.4668 234.083 3.4668C234.675 3.4668 235.181 3.57161 235.601 3.78125C236.02 3.99089 236.341 4.27116 236.564 4.62207C236.788 4.96842 236.899 5.35352 236.899 5.77734H235.635C235.635 5.57227 235.573 5.37402 235.45 5.18262C235.332 4.98665 235.156 4.82487 234.924 4.69727C234.696 4.56966 234.416 4.50586 234.083 4.50586C233.732 4.50586 233.447 4.56055 233.229 4.66992C233.014 4.77474 232.857 4.90918 232.757 5.07324C232.661 5.2373 232.613 5.41048 232.613 5.59277C232.613 5.72949 232.636 5.85254 232.682 5.96191C232.732 6.06673 232.818 6.16471 232.941 6.25586C233.064 6.34245 233.238 6.42448 233.461 6.50195C233.684 6.57943 233.969 6.6569 234.315 6.73438C234.922 6.87109 235.421 7.03516 235.812 7.22656C236.204 7.41797 236.496 7.65267 236.688 7.93066C236.879 8.20866 236.975 8.5459 236.975 8.94238C236.975 9.26595 236.906 9.56217 236.77 9.83105C236.637 10.0999 236.444 10.3324 236.188 10.5283C235.938 10.7197 235.637 10.8701 235.286 10.9795C234.94 11.0843 234.55 11.1367 234.117 11.1367C233.465 11.1367 232.914 11.0205 232.463 10.7881C232.012 10.5557 231.67 10.2549 231.438 9.88574C231.205 9.5166 231.089 9.12695 231.089 8.7168H232.36C232.379 9.06315 232.479 9.33887 232.661 9.54395C232.843 9.74447 233.067 9.88802 233.331 9.97461C233.595 10.0566 233.857 10.0977 234.117 10.0977C234.464 10.0977 234.753 10.0521 234.985 9.96094C235.222 9.86979 235.402 9.74447 235.525 9.58496C235.648 9.42546 235.71 9.24316 235.71 9.03809ZM241.705 11.1367C241.19 11.1367 240.723 11.0501 240.304 10.877C239.889 10.6992 239.531 10.4508 239.23 10.1318C238.934 9.81283 238.706 9.43457 238.547 8.99707C238.387 8.55957 238.308 8.08105 238.308 7.56152V7.27441C238.308 6.67285 238.396 6.13737 238.574 5.66797C238.752 5.19401 238.993 4.79297 239.299 4.46484C239.604 4.13672 239.951 3.88835 240.338 3.71973C240.725 3.55111 241.126 3.4668 241.541 3.4668C242.07 3.4668 242.525 3.55794 242.908 3.74023C243.296 3.92253 243.612 4.17773 243.858 4.50586C244.104 4.82943 244.287 5.21224 244.405 5.6543C244.524 6.0918 244.583 6.57031 244.583 7.08984V7.65723H239.06V6.625H243.318V6.5293C243.3 6.20117 243.232 5.88216 243.113 5.57227C242.999 5.26237 242.817 5.00716 242.566 4.80664C242.316 4.60612 241.974 4.50586 241.541 4.50586C241.254 4.50586 240.99 4.56738 240.748 4.69043C240.507 4.80892 240.299 4.98665 240.126 5.22363C239.953 5.46061 239.818 5.75 239.723 6.0918C239.627 6.43359 239.579 6.8278 239.579 7.27441V7.56152C239.579 7.91243 239.627 8.24284 239.723 8.55273C239.823 8.85807 239.966 9.12695 240.153 9.35938C240.345 9.5918 240.575 9.77409 240.844 9.90625C241.117 10.0384 241.427 10.1045 241.773 10.1045C242.22 10.1045 242.598 10.0133 242.908 9.83105C243.218 9.64876 243.489 9.40495 243.722 9.09961L244.487 9.70801C244.328 9.94954 244.125 10.1797 243.879 10.3984C243.633 10.6172 243.33 10.7949 242.97 10.9316C242.614 11.0684 242.193 11.1367 241.705 11.1367ZM247.324 4.76562V11H246.06V3.60352H247.29L247.324 4.76562ZM249.635 3.5625L249.628 4.73828C249.523 4.71549 249.423 4.70182 249.327 4.69727C249.236 4.68815 249.131 4.68359 249.013 4.68359C248.721 4.68359 248.464 4.72917 248.24 4.82031C248.017 4.91146 247.828 5.03906 247.673 5.20312C247.518 5.36719 247.395 5.56315 247.304 5.79102C247.217 6.01432 247.16 6.26042 247.133 6.5293L246.777 6.73438C246.777 6.28776 246.821 5.86849 246.907 5.47656C246.998 5.08464 247.137 4.73828 247.324 4.4375C247.511 4.13216 247.748 3.89518 248.035 3.72656C248.327 3.55339 248.673 3.4668 249.074 3.4668C249.165 3.4668 249.27 3.47819 249.389 3.50098C249.507 3.51921 249.589 3.53971 249.635 3.5625ZM253.176 9.8584L255.199 3.60352H256.491L253.832 11H252.984L253.176 9.8584ZM251.487 3.60352L253.572 9.89258L253.716 11H252.868L250.188 3.60352H251.487ZM260.682 11.1367C260.167 11.1367 259.7 11.0501 259.28 10.877C258.866 10.6992 258.508 10.4508 258.207 10.1318C257.911 9.81283 257.683 9.43457 257.523 8.99707C257.364 8.55957 257.284 8.08105 257.284 7.56152V7.27441C257.284 6.67285 257.373 6.13737 257.551 5.66797C257.729 5.19401 257.97 4.79297 258.275 4.46484C258.581 4.13672 258.927 3.88835 259.314 3.71973C259.702 3.55111 260.103 3.4668 260.518 3.4668C261.046 3.4668 261.502 3.55794 261.885 3.74023C262.272 3.92253 262.589 4.17773 262.835 4.50586C263.081 4.82943 263.263 5.21224 263.382 5.6543C263.5 6.0918 263.56 6.57031 263.56 7.08984V7.65723H258.036V6.625H262.295V6.5293C262.277 6.20117 262.208 5.88216 262.09 5.57227C261.976 5.26237 261.794 5.00716 261.543 4.80664C261.292 4.60612 260.951 4.50586 260.518 4.50586C260.23 4.50586 259.966 4.56738 259.725 4.69043C259.483 4.80892 259.276 4.98665 259.103 5.22363C258.929 5.46061 258.795 5.75 258.699 6.0918C258.604 6.43359 258.556 6.8278 258.556 7.27441V7.56152C258.556 7.91243 258.604 8.24284 258.699 8.55273C258.799 8.85807 258.943 9.12695 259.13 9.35938C259.321 9.5918 259.551 9.77409 259.82 9.90625C260.094 10.0384 260.404 10.1045 260.75 10.1045C261.197 10.1045 261.575 10.0133 261.885 9.83105C262.195 9.64876 262.466 9.40495 262.698 9.09961L263.464 9.70801C263.304 9.94954 263.102 10.1797 262.855 10.3984C262.609 10.6172 262.306 10.7949 261.946 10.9316C261.591 11.0684 261.169 11.1367 260.682 11.1367ZM269.698 9.56445V0.5H270.97V11H269.808L269.698 9.56445ZM264.722 7.38379V7.24023C264.722 6.67513 264.79 6.16243 264.927 5.70215C265.068 5.2373 265.266 4.83854 265.521 4.50586C265.781 4.17318 266.089 3.91797 266.444 3.74023C266.804 3.55794 267.205 3.4668 267.647 3.4668C268.112 3.4668 268.518 3.54883 268.864 3.71289C269.215 3.8724 269.511 4.1071 269.753 4.41699C269.999 4.72233 270.193 5.09147 270.334 5.52441C270.475 5.95736 270.573 6.44727 270.628 6.99414V7.62305C270.578 8.16536 270.48 8.65299 270.334 9.08594C270.193 9.51888 269.999 9.88802 269.753 10.1934C269.511 10.4987 269.215 10.7334 268.864 10.8975C268.513 11.057 268.103 11.1367 267.634 11.1367C267.201 11.1367 266.804 11.0433 266.444 10.8564C266.089 10.6696 265.781 10.4076 265.521 10.0703C265.266 9.73307 265.068 9.33659 264.927 8.88086C264.79 8.42057 264.722 7.92155 264.722 7.38379ZM265.993 7.24023V7.38379C265.993 7.75293 266.03 8.09928 266.103 8.42285C266.18 8.74642 266.299 9.03125 266.458 9.27734C266.618 9.52344 266.82 9.71712 267.066 9.8584C267.312 9.99512 267.606 10.0635 267.948 10.0635C268.368 10.0635 268.712 9.97461 268.98 9.79688C269.254 9.61914 269.473 9.38444 269.637 9.09277C269.801 8.80111 269.928 8.48438 270.02 8.14258V6.49512C269.965 6.24447 269.885 6.00293 269.78 5.77051C269.68 5.53353 269.548 5.32389 269.384 5.1416C269.224 4.95475 269.026 4.80664 268.789 4.69727C268.557 4.58789 268.281 4.5332 267.962 4.5332C267.616 4.5332 267.317 4.60612 267.066 4.75195C266.82 4.89323 266.618 5.08919 266.458 5.33984C266.299 5.58594 266.18 5.87305 266.103 6.20117C266.03 6.52474 265.993 6.87109 265.993 7.24023ZM272.959 10.3301C272.959 10.1159 273.025 9.93587 273.157 9.79004C273.294 9.63965 273.49 9.56445 273.745 9.56445C274 9.56445 274.194 9.63965 274.326 9.79004C274.463 9.93587 274.531 10.1159 274.531 10.3301C274.531 10.5397 274.463 10.7174 274.326 10.8633C274.194 11.0091 274 11.082 273.745 11.082C273.49 11.082 273.294 11.0091 273.157 10.8633C273.025 10.7174 272.959 10.5397 272.959 10.3301Z" fill="#94A0A4"/>
</svg>
