<svg width="111" height="12" viewBox="0 0 111 12" fill="none" xmlns="http://www.w3.org/2000/svg">
<path d="M1.57031 1.04688V11H0.250977V1.04688H1.57031ZM13.026 1.04688V11H11.6998L6.68906 3.32324V11H5.36973V1.04688H6.68906L11.7203 8.74414V1.04688H13.026ZM20.2365 1.04688V11H18.9377V1.04688H20.2365ZM23.4357 1.04688V2.12695H15.7453V1.04688H23.4357ZM32.6355 9.92676V11H27.365V9.92676H32.6355ZM27.6316 1.04688V11H26.3123V1.04688H27.6316ZM31.9383 5.32617V6.39941H27.365V5.32617H31.9383ZM32.5672 1.04688V2.12695H27.365V1.04688H32.5672ZM43.0248 6.04395V9.6875C42.9018 9.86979 42.7058 10.0749 42.4369 10.3027C42.168 10.526 41.7966 10.722 41.3227 10.8906C40.8533 11.0547 40.2471 11.1367 39.5043 11.1367C38.8982 11.1367 38.3399 11.0319 37.8295 10.8223C37.3236 10.6081 36.8839 10.2982 36.5102 9.89258C36.141 9.48242 35.8539 8.98568 35.6488 8.40234C35.4483 7.81445 35.348 7.14909 35.348 6.40625V5.63379C35.348 4.89095 35.4346 4.22786 35.6078 3.64453C35.7855 3.0612 36.0453 2.56673 36.3871 2.16113C36.7289 1.75098 37.1482 1.44108 37.6449 1.23145C38.1417 1.01725 38.7113 0.910156 39.3539 0.910156C40.115 0.910156 40.7507 1.04232 41.2611 1.30664C41.7761 1.56641 42.1771 1.92643 42.4643 2.38672C42.7559 2.84701 42.9428 3.37109 43.0248 3.95898H41.7055C41.6462 3.59896 41.5277 3.27083 41.35 2.97461C41.1768 2.67839 40.9284 2.44141 40.6049 2.26367C40.2813 2.08138 39.8643 1.99023 39.3539 1.99023C38.8936 1.99023 38.4949 2.07454 38.1576 2.24316C37.8204 2.41178 37.5424 2.65332 37.3236 2.96777C37.1049 3.28223 36.9408 3.66276 36.8314 4.10938C36.7266 4.55599 36.6742 5.05957 36.6742 5.62012V6.40625C36.6742 6.98047 36.7403 7.49316 36.8725 7.94434C37.0092 8.39551 37.2029 8.7806 37.4535 9.09961C37.7042 9.41406 38.0027 9.65332 38.349 9.81738C38.6999 9.98145 39.0873 10.0635 39.5111 10.0635C39.9805 10.0635 40.3611 10.0247 40.6527 9.94727C40.9444 9.86523 41.1723 9.76953 41.3363 9.66016C41.5004 9.54622 41.6257 9.43913 41.7123 9.33887V7.11035H39.4086V6.04395H43.0248ZM46.6123 1.04688H49.9072C50.6546 1.04688 51.2858 1.16081 51.8008 1.38867C52.3203 1.61654 52.7145 1.95378 52.9834 2.40039C53.2568 2.84245 53.3936 3.38704 53.3936 4.03418C53.3936 4.48991 53.3001 4.9069 53.1133 5.28516C52.931 5.65885 52.6667 5.97786 52.3203 6.24219C51.9785 6.50195 51.5684 6.69564 51.0898 6.82324L50.7207 6.9668H47.624L47.6104 5.89355H49.9482C50.4222 5.89355 50.8164 5.81152 51.1309 5.64746C51.4453 5.47884 51.6823 5.25326 51.8418 4.9707C52.0013 4.68815 52.0811 4.37598 52.0811 4.03418C52.0811 3.65137 52.0059 3.31641 51.8555 3.0293C51.7051 2.74219 51.4681 2.52116 51.1445 2.36621C50.8255 2.20671 50.4131 2.12695 49.9072 2.12695H47.9316V11H46.6123V1.04688ZM52.4297 11L50.0098 6.48828L51.3838 6.48145L53.8379 10.918V11H52.4297ZM60.3238 1.92871L57.0289 11H55.6822L59.4762 1.04688H60.3443L60.3238 1.92871ZM63.0855 11L59.7838 1.92871L59.7633 1.04688H60.6314L64.4391 11H63.0855ZM62.9146 7.31543V8.39551H57.3229V7.31543H62.9146ZM69.9611 1.04688V11H68.6623V1.04688H69.9611ZM73.1604 1.04688V2.12695H65.4699V1.04688H73.1604ZM77.452 1.04688V11H76.1326V1.04688H77.452ZM88.9145 5.70898V6.33789C88.9145 7.08529 88.821 7.75521 88.6342 8.34766C88.4473 8.9401 88.1784 9.44368 87.8275 9.8584C87.4766 10.2731 87.0551 10.5898 86.5629 10.8086C86.0753 11.0273 85.5284 11.1367 84.9223 11.1367C84.3344 11.1367 83.7943 11.0273 83.3021 10.8086C82.8145 10.5898 82.3907 10.2731 82.0307 9.8584C81.6752 9.44368 81.3995 8.9401 81.2035 8.34766C81.0076 7.75521 80.9096 7.08529 80.9096 6.33789V5.70898C80.9096 4.96159 81.0053 4.29395 81.1967 3.70605C81.3926 3.11361 81.6684 2.61003 82.0238 2.19531C82.3793 1.77604 82.8008 1.45703 83.2885 1.23828C83.7807 1.01953 84.3207 0.910156 84.9086 0.910156C85.5147 0.910156 86.0616 1.01953 86.5492 1.23828C87.0414 1.45703 87.463 1.77604 87.8139 2.19531C88.1693 2.61003 88.4405 3.11361 88.6273 3.70605C88.8187 4.29395 88.9145 4.96159 88.9145 5.70898ZM87.6088 6.33789V5.69531C87.6088 5.10286 87.5473 4.57878 87.4242 4.12305C87.3057 3.66732 87.1303 3.28451 86.8979 2.97461C86.6654 2.66471 86.3806 2.43001 86.0434 2.27051C85.7107 2.111 85.3324 2.03125 84.9086 2.03125C84.4984 2.03125 84.127 2.111 83.7943 2.27051C83.4662 2.43001 83.1837 2.66471 82.9467 2.97461C82.7143 3.28451 82.5342 3.66732 82.4066 4.12305C82.279 4.57878 82.2152 5.10286 82.2152 5.69531V6.33789C82.2152 6.9349 82.279 7.46354 82.4066 7.92383C82.5342 8.37956 82.7165 8.76465 82.9535 9.0791C83.1951 9.389 83.4799 9.6237 83.808 9.7832C84.1407 9.94271 84.5121 10.0225 84.9223 10.0225C85.3506 10.0225 85.7312 9.94271 86.0639 9.7832C86.3965 9.6237 86.6768 9.389 86.9047 9.0791C87.1371 8.76465 87.3126 8.37956 87.4311 7.92383C87.5495 7.46354 87.6088 6.9349 87.6088 6.33789ZM99.9463 1.04688V11H98.6201L93.6094 3.32324V11H92.29V1.04688H93.6094L98.6406 8.74414V1.04688H99.9463ZM108.989 8.48438C108.989 8.25195 108.952 8.04688 108.879 7.86914C108.811 7.68685 108.688 7.52279 108.51 7.37695C108.337 7.23112 108.096 7.09212 107.786 6.95996C107.48 6.8278 107.093 6.69336 106.624 6.55664C106.131 6.41081 105.687 6.24902 105.291 6.07129C104.894 5.889 104.555 5.68164 104.272 5.44922C103.99 5.2168 103.773 4.9502 103.623 4.64941C103.472 4.34863 103.397 4.00456 103.397 3.61719C103.397 3.22982 103.477 2.87207 103.636 2.54395C103.796 2.21582 104.024 1.93099 104.32 1.68945C104.621 1.44336 104.978 1.25195 105.393 1.11523C105.808 0.978516 106.27 0.910156 106.781 0.910156C107.528 0.910156 108.162 1.05371 108.681 1.34082C109.205 1.62337 109.604 1.99479 109.878 2.45508C110.151 2.91081 110.288 3.39844 110.288 3.91797H108.975C108.975 3.54427 108.895 3.21387 108.736 2.92676C108.576 2.63509 108.335 2.40723 108.011 2.24316C107.688 2.07454 107.278 1.99023 106.781 1.99023C106.311 1.99023 105.924 2.06087 105.619 2.20215C105.313 2.34342 105.086 2.53483 104.935 2.77637C104.789 3.0179 104.716 3.29362 104.716 3.60352C104.716 3.81315 104.76 4.00456 104.846 4.17773C104.937 4.34635 105.076 4.50358 105.263 4.64941C105.455 4.79525 105.696 4.92969 105.988 5.05273C106.284 5.17578 106.637 5.29427 107.047 5.4082C107.613 5.56771 108.1 5.74544 108.51 5.94141C108.921 6.13737 109.258 6.3584 109.522 6.60449C109.791 6.84603 109.989 7.12174 110.117 7.43164C110.249 7.73698 110.315 8.08333 110.315 8.4707C110.315 8.8763 110.233 9.24316 110.069 9.57129C109.905 9.89941 109.67 10.1797 109.365 10.4121C109.06 10.6445 108.693 10.8245 108.264 10.9521C107.84 11.0752 107.366 11.1367 106.842 11.1367C106.382 11.1367 105.929 11.0729 105.482 10.9453C105.04 10.8177 104.637 10.6263 104.272 10.3711C103.912 10.1159 103.623 9.80143 103.404 9.42773C103.19 9.04948 103.083 8.61198 103.083 8.11523H104.395C104.395 8.45703 104.461 8.75098 104.593 8.99707C104.726 9.23861 104.906 9.43913 105.133 9.59863C105.366 9.75814 105.628 9.87663 105.92 9.9541C106.216 10.027 106.523 10.0635 106.842 10.0635C107.303 10.0635 107.692 9.99967 108.011 9.87207C108.33 9.74447 108.572 9.56217 108.736 9.3252C108.905 9.08822 108.989 8.80794 108.989 8.48438Z" fill="#375361"/>
</svg>
