<svg width="609" height="96" viewBox="0 0 609 96" fill="none" xmlns="http://www.w3.org/2000/svg">
<path d="M33.7977 31.7803V35H18.868V31.7803H33.7977ZM19.6473 5.14062V35H15.6893V5.14062H19.6473ZM51.2597 31.2061V19.7832C51.2597 18.9082 51.082 18.1494 50.7265 17.5068C50.3847 16.8506 49.8652 16.3447 49.1679 15.9893C48.4706 15.6338 47.6093 15.4561 46.5839 15.4561C45.6269 15.4561 44.7861 15.6201 44.0614 15.9482C43.3505 16.2764 42.79 16.707 42.3798 17.2402C41.9833 17.7734 41.7851 18.3477 41.7851 18.9629H37.9911C37.9911 18.1699 38.1962 17.3838 38.6064 16.6045C39.0165 15.8252 39.6044 15.1211 40.37 14.4922C41.1493 13.8496 42.079 13.3438 43.1591 12.9746C44.2529 12.5918 45.4697 12.4004 46.8095 12.4004C48.4228 12.4004 49.8447 12.6738 51.0751 13.2207C52.3193 13.7676 53.29 14.5947 53.9872 15.7021C54.6982 16.7959 55.0536 18.1699 55.0536 19.8242V30.1602C55.0536 30.8984 55.1152 31.6846 55.2382 32.5186C55.3749 33.3525 55.5732 34.0703 55.8329 34.6719V35H51.8749C51.6835 34.5625 51.5331 33.9814 51.4238 33.2568C51.3144 32.5186 51.2597 31.835 51.2597 31.2061ZM51.9159 21.5469L51.957 24.2129H48.122C47.0419 24.2129 46.078 24.3018 45.2304 24.4795C44.3827 24.6436 43.6718 24.8965 43.0976 25.2383C42.5234 25.5801 42.0859 26.0107 41.7851 26.5303C41.4843 27.0361 41.3339 27.6309 41.3339 28.3145C41.3339 29.0117 41.4911 29.6475 41.8056 30.2217C42.12 30.7959 42.5917 31.2539 43.2206 31.5957C43.8632 31.9238 44.6493 32.0879 45.579 32.0879C46.7411 32.0879 47.7665 31.8418 48.6552 31.3496C49.5439 30.8574 50.248 30.2559 50.7675 29.5449C51.3007 28.834 51.5878 28.1436 51.6288 27.4736L53.2489 29.2988C53.1532 29.873 52.8935 30.5088 52.4697 31.2061C52.0458 31.9033 51.4784 32.5732 50.7675 33.2158C50.0702 33.8447 49.2363 34.3711 48.2655 34.7949C47.3085 35.2051 46.2284 35.4102 45.0253 35.4102C43.5214 35.4102 42.2021 35.1162 41.0673 34.5283C39.9462 33.9404 39.0712 33.1543 38.4423 32.1699C37.8271 31.1719 37.5195 30.0576 37.5195 28.8271C37.5195 27.6377 37.7519 26.5918 38.2167 25.6895C38.6816 24.7734 39.3515 24.0146 40.2265 23.4131C41.1015 22.7979 42.1542 22.333 43.3847 22.0186C44.6152 21.7041 45.9892 21.5469 47.5068 21.5469H51.9159ZM75.0176 29.873V12.8105H78.832V35H75.2022L75.0176 29.873ZM75.7354 25.1973L77.3145 25.1562C77.3145 26.6328 77.1572 28 76.8428 29.2578C76.542 30.502 76.0498 31.582 75.3662 32.498C74.6826 33.4141 73.7871 34.1318 72.6797 34.6514C71.5723 35.1572 70.2256 35.4102 68.6397 35.4102C67.5596 35.4102 66.5684 35.2529 65.666 34.9385C64.7773 34.624 64.0117 34.1387 63.3691 33.4824C62.7266 32.8262 62.2275 31.9717 61.8721 30.9189C61.5303 29.8662 61.3594 28.6016 61.3594 27.125V12.8105H65.1533V27.166C65.1533 28.1641 65.2627 28.9912 65.4814 29.6475C65.7139 30.29 66.0215 30.8027 66.4043 31.1855C66.8008 31.5547 67.2383 31.8145 67.7168 31.9648C68.209 32.1152 68.7148 32.1904 69.2344 32.1904C70.8477 32.1904 72.126 31.8828 73.0693 31.2676C74.0127 30.6387 74.6895 29.7979 75.0996 28.7451C75.5234 27.6787 75.7354 26.4961 75.7354 25.1973ZM88.8292 17.5479V35H85.0352V12.8105H88.6241L88.8292 17.5479ZM87.9268 23.0645L86.3477 23.0029C86.3614 21.4854 86.587 20.084 87.0245 18.7988C87.462 17.5 88.0772 16.3721 88.8702 15.415C89.6632 14.458 90.6065 13.7197 91.7003 13.2002C92.8077 12.667 94.0313 12.4004 95.3712 12.4004C96.4649 12.4004 97.4493 12.5508 98.3243 12.8516C99.1993 13.1387 99.9444 13.6035 100.56 14.2461C101.189 14.8887 101.667 15.7227 101.995 16.748C102.323 17.7598 102.487 18.9971 102.487 20.46V35H98.6729V20.4189C98.6729 19.2568 98.502 18.3271 98.1602 17.6299C97.8184 16.9189 97.3194 16.4062 96.6632 16.0918C96.0069 15.7637 95.2003 15.5996 94.2432 15.5996C93.2999 15.5996 92.4386 15.7979 91.6593 16.1943C90.8936 16.5908 90.2306 17.1377 89.67 17.835C89.1231 18.5322 88.6925 19.332 88.378 20.2344C88.0772 21.123 87.9268 22.0664 87.9268 23.0645ZM117.55 32.293C118.452 32.293 119.286 32.1084 120.052 31.7393C120.818 31.3701 121.446 30.8643 121.939 30.2217C122.431 29.5654 122.711 28.8203 122.779 27.9863H126.389C126.32 29.2988 125.876 30.5225 125.056 31.6572C124.249 32.7783 123.19 33.6875 121.877 34.3848C120.565 35.0684 119.122 35.4102 117.55 35.4102C115.882 35.4102 114.426 35.1162 113.182 34.5283C111.951 33.9404 110.926 33.1338 110.106 32.1084C109.299 31.083 108.691 29.9072 108.28 28.5811C107.884 27.2412 107.686 25.8262 107.686 24.3359V23.4746C107.686 21.9844 107.884 20.5762 108.28 19.25C108.691 17.9102 109.299 16.7275 110.106 15.7021C110.926 14.6768 111.951 13.8701 113.182 13.2822C114.426 12.6943 115.882 12.4004 117.55 12.4004C119.286 12.4004 120.804 12.7559 122.103 13.4668C123.402 14.1641 124.42 15.1211 125.158 16.3379C125.91 17.541 126.32 18.9082 126.389 20.4395H122.779C122.711 19.5234 122.451 18.6963 122 17.958C121.563 17.2197 120.961 16.6318 120.195 16.1943C119.444 15.7432 118.562 15.5176 117.55 15.5176C116.388 15.5176 115.41 15.75 114.617 16.2148C113.838 16.666 113.216 17.2812 112.751 18.0605C112.3 18.8262 111.972 19.6807 111.767 20.624C111.575 21.5537 111.48 22.5039 111.48 23.4746V24.3359C111.48 25.3066 111.575 26.2637 111.767 27.207C111.958 28.1504 112.279 29.0049 112.731 29.7705C113.195 30.5361 113.818 31.1514 114.597 31.6162C115.39 32.0674 116.374 32.293 117.55 32.293ZM134.868 3.5V35H131.074V3.5H134.868ZM133.966 23.0645L132.387 23.0029C132.401 21.4854 132.626 20.084 133.064 18.7988C133.501 17.5 134.116 16.3721 134.909 15.415C135.702 14.458 136.646 13.7197 137.74 13.2002C138.847 12.667 140.071 12.4004 141.41 12.4004C142.504 12.4004 143.489 12.5508 144.364 12.8516C145.239 13.1387 145.984 13.6035 146.599 14.2461C147.228 14.8887 147.706 15.7227 148.034 16.748C148.363 17.7598 148.527 18.9971 148.527 20.46V35H144.712V20.4189C144.712 19.2568 144.541 18.3271 144.199 17.6299C143.858 16.9189 143.359 16.4062 142.702 16.0918C142.046 15.7637 141.24 15.5996 140.282 15.5996C139.339 15.5996 138.478 15.7979 137.698 16.1943C136.933 16.5908 136.27 17.1377 135.709 17.835C135.162 18.5322 134.732 19.332 134.417 20.2344C134.116 21.123 133.966 22.0664 133.966 23.0645ZM178.549 31.2061V19.7832C178.549 18.9082 178.371 18.1494 178.016 17.5068C177.674 16.8506 177.155 16.3447 176.457 15.9893C175.76 15.6338 174.899 15.4561 173.873 15.4561C172.916 15.4561 172.076 15.6201 171.351 15.9482C170.64 16.2764 170.079 16.707 169.669 17.2402C169.273 17.7734 169.075 18.3477 169.075 18.9629H165.281C165.281 18.1699 165.486 17.3838 165.896 16.6045C166.306 15.8252 166.894 15.1211 167.66 14.4922C168.439 13.8496 169.369 13.3438 170.449 12.9746C171.542 12.5918 172.759 12.4004 174.099 12.4004C175.712 12.4004 177.134 12.6738 178.365 13.2207C179.609 13.7676 180.579 14.5947 181.277 15.7021C181.988 16.7959 182.343 18.1699 182.343 19.8242V30.1602C182.343 30.8984 182.405 31.6846 182.528 32.5186C182.664 33.3525 182.863 34.0703 183.122 34.6719V35H179.164C178.973 34.5625 178.823 33.9814 178.713 33.2568C178.604 32.5186 178.549 31.835 178.549 31.2061ZM179.205 21.5469L179.246 24.2129H175.412C174.331 24.2129 173.368 24.3018 172.52 24.4795C171.672 24.6436 170.961 24.8965 170.387 25.2383C169.813 25.5801 169.375 26.0107 169.075 26.5303C168.774 27.0361 168.623 27.6309 168.623 28.3145C168.623 29.0117 168.781 29.6475 169.095 30.2217C169.41 30.7959 169.881 31.2539 170.51 31.5957C171.153 31.9238 171.939 32.0879 172.869 32.0879C174.031 32.0879 175.056 31.8418 175.945 31.3496C176.833 30.8574 177.538 30.2559 178.057 29.5449C178.59 28.834 178.877 28.1436 178.918 27.4736L180.538 29.2988C180.443 29.873 180.183 30.5088 179.759 31.2061C179.335 31.9033 178.768 32.5732 178.057 33.2158C177.36 33.8447 176.526 34.3711 175.555 34.7949C174.598 35.2051 173.518 35.4102 172.315 35.4102C170.811 35.4102 169.492 35.1162 168.357 34.5283C167.236 33.9404 166.361 33.1543 165.732 32.1699C165.117 31.1719 164.809 30.0576 164.809 28.8271C164.809 27.6377 165.041 26.5918 165.506 25.6895C165.971 24.7734 166.641 24.0146 167.516 23.4131C168.391 22.7979 169.444 22.333 170.674 22.0186C171.905 21.7041 173.279 21.5469 174.796 21.5469H179.205ZM216.057 27.4531C216.057 26.7559 215.948 26.1406 215.729 25.6074C215.524 25.0605 215.155 24.5684 214.622 24.1309C214.102 23.6934 213.378 23.2764 212.448 22.8799C211.532 22.4834 210.37 22.0801 208.961 21.6699C207.485 21.2324 206.152 20.7471 204.962 20.2139C203.773 19.667 202.754 19.0449 201.907 18.3477C201.059 17.6504 200.41 16.8506 199.959 15.9482C199.507 15.0459 199.282 14.0137 199.282 12.8516C199.282 11.6895 199.521 10.6162 200 9.63184C200.478 8.64746 201.162 7.79297 202.05 7.06836C202.953 6.33008 204.026 5.75586 205.27 5.3457C206.514 4.93555 207.902 4.73047 209.433 4.73047C211.675 4.73047 213.576 5.16113 215.134 6.02246C216.707 6.87012 217.903 7.98438 218.723 9.36523C219.544 10.7324 219.954 12.1953 219.954 13.7539H216.016C216.016 12.6328 215.777 11.6416 215.298 10.7803C214.82 9.90527 214.095 9.22168 213.125 8.72949C212.154 8.22363 210.923 7.9707 209.433 7.9707C208.025 7.9707 206.863 8.18262 205.947 8.60645C205.031 9.03027 204.347 9.60449 203.896 10.3291C203.459 11.0537 203.24 11.8809 203.24 12.8105C203.24 13.4395 203.37 14.0137 203.629 14.5332C203.903 15.0391 204.32 15.5107 204.88 15.9482C205.455 16.3857 206.179 16.7891 207.054 17.1582C207.943 17.5273 209.003 17.8828 210.233 18.2246C211.928 18.7031 213.391 19.2363 214.622 19.8242C215.852 20.4121 216.864 21.0752 217.657 21.8135C218.463 22.5381 219.058 23.3652 219.441 24.2949C219.837 25.2109 220.036 26.25 220.036 27.4121C220.036 28.6289 219.79 29.7295 219.297 30.7139C218.805 31.6982 218.101 32.5391 217.185 33.2363C216.269 33.9336 215.169 34.4736 213.883 34.8564C212.612 35.2256 211.19 35.4102 209.618 35.4102C208.237 35.4102 206.877 35.2188 205.537 34.8359C204.211 34.4531 203.001 33.8789 201.907 33.1133C200.827 32.3477 199.959 31.4043 199.302 30.2832C198.66 29.1484 198.338 27.8359 198.338 26.3457H202.276C202.276 27.3711 202.474 28.2529 202.871 28.9912C203.267 29.7158 203.807 30.3174 204.491 30.7959C205.188 31.2744 205.974 31.6299 206.849 31.8623C207.738 32.0811 208.661 32.1904 209.618 32.1904C210.999 32.1904 212.168 31.999 213.125 31.6162C214.082 31.2334 214.806 30.6865 215.298 29.9756C215.804 29.2646 216.057 28.4238 216.057 27.4531ZM228.72 17.0762V43.5312H224.906V12.8105H228.392L228.72 17.0762ZM243.671 23.7207V24.1514C243.671 25.7646 243.479 27.2617 243.096 28.6426C242.714 30.0098 242.153 31.1992 241.415 32.2109C240.69 33.2227 239.795 34.0088 238.728 34.5693C237.662 35.1299 236.438 35.4102 235.057 35.4102C233.649 35.4102 232.405 35.1777 231.325 34.7129C230.245 34.248 229.329 33.5713 228.577 32.6826C227.825 31.7939 227.223 30.7275 226.772 29.4834C226.335 28.2393 226.034 26.8379 225.87 25.2793V22.9824C226.034 21.3418 226.341 19.8721 226.793 18.5732C227.244 17.2744 227.839 16.167 228.577 15.251C229.329 14.3213 230.238 13.6172 231.304 13.1387C232.371 12.6465 233.601 12.4004 234.996 12.4004C236.39 12.4004 237.628 12.6738 238.708 13.2207C239.788 13.7539 240.697 14.5195 241.435 15.5176C242.173 16.5156 242.727 17.7119 243.096 19.1064C243.479 20.4873 243.671 22.0254 243.671 23.7207ZM239.856 24.1514V23.7207C239.856 22.6133 239.74 21.5742 239.507 20.6035C239.275 19.6191 238.913 18.7578 238.421 18.0195C237.942 17.2676 237.327 16.6797 236.575 16.2559C235.823 15.8184 234.927 15.5996 233.888 15.5996C232.931 15.5996 232.097 15.7637 231.386 16.0918C230.689 16.4199 230.094 16.8643 229.602 17.4248C229.11 17.9717 228.707 18.6006 228.392 19.3115C228.091 20.0088 227.866 20.7334 227.715 21.4854V26.7969C227.989 27.7539 228.372 28.6562 228.864 29.5039C229.356 30.3379 230.012 31.0146 230.833 31.5342C231.653 32.04 232.685 32.293 233.929 32.293C234.955 32.293 235.837 32.0811 236.575 31.6572C237.327 31.2197 237.942 30.625 238.421 29.873C238.913 29.1211 239.275 28.2598 239.507 27.2891C239.74 26.3047 239.856 25.2588 239.856 24.1514ZM252.724 16.2969V35H248.93V12.8105H252.622L252.724 16.2969ZM259.656 12.6875L259.635 16.2148C259.321 16.1465 259.02 16.1055 258.733 16.0918C258.46 16.0645 258.145 16.0508 257.79 16.0508C256.915 16.0508 256.142 16.1875 255.472 16.4609C254.802 16.7344 254.235 17.1172 253.77 17.6094C253.305 18.1016 252.936 18.6895 252.663 19.373C252.403 20.043 252.232 20.7812 252.15 21.5879L251.084 22.2031C251.084 20.8633 251.214 19.6055 251.473 18.4297C251.747 17.2539 252.164 16.2148 252.724 15.3125C253.285 14.3965 253.996 13.6855 254.857 13.1797C255.732 12.6602 256.771 12.4004 257.974 12.4004C258.248 12.4004 258.562 12.4346 258.918 12.5029C259.273 12.5576 259.519 12.6191 259.656 12.6875ZM267.705 12.8105V35H263.89V12.8105H267.705ZM263.603 6.9248C263.603 6.30957 263.788 5.79004 264.157 5.36621C264.54 4.94238 265.1 4.73047 265.839 4.73047C266.563 4.73047 267.117 4.94238 267.5 5.36621C267.896 5.79004 268.095 6.30957 268.095 6.9248C268.095 7.5127 267.896 8.01855 267.5 8.44238C267.117 8.85254 266.563 9.05762 265.839 9.05762C265.1 9.05762 264.54 8.85254 264.157 8.44238C263.788 8.01855 263.603 7.5127 263.603 6.9248ZM288.592 12.8105H292.037V34.5283C292.037 36.4834 291.641 38.1514 290.848 39.5322C290.055 40.9131 288.947 41.959 287.525 42.6699C286.117 43.3945 284.49 43.7568 282.644 43.7568C281.879 43.7568 280.976 43.6338 279.937 43.3877C278.912 43.1553 277.9 42.752 276.902 42.1777C275.918 41.6172 275.091 40.8584 274.421 39.9014L276.41 37.6455C277.34 38.7666 278.31 39.5459 279.322 39.9834C280.348 40.4209 281.359 40.6396 282.357 40.6396C283.56 40.6396 284.599 40.4141 285.474 39.9629C286.349 39.5117 287.026 38.8418 287.505 37.9531C287.997 37.0781 288.243 35.998 288.243 34.7129V17.6914L288.592 12.8105ZM273.313 24.1514V23.7207C273.313 22.0254 273.512 20.4873 273.908 19.1064C274.318 17.7119 274.899 16.5156 275.651 15.5176C276.417 14.5195 277.34 13.7539 278.42 13.2207C279.5 12.6738 280.717 12.4004 282.07 12.4004C283.465 12.4004 284.682 12.6465 285.721 13.1387C286.773 13.6172 287.662 14.3213 288.387 15.251C289.125 16.167 289.706 17.2744 290.13 18.5732C290.554 19.8721 290.848 21.3418 291.012 22.9824V24.8691C290.861 26.4961 290.567 27.959 290.13 29.2578C289.706 30.5566 289.125 31.6641 288.387 32.5801C287.662 33.4961 286.773 34.2002 285.721 34.6924C284.668 35.1709 283.437 35.4102 282.029 35.4102C280.703 35.4102 279.5 35.1299 278.42 34.5693C277.353 34.0088 276.437 33.2227 275.672 32.2109C274.906 31.1992 274.318 30.0098 273.908 28.6426C273.512 27.2617 273.313 25.7646 273.313 24.1514ZM277.107 23.7207V24.1514C277.107 25.2588 277.217 26.2979 277.435 27.2686C277.668 28.2393 278.016 29.0938 278.481 29.832C278.96 30.5703 279.568 31.1514 280.307 31.5752C281.045 31.9854 281.927 32.1904 282.952 32.1904C284.21 32.1904 285.249 31.9238 286.069 31.3906C286.89 30.8574 287.539 30.1533 288.017 29.2783C288.51 28.4033 288.892 27.4531 289.166 26.4277V21.4854C289.016 20.7334 288.783 20.0088 288.469 19.3115C288.168 18.6006 287.771 17.9717 287.279 17.4248C286.801 16.8643 286.206 16.4199 285.495 16.0918C284.784 15.7637 283.95 15.5996 282.993 15.5996C281.954 15.5996 281.058 15.8184 280.307 16.2559C279.568 16.6797 278.96 17.2676 278.481 18.0195C278.016 18.7578 277.668 19.6191 277.435 20.6035C277.217 21.5742 277.107 22.6133 277.107 23.7207ZM314.677 31.0625L320.378 12.8105H322.88L322.388 16.4404L316.584 35H314.144L314.677 31.0625ZM310.842 12.8105L315.702 31.2676L316.051 35H313.487L307.048 12.8105H310.842ZM328.335 31.124L332.97 12.8105H336.743L330.304 35H327.761L328.335 31.124ZM323.434 12.8105L329.012 30.7549L329.647 35H327.228L321.26 16.3994L320.768 12.8105H323.434ZM345.182 12.8105V35H341.367V12.8105H345.182ZM341.08 6.9248C341.08 6.30957 341.265 5.79004 341.634 5.36621C342.017 4.94238 342.577 4.73047 343.316 4.73047C344.04 4.73047 344.594 4.94238 344.977 5.36621C345.373 5.79004 345.571 6.30957 345.571 6.9248C345.571 7.5127 345.373 8.01855 344.977 8.44238C344.594 8.85254 344.04 9.05762 343.316 9.05762C342.577 9.05762 342.017 8.85254 341.634 8.44238C341.265 8.01855 341.08 7.5127 341.08 6.9248ZM360.983 12.8105V15.7227H348.986V12.8105H360.983ZM353.046 7.41699H356.84V29.5039C356.84 30.2559 356.956 30.8232 357.189 31.2061C357.421 31.5889 357.722 31.8418 358.091 31.9648C358.46 32.0879 358.857 32.1494 359.28 32.1494C359.595 32.1494 359.923 32.1221 360.265 32.0674C360.62 31.999 360.887 31.9443 361.065 31.9033L361.085 35C360.784 35.0957 360.388 35.1846 359.896 35.2666C359.417 35.3623 358.836 35.4102 358.153 35.4102C357.223 35.4102 356.368 35.2256 355.589 34.8564C354.81 34.4873 354.188 33.8721 353.723 33.0107C353.272 32.1357 353.046 30.96 353.046 29.4834V7.41699ZM369.647 3.5V35H365.853V3.5H369.647ZM368.744 23.0645L367.165 23.0029C367.179 21.4854 367.405 20.084 367.842 18.7988C368.28 17.5 368.895 16.3721 369.688 15.415C370.481 14.458 371.424 13.7197 372.518 13.2002C373.625 12.667 374.849 12.4004 376.189 12.4004C377.283 12.4004 378.267 12.5508 379.142 12.8516C380.017 13.1387 380.762 13.6035 381.377 14.2461C382.006 14.8887 382.485 15.7227 382.813 16.748C383.141 17.7598 383.305 18.9971 383.305 20.46V35H379.491V20.4189C379.491 19.2568 379.32 18.3271 378.978 17.6299C378.636 16.9189 378.137 16.4062 377.481 16.0918C376.824 15.7637 376.018 15.5996 375.061 15.5996C374.117 15.5996 373.256 15.7979 372.477 16.1943C371.711 16.5908 371.048 17.1377 370.488 17.835C369.941 18.5322 369.51 19.332 369.196 20.2344C368.895 21.123 368.744 22.0664 368.744 23.0645ZM393.528 12.8105V35H389.713V12.8105H393.528ZM389.426 6.9248C389.426 6.30957 389.611 5.79004 389.98 5.36621C390.363 4.94238 390.923 4.73047 391.661 4.73047C392.386 4.73047 392.94 4.94238 393.323 5.36621C393.719 5.79004 393.917 6.30957 393.917 6.9248C393.917 7.5127 393.719 8.01855 393.323 8.44238C392.94 8.85254 392.386 9.05762 391.661 9.05762C390.923 9.05762 390.363 8.85254 389.98 8.44238C389.611 8.01855 389.426 7.5127 389.426 6.9248ZM403.832 17.5479V35H400.039V12.8105H403.627L403.832 17.5479ZM402.93 23.0645L401.351 23.0029C401.365 21.4854 401.59 20.084 402.028 18.7988C402.465 17.5 403.081 16.3721 403.873 15.415C404.666 14.458 405.61 13.7197 406.704 13.2002C407.811 12.667 409.035 12.4004 410.374 12.4004C411.468 12.4004 412.453 12.5508 413.328 12.8516C414.203 13.1387 414.948 13.6035 415.563 14.2461C416.192 14.8887 416.67 15.7227 416.998 16.748C417.327 17.7598 417.491 18.9971 417.491 20.46V35H413.676V20.4189C413.676 19.2568 413.505 18.3271 413.164 17.6299C412.822 16.9189 412.323 16.4062 411.666 16.0918C411.01 15.7637 410.204 15.5996 409.247 15.5996C408.303 15.5996 407.442 15.7979 406.663 16.1943C405.897 16.5908 405.234 17.1377 404.673 17.835C404.126 18.5322 403.696 19.332 403.381 20.2344C403.081 21.123 402.93 22.0664 402.93 23.0645ZM438.285 17.2197V35H434.47V12.8105H438.08L438.285 17.2197ZM437.505 23.0645L435.742 23.0029C435.755 21.4854 435.954 20.084 436.337 18.7988C436.719 17.5 437.287 16.3721 438.039 15.415C438.791 14.458 439.727 13.7197 440.848 13.2002C441.969 12.667 443.268 12.4004 444.745 12.4004C445.784 12.4004 446.741 12.5508 447.616 12.8516C448.491 13.1387 449.25 13.5967 449.892 14.2256C450.535 14.8545 451.034 15.6611 451.389 16.6455C451.745 17.6299 451.922 18.8193 451.922 20.2139V35H448.129V20.3984C448.129 19.2363 447.93 18.3066 447.534 17.6094C447.151 16.9121 446.604 16.4062 445.893 16.0918C445.182 15.7637 444.348 15.5996 443.391 15.5996C442.27 15.5996 441.334 15.7979 440.582 16.1943C439.83 16.5908 439.228 17.1377 438.777 17.835C438.326 18.5322 437.998 19.332 437.793 20.2344C437.601 21.123 437.505 22.0664 437.505 23.0645ZM451.881 20.9727L449.338 21.752C449.352 20.5352 449.55 19.3662 449.933 18.2451C450.33 17.124 450.897 16.126 451.635 15.251C452.387 14.376 453.31 13.6855 454.404 13.1797C455.498 12.6602 456.749 12.4004 458.157 12.4004C459.346 12.4004 460.399 12.5576 461.315 12.8721C462.245 13.1865 463.024 13.6719 463.653 14.3281C464.296 14.9707 464.781 15.7979 465.109 16.8096C465.437 17.8213 465.601 19.0244 465.601 20.4189V35H461.787V20.3779C461.787 19.1338 461.588 18.1699 461.192 17.4863C460.809 16.7891 460.262 16.3037 459.551 16.0303C458.854 15.7432 458.02 15.5996 457.049 15.5996C456.215 15.5996 455.477 15.7432 454.835 16.0303C454.192 16.3174 453.652 16.7139 453.214 17.2197C452.777 17.7119 452.442 18.2793 452.21 18.9219C451.991 19.5645 451.881 20.248 451.881 20.9727ZM475.885 12.8105V35H472.071V12.8105H475.885ZM471.784 6.9248C471.784 6.30957 471.968 5.79004 472.338 5.36621C472.72 4.94238 473.281 4.73047 474.019 4.73047C474.744 4.73047 475.298 4.94238 475.68 5.36621C476.077 5.79004 476.275 6.30957 476.275 6.9248C476.275 7.5127 476.077 8.01855 475.68 8.44238C475.298 8.85254 474.744 9.05762 474.019 9.05762C473.281 9.05762 472.72 8.85254 472.338 8.44238C471.968 8.01855 471.784 7.5127 471.784 6.9248ZM486.19 17.5479V35H482.396V12.8105H485.985L486.19 17.5479ZM485.288 23.0645L483.709 23.0029C483.722 21.4854 483.948 20.084 484.385 18.7988C484.823 17.5 485.438 16.3721 486.231 15.415C487.024 14.458 487.968 13.7197 489.061 13.2002C490.169 12.667 491.392 12.4004 492.732 12.4004C493.826 12.4004 494.81 12.5508 495.685 12.8516C496.56 13.1387 497.305 13.6035 497.921 14.2461C498.55 14.8887 499.028 15.7227 499.356 16.748C499.684 17.7598 499.848 18.9971 499.848 20.46V35H496.034V20.4189C496.034 19.2568 495.863 18.3271 495.521 17.6299C495.179 16.9189 494.68 16.4062 494.024 16.0918C493.368 15.7637 492.561 15.5996 491.604 15.5996C490.661 15.5996 489.8 15.7979 489.02 16.1943C488.255 16.5908 487.592 17.1377 487.031 17.835C486.484 18.5322 486.053 19.332 485.739 20.2344C485.438 21.123 485.288 22.0664 485.288 23.0645ZM519.607 29.873V12.8105H523.422V35H519.792L519.607 29.873ZM520.325 25.1973L521.904 25.1562C521.904 26.6328 521.747 28 521.432 29.2578C521.132 30.502 520.639 31.582 519.956 32.498C519.272 33.4141 518.377 34.1318 517.269 34.6514C516.162 35.1572 514.815 35.4102 513.229 35.4102C512.149 35.4102 511.158 35.2529 510.256 34.9385C509.367 34.624 508.601 34.1387 507.959 33.4824C507.316 32.8262 506.817 31.9717 506.462 30.9189C506.12 29.8662 505.949 28.6016 505.949 27.125V12.8105H509.743V27.166C509.743 28.1641 509.852 28.9912 510.071 29.6475C510.304 30.29 510.611 30.8027 510.994 31.1855C511.39 31.5547 511.828 31.8145 512.306 31.9648C512.799 32.1152 513.305 32.1904 513.824 32.1904C515.437 32.1904 516.716 31.8828 517.659 31.2676C518.602 30.6387 519.279 29.7979 519.689 28.7451C520.113 27.6787 520.325 26.4961 520.325 25.1973ZM538.915 12.8105V15.7227H526.918V12.8105H538.915ZM530.978 7.41699H534.772V29.5039C534.772 30.2559 534.889 30.8232 535.121 31.2061C535.353 31.5889 535.654 31.8418 536.023 31.9648C536.392 32.0879 536.789 32.1494 537.213 32.1494C537.527 32.1494 537.855 32.1221 538.197 32.0674C538.553 31.999 538.819 31.9443 538.997 31.9033L539.017 35C538.717 35.0957 538.32 35.1846 537.828 35.2666C537.349 35.3623 536.768 35.4102 536.085 35.4102C535.155 35.4102 534.301 35.2256 533.521 34.8564C532.742 34.4873 532.12 33.8721 531.655 33.0107C531.204 32.1357 530.978 30.96 530.978 29.4834V7.41699ZM552.993 35.4102C551.448 35.4102 550.047 35.1504 548.789 34.6309C547.545 34.0977 546.472 33.3525 545.569 32.3955C544.681 31.4385 543.997 30.3037 543.519 28.9912C543.04 27.6787 542.801 26.2432 542.801 24.6846V23.8232C542.801 22.0186 543.067 20.4121 543.601 19.0039C544.134 17.582 544.858 16.3789 545.774 15.3945C546.69 14.4102 547.729 13.665 548.892 13.1592C550.054 12.6533 551.257 12.4004 552.501 12.4004C554.087 12.4004 555.454 12.6738 556.603 13.2207C557.765 13.7676 558.715 14.5332 559.453 15.5176C560.191 16.4883 560.738 17.6367 561.094 18.9629C561.449 20.2754 561.627 21.7109 561.627 23.2695V24.9717H545.057V21.875H557.833V21.5879C557.778 20.6035 557.573 19.6465 557.218 18.7168C556.876 17.7871 556.329 17.0215 555.577 16.4199C554.825 15.8184 553.8 15.5176 552.501 15.5176C551.64 15.5176 550.847 15.7021 550.122 16.0713C549.397 16.4268 548.775 16.96 548.256 17.6709C547.736 18.3818 547.333 19.25 547.046 20.2754C546.759 21.3008 546.615 22.4834 546.615 23.8232V24.6846C546.615 25.7373 546.759 26.7285 547.046 27.6582C547.347 28.5742 547.777 29.3809 548.338 30.0781C548.912 30.7754 549.603 31.3223 550.409 31.7188C551.229 32.1152 552.159 32.3135 553.198 32.3135C554.538 32.3135 555.673 32.04 556.603 31.4932C557.532 30.9463 558.346 30.2148 559.043 29.2988L561.34 31.124C560.861 31.8486 560.253 32.5391 559.515 33.1953C558.776 33.8516 557.867 34.3848 556.787 34.7949C555.721 35.2051 554.456 35.4102 552.993 35.4102ZM579.397 29.1143C579.397 28.5674 579.274 28.0615 579.027 27.5967C578.795 27.1182 578.31 26.6875 577.571 26.3047C576.847 25.9082 575.753 25.5664 574.29 25.2793C573.06 25.0195 571.945 24.7119 570.947 24.3564C569.963 24.001 569.122 23.5703 568.425 23.0645C567.741 22.5586 567.215 21.9639 566.846 21.2803C566.477 20.5967 566.292 19.7969 566.292 18.8809C566.292 18.0059 566.484 17.1787 566.866 16.3994C567.263 15.6201 567.817 14.9297 568.527 14.3281C569.252 13.7266 570.12 13.2549 571.132 12.9131C572.144 12.5713 573.272 12.4004 574.516 12.4004C576.293 12.4004 577.811 12.7148 579.068 13.3438C580.326 13.9727 581.29 14.8135 581.96 15.8662C582.63 16.9053 582.965 18.0605 582.965 19.332H579.171C579.171 18.7168 578.986 18.1221 578.617 17.5479C578.262 16.96 577.735 16.4746 577.038 16.0918C576.355 15.709 575.514 15.5176 574.516 15.5176C573.463 15.5176 572.609 15.6816 571.952 16.0098C571.31 16.3242 570.838 16.7275 570.537 17.2197C570.25 17.7119 570.107 18.2314 570.107 18.7783C570.107 19.1885 570.175 19.5576 570.312 19.8857C570.462 20.2002 570.722 20.4941 571.091 20.7676C571.46 21.0273 571.98 21.2734 572.65 21.5059C573.319 21.7383 574.174 21.9707 575.213 22.2031C577.031 22.6133 578.528 23.1055 579.704 23.6797C580.88 24.2539 581.755 24.958 582.329 25.792C582.903 26.626 583.191 27.6377 583.191 28.8271C583.191 29.7979 582.985 30.6865 582.575 31.4932C582.179 32.2998 581.598 32.9971 580.832 33.585C580.08 34.1592 579.178 34.6104 578.125 34.9385C577.086 35.2529 575.917 35.4102 574.618 35.4102C572.663 35.4102 571.009 35.0615 569.655 34.3643C568.302 33.667 567.276 32.7646 566.579 31.6572C565.882 30.5498 565.533 29.3809 565.533 28.1504H569.348C569.402 29.1895 569.703 30.0166 570.25 30.6318C570.797 31.2334 571.467 31.6641 572.26 31.9238C573.053 32.1699 573.839 32.293 574.618 32.293C575.657 32.293 576.526 32.1562 577.223 31.8828C577.934 31.6094 578.474 31.2334 578.843 30.7549C579.212 30.2764 579.397 29.7295 579.397 29.1143ZM588.655 32.9902C588.655 32.3477 588.854 31.8076 589.25 31.3701C589.66 30.9189 590.248 30.6934 591.014 30.6934C591.779 30.6934 592.36 30.9189 592.757 31.3701C593.167 31.8076 593.372 32.3477 593.372 32.9902C593.372 33.6191 593.167 34.1523 592.757 34.5898C592.36 35.0273 591.779 35.2461 591.014 35.2461C590.248 35.2461 589.66 35.0273 589.25 34.5898C588.854 34.1523 588.655 33.6191 588.655 32.9902Z" fill="white"/>
<path d="M79.8369 75.4531C79.8369 74.7559 79.7275 74.1406 79.5088 73.6074C79.3037 73.0605 78.9346 72.5684 78.4014 72.1309C77.8818 71.6934 77.1572 71.2764 76.2275 70.8799C75.3115 70.4834 74.1494 70.0801 72.7412 69.6699C71.2646 69.2324 69.9316 68.7471 68.7422 68.2139C67.5527 67.667 66.5342 67.0449 65.6865 66.3477C64.8389 65.6504 64.1895 64.8506 63.7383 63.9482C63.2871 63.0459 63.0615 62.0137 63.0615 60.8516C63.0615 59.6895 63.3008 58.6162 63.7793 57.6318C64.2578 56.6475 64.9414 55.793 65.8301 55.0684C66.7324 54.3301 67.8057 53.7559 69.0498 53.3457C70.2939 52.9355 71.6816 52.7305 73.2129 52.7305C75.4551 52.7305 77.3555 53.1611 78.9141 54.0225C80.4863 54.8701 81.6826 55.9844 82.5029 57.3652C83.3232 58.7324 83.7334 60.1953 83.7334 61.7539H79.7959C79.7959 60.6328 79.5566 59.6416 79.0781 58.7803C78.5996 57.9053 77.875 57.2217 76.9043 56.7295C75.9336 56.2236 74.7031 55.9707 73.2129 55.9707C71.8047 55.9707 70.6426 56.1826 69.7266 56.6064C68.8105 57.0303 68.127 57.6045 67.6758 58.3291C67.2383 59.0537 67.0195 59.8809 67.0195 60.8105C67.0195 61.4395 67.1494 62.0137 67.4092 62.5332C67.6826 63.0391 68.0996 63.5107 68.6602 63.9482C69.2344 64.3857 69.959 64.7891 70.834 65.1582C71.7227 65.5273 72.7822 65.8828 74.0127 66.2246C75.708 66.7031 77.1709 67.2363 78.4014 67.8242C79.6318 68.4121 80.6436 69.0752 81.4365 69.8135C82.2432 70.5381 82.8379 71.3652 83.2207 72.2949C83.6172 73.2109 83.8154 74.25 83.8154 75.4121C83.8154 76.6289 83.5693 77.7295 83.0771 78.7139C82.585 79.6982 81.8809 80.5391 80.9648 81.2363C80.0488 81.9336 78.9482 82.4736 77.6631 82.8564C76.3916 83.2256 74.9697 83.4102 73.3975 83.4102C72.0166 83.4102 70.6562 83.2188 69.3164 82.8359C67.9902 82.4531 66.7803 81.8789 65.6865 81.1133C64.6064 80.3477 63.7383 79.4043 63.082 78.2832C62.4395 77.1484 62.1182 75.8359 62.1182 74.3457H66.0557C66.0557 75.3711 66.2539 76.2529 66.6504 76.9912C67.0469 77.7158 67.5869 78.3174 68.2705 78.7959C68.9678 79.2744 69.7539 79.6299 70.6289 79.8623C71.5176 80.0811 72.4404 80.1904 73.3975 80.1904C74.7783 80.1904 75.9473 79.999 76.9043 79.6162C77.8613 79.2334 78.5859 78.6865 79.0781 77.9756C79.584 77.2646 79.8369 76.4238 79.8369 75.4531ZM97.9141 83.4102C96.3692 83.4102 94.9678 83.1504 93.71 82.6309C92.4659 82.0977 91.3927 81.3525 90.4903 80.3955C89.6016 79.4385 88.918 78.3037 88.4395 76.9912C87.961 75.6787 87.7218 74.2432 87.7218 72.6846V71.8232C87.7218 70.0186 87.9884 68.4121 88.5216 67.0039C89.0548 65.582 89.7794 64.3789 90.6954 63.3945C91.6114 62.4102 92.6505 61.665 93.8126 61.1592C94.9747 60.6533 96.1778 60.4004 97.422 60.4004C99.0079 60.4004 100.375 60.6738 101.524 61.2207C102.686 61.7676 103.636 62.5332 104.374 63.5176C105.112 64.4883 105.659 65.6367 106.015 66.9629C106.37 68.2754 106.548 69.7109 106.548 71.2695V72.9717H89.9776V69.875H102.754V69.5879C102.699 68.6035 102.494 67.6465 102.139 66.7168C101.797 65.7871 101.25 65.0215 100.498 64.4199C99.7462 63.8184 98.7208 63.5176 97.422 63.5176C96.5606 63.5176 95.7677 63.7021 95.043 64.0713C94.3184 64.4268 93.6964 64.96 93.1768 65.6709C92.6573 66.3818 92.254 67.25 91.9669 68.2754C91.6798 69.3008 91.5362 70.4834 91.5362 71.8232V72.6846C91.5362 73.7373 91.6798 74.7285 91.9669 75.6582C92.2677 76.5742 92.6983 77.3809 93.2589 78.0781C93.8331 78.7754 94.5235 79.3223 95.3302 79.7188C96.1505 80.1152 97.0802 80.3135 98.1192 80.3135C99.4591 80.3135 100.594 80.04 101.524 79.4932C102.453 78.9463 103.267 78.2148 103.964 77.2988L106.261 79.124C105.782 79.8486 105.174 80.5391 104.436 81.1953C103.697 81.8516 102.788 82.3848 101.708 82.7949C100.642 83.2051 99.377 83.4102 97.9141 83.4102ZM120.606 83.4102C119.061 83.4102 117.659 83.1504 116.402 82.6309C115.157 82.0977 114.084 81.3525 113.182 80.3955C112.293 79.4385 111.61 78.3037 111.131 76.9912C110.653 75.6787 110.413 74.2432 110.413 72.6846V71.8232C110.413 70.0186 110.68 68.4121 111.213 67.0039C111.746 65.582 112.471 64.3789 113.387 63.3945C114.303 62.4102 115.342 61.665 116.504 61.1592C117.666 60.6533 118.869 60.4004 120.113 60.4004C121.699 60.4004 123.067 60.6738 124.215 61.2207C125.377 61.7676 126.327 62.5332 127.066 63.5176C127.804 64.4883 128.351 65.6367 128.706 66.9629C129.062 68.2754 129.239 69.7109 129.239 71.2695V72.9717H112.669V69.875H125.445V69.5879C125.391 68.6035 125.186 67.6465 124.83 66.7168C124.488 65.7871 123.942 65.0215 123.19 64.4199C122.438 63.8184 121.412 63.5176 120.113 63.5176C119.252 63.5176 118.459 63.7021 117.735 64.0713C117.01 64.4268 116.388 64.96 115.868 65.6709C115.349 66.3818 114.945 67.25 114.658 68.2754C114.371 69.3008 114.228 70.4834 114.228 71.8232V72.6846C114.228 73.7373 114.371 74.7285 114.658 75.6582C114.959 76.5742 115.39 77.3809 115.95 78.0781C116.525 78.7754 117.215 79.3223 118.022 79.7188C118.842 80.1152 119.772 80.3135 120.811 80.3135C122.151 80.3135 123.285 80.04 124.215 79.4932C125.145 78.9463 125.958 78.2148 126.655 77.2988L128.952 79.124C128.474 79.8486 127.865 80.5391 127.127 81.1953C126.389 81.8516 125.48 82.3848 124.4 82.7949C123.333 83.2051 122.069 83.4102 120.606 83.4102ZM149.049 60.8105V83H145.235V60.8105H149.049ZM144.948 54.9248C144.948 54.3096 145.132 53.79 145.501 53.3662C145.884 52.9424 146.445 52.7305 147.183 52.7305C147.908 52.7305 148.461 52.9424 148.844 53.3662C149.241 53.79 149.439 54.3096 149.439 54.9248C149.439 55.5127 149.241 56.0186 148.844 56.4424C148.461 56.8525 147.908 57.0576 147.183 57.0576C146.445 57.0576 145.884 56.8525 145.501 56.4424C145.132 56.0186 144.948 55.5127 144.948 54.9248ZM159.354 65.5479V83H155.56V60.8105H159.149L159.354 65.5479ZM158.452 71.0645L156.872 71.0029C156.886 69.4854 157.112 68.084 157.549 66.7988C157.987 65.5 158.602 64.3721 159.395 63.415C160.188 62.458 161.131 61.7197 162.225 61.2002C163.332 60.667 164.556 60.4004 165.896 60.4004C166.99 60.4004 167.974 60.5508 168.849 60.8516C169.724 61.1387 170.469 61.6035 171.084 62.2461C171.713 62.8887 172.192 63.7227 172.52 64.748C172.848 65.7598 173.012 66.9971 173.012 68.46V83H169.198V68.4189C169.198 67.2568 169.027 66.3271 168.685 65.6299C168.343 64.9189 167.844 64.4062 167.188 64.0918C166.532 63.7637 165.725 63.5996 164.768 63.5996C163.825 63.5996 162.963 63.7979 162.184 64.1943C161.418 64.5908 160.755 65.1377 160.195 65.835C159.648 66.5322 159.217 67.332 158.903 68.2344C158.602 69.123 158.452 70.0664 158.452 71.0645ZM192.115 77.1143C192.115 76.5674 191.992 76.0615 191.746 75.5967C191.513 75.1182 191.028 74.6875 190.29 74.3047C189.565 73.9082 188.471 73.5664 187.008 73.2793C185.778 73.0195 184.664 72.7119 183.666 72.3564C182.681 72.001 181.84 71.5703 181.143 71.0645C180.459 70.5586 179.933 69.9639 179.564 69.2803C179.195 68.5967 179.01 67.7969 179.01 66.8809C179.01 66.0059 179.202 65.1787 179.584 64.3994C179.981 63.6201 180.535 62.9297 181.246 62.3281C181.97 61.7266 182.838 61.2549 183.85 60.9131C184.862 60.5713 185.99 60.4004 187.234 60.4004C189.011 60.4004 190.529 60.7148 191.787 61.3438C193.044 61.9727 194.008 62.8135 194.678 63.8662C195.348 64.9053 195.683 66.0605 195.683 67.332H191.889C191.889 66.7168 191.705 66.1221 191.335 65.5479C190.98 64.96 190.454 64.4746 189.756 64.0918C189.073 63.709 188.232 63.5176 187.234 63.5176C186.181 63.5176 185.327 63.6816 184.67 64.0098C184.028 64.3242 183.556 64.7275 183.255 65.2197C182.968 65.7119 182.825 66.2314 182.825 66.7783C182.825 67.1885 182.893 67.5576 183.03 67.8857C183.18 68.2002 183.44 68.4941 183.809 68.7676C184.178 69.0273 184.698 69.2734 185.368 69.5059C186.038 69.7383 186.892 69.9707 187.931 70.2031C189.749 70.6133 191.247 71.1055 192.422 71.6797C193.598 72.2539 194.473 72.958 195.047 73.792C195.622 74.626 195.909 75.6377 195.909 76.8271C195.909 77.7979 195.704 78.6865 195.293 79.4932C194.897 80.2998 194.316 80.9971 193.55 81.585C192.798 82.1592 191.896 82.6104 190.843 82.9385C189.804 83.2529 188.635 83.4102 187.336 83.4102C185.381 83.4102 183.727 83.0615 182.374 82.3643C181.02 81.667 179.995 80.7646 179.297 79.6572C178.6 78.5498 178.251 77.3809 178.251 76.1504H182.066C182.121 77.1895 182.421 78.0166 182.968 78.6318C183.515 79.2334 184.185 79.6641 184.978 79.9238C185.771 80.1699 186.557 80.293 187.336 80.293C188.375 80.293 189.244 80.1562 189.941 79.8828C190.652 79.6094 191.192 79.2334 191.561 78.7549C191.93 78.2764 192.115 77.7295 192.115 77.1143ZM205.434 60.8105V83H201.62V60.8105H205.434ZM201.333 54.9248C201.333 54.3096 201.517 53.79 201.886 53.3662C202.269 52.9424 202.83 52.7305 203.568 52.7305C204.293 52.7305 204.846 52.9424 205.229 53.3662C205.626 53.79 205.824 54.3096 205.824 54.9248C205.824 55.5127 205.626 56.0186 205.229 56.4424C204.846 56.8525 204.293 57.0576 203.568 57.0576C202.83 57.0576 202.269 56.8525 201.886 56.4424C201.517 56.0186 201.333 55.5127 201.333 54.9248ZM226.321 60.8105H229.766V82.5283C229.766 84.4834 229.37 86.1514 228.577 87.5322C227.784 88.9131 226.676 89.959 225.255 90.6699C223.846 91.3945 222.219 91.7568 220.374 91.7568C219.608 91.7568 218.706 91.6338 217.667 91.3877C216.641 91.1553 215.63 90.752 214.631 90.1777C213.647 89.6172 212.82 88.8584 212.15 87.9014L214.139 85.6455C215.069 86.7666 216.04 87.5459 217.051 87.9834C218.077 88.4209 219.089 88.6396 220.087 88.6396C221.29 88.6396 222.329 88.4141 223.204 87.9629C224.079 87.5117 224.756 86.8418 225.234 85.9531C225.726 85.0781 225.972 83.998 225.972 82.7129V65.6914L226.321 60.8105ZM211.043 72.1514V71.7207C211.043 70.0254 211.241 68.4873 211.637 67.1064C212.048 65.7119 212.629 64.5156 213.381 63.5176C214.146 62.5195 215.069 61.7539 216.149 61.2207C217.229 60.6738 218.446 60.4004 219.799 60.4004C221.194 60.4004 222.411 60.6465 223.45 61.1387C224.503 61.6172 225.391 62.3213 226.116 63.251C226.854 64.167 227.435 65.2744 227.859 66.5732C228.283 67.8721 228.577 69.3418 228.741 70.9824V72.8691C228.59 74.4961 228.297 75.959 227.859 77.2578C227.435 78.5566 226.854 79.6641 226.116 80.5801C225.391 81.4961 224.503 82.2002 223.45 82.6924C222.397 83.1709 221.167 83.4102 219.758 83.4102C218.432 83.4102 217.229 83.1299 216.149 82.5693C215.083 82.0088 214.167 81.2227 213.401 80.2109C212.635 79.1992 212.048 78.0098 211.637 76.6426C211.241 75.2617 211.043 73.7646 211.043 72.1514ZM214.837 71.7207V72.1514C214.837 73.2588 214.946 74.2979 215.165 75.2686C215.397 76.2393 215.746 77.0938 216.211 77.832C216.689 78.5703 217.298 79.1514 218.036 79.5752C218.774 79.9854 219.656 80.1904 220.681 80.1904C221.939 80.1904 222.978 79.9238 223.798 79.3906C224.619 78.8574 225.268 78.1533 225.747 77.2783C226.239 76.4033 226.622 75.4531 226.895 74.4277V69.4854C226.745 68.7334 226.512 68.0088 226.198 67.3115C225.897 66.6006 225.501 65.9717 225.008 65.4248C224.53 64.8643 223.935 64.4199 223.224 64.0918C222.513 63.7637 221.679 63.5996 220.722 63.5996C219.683 63.5996 218.788 63.8184 218.036 64.2559C217.298 64.6797 216.689 65.2676 216.211 66.0195C215.746 66.7578 215.397 67.6191 215.165 68.6035C214.946 69.5742 214.837 70.6133 214.837 71.7207ZM239.743 51.5V83H235.949V51.5H239.743ZM238.841 71.0645L237.261 71.0029C237.275 69.4854 237.501 68.084 237.938 66.7988C238.376 65.5 238.991 64.3721 239.784 63.415C240.577 62.458 241.52 61.7197 242.614 61.2002C243.721 60.667 244.945 60.4004 246.285 60.4004C247.379 60.4004 248.363 60.5508 249.238 60.8516C250.113 61.1387 250.858 61.6035 251.473 62.2461C252.102 62.8887 252.581 63.7227 252.909 64.748C253.237 65.7598 253.401 66.9971 253.401 68.46V83H249.587V68.4189C249.587 67.2568 249.416 66.3271 249.074 65.6299C248.732 64.9189 248.233 64.4062 247.577 64.0918C246.921 63.7637 246.114 63.5996 245.157 63.5996C244.214 63.5996 243.352 63.7979 242.573 64.1943C241.807 64.5908 241.144 65.1377 240.584 65.835C240.037 66.5322 239.606 67.332 239.292 68.2344C238.991 69.123 238.841 70.0664 238.841 71.0645ZM268.792 60.8105V63.7227H256.795V60.8105H268.792ZM260.855 55.417H264.649V77.5039C264.649 78.2559 264.765 78.8232 264.998 79.2061C265.23 79.5889 265.531 79.8418 265.9 79.9648C266.269 80.0879 266.666 80.1494 267.09 80.1494C267.404 80.1494 267.732 80.1221 268.074 80.0674C268.429 79.999 268.696 79.9443 268.874 79.9033L268.894 83C268.594 83.0957 268.197 83.1846 267.705 83.2666C267.226 83.3623 266.645 83.4102 265.962 83.4102C265.032 83.4102 264.178 83.2256 263.398 82.8564C262.619 82.4873 261.997 81.8721 261.532 81.0107C261.081 80.1357 260.855 78.96 260.855 77.4834V55.417ZM286.582 77.1143C286.582 76.5674 286.459 76.0615 286.213 75.5967C285.98 75.1182 285.495 74.6875 284.757 74.3047C284.032 73.9082 282.938 73.5664 281.475 73.2793C280.245 73.0195 279.131 72.7119 278.133 72.3564C277.148 72.001 276.307 71.5703 275.61 71.0645C274.927 70.5586 274.4 69.9639 274.031 69.2803C273.662 68.5967 273.477 67.7969 273.477 66.8809C273.477 66.0059 273.669 65.1787 274.052 64.3994C274.448 63.6201 275.002 62.9297 275.713 62.3281C276.437 61.7266 277.306 61.2549 278.317 60.9131C279.329 60.5713 280.457 60.4004 281.701 60.4004C283.478 60.4004 284.996 60.7148 286.254 61.3438C287.512 61.9727 288.475 62.8135 289.145 63.8662C289.815 64.9053 290.15 66.0605 290.15 67.332H286.356C286.356 66.7168 286.172 66.1221 285.803 65.5479C285.447 64.96 284.921 64.4746 284.224 64.0918C283.54 63.709 282.699 63.5176 281.701 63.5176C280.648 63.5176 279.794 63.6816 279.138 64.0098C278.495 64.3242 278.023 64.7275 277.723 65.2197C277.435 65.7119 277.292 66.2314 277.292 66.7783C277.292 67.1885 277.36 67.5576 277.497 67.8857C277.647 68.2002 277.907 68.4941 278.276 68.7676C278.645 69.0273 279.165 69.2734 279.835 69.5059C280.505 69.7383 281.359 69.9707 282.398 70.2031C284.217 70.6133 285.714 71.1055 286.89 71.6797C288.065 72.2539 288.94 72.958 289.515 73.792C290.089 74.626 290.376 75.6377 290.376 76.8271C290.376 77.7979 290.171 78.6865 289.761 79.4932C289.364 80.2998 288.783 80.9971 288.017 81.585C287.266 82.1592 286.363 82.6104 285.31 82.9385C284.271 83.2529 283.102 83.4102 281.804 83.4102C279.849 83.4102 278.194 83.0615 276.841 82.3643C275.487 81.667 274.462 80.7646 273.765 79.6572C273.067 78.5498 272.719 77.3809 272.719 76.1504H276.533C276.588 77.1895 276.889 78.0166 277.435 78.6318C277.982 79.2334 278.652 79.6641 279.445 79.9238C280.238 80.1699 281.024 80.293 281.804 80.293C282.843 80.293 283.711 80.1562 284.408 79.8828C285.119 79.6094 285.659 79.2334 286.028 78.7549C286.397 78.2764 286.582 77.7295 286.582 77.1143ZM312.236 79.0625L317.938 60.8105H320.439L319.947 64.4404L314.144 83H311.703L312.236 79.0625ZM308.401 60.8105L313.262 79.2676L313.61 83H311.047L304.607 60.8105H308.401ZM325.895 79.124L330.529 60.8105H334.303L327.863 83H325.32L325.895 79.124ZM320.993 60.8105L326.571 78.7549L327.207 83H324.787L318.819 64.3994L318.327 60.8105H320.993ZM342.741 60.8105V83H338.927V60.8105H342.741ZM338.64 54.9248C338.64 54.3096 338.824 53.79 339.193 53.3662C339.576 52.9424 340.137 52.7305 340.875 52.7305C341.6 52.7305 342.153 52.9424 342.536 53.3662C342.933 53.79 343.131 54.3096 343.131 54.9248C343.131 55.5127 342.933 56.0186 342.536 56.4424C342.153 56.8525 341.6 57.0576 340.875 57.0576C340.137 57.0576 339.576 56.8525 339.193 56.4424C338.824 56.0186 338.64 55.5127 338.64 54.9248ZM358.542 60.8105V63.7227H346.545V60.8105H358.542ZM350.606 55.417H354.4V77.5039C354.4 78.2559 354.516 78.8232 354.748 79.2061C354.981 79.5889 355.281 79.8418 355.651 79.9648C356.02 80.0879 356.416 80.1494 356.84 80.1494C357.154 80.1494 357.483 80.1221 357.824 80.0674C358.18 79.999 358.446 79.9443 358.624 79.9033L358.645 83C358.344 83.0957 357.947 83.1846 357.455 83.2666C356.977 83.3623 356.396 83.4102 355.712 83.4102C354.782 83.4102 353.928 83.2256 353.149 82.8564C352.369 82.4873 351.747 81.8721 351.282 81.0107C350.831 80.1357 350.606 78.96 350.606 77.4834V55.417ZM367.206 51.5V83H363.412V51.5H367.206ZM366.304 71.0645L364.725 71.0029C364.739 69.4854 364.964 68.084 365.402 66.7988C365.839 65.5 366.454 64.3721 367.247 63.415C368.04 62.458 368.984 61.7197 370.077 61.2002C371.185 60.667 372.408 60.4004 373.748 60.4004C374.842 60.4004 375.826 60.5508 376.701 60.8516C377.576 61.1387 378.322 61.6035 378.937 62.2461C379.566 62.8887 380.044 63.7227 380.372 64.748C380.7 65.7598 380.865 66.9971 380.865 68.46V83H377.05V68.4189C377.05 67.2568 376.879 66.3271 376.537 65.6299C376.196 64.9189 375.697 64.4062 375.04 64.0918C374.384 63.7637 373.577 63.5996 372.62 63.5996C371.677 63.5996 370.816 63.7979 370.036 64.1943C369.271 64.5908 368.608 65.1377 368.047 65.835C367.5 66.5322 367.07 67.332 366.755 68.2344C366.454 69.123 366.304 70.0664 366.304 71.0645ZM391.087 60.8105V83H387.273V60.8105H391.087ZM386.986 54.9248C386.986 54.3096 387.17 53.79 387.539 53.3662C387.922 52.9424 388.483 52.7305 389.221 52.7305C389.946 52.7305 390.499 52.9424 390.882 53.3662C391.279 53.79 391.477 54.3096 391.477 54.9248C391.477 55.5127 391.279 56.0186 390.882 56.4424C390.499 56.8525 389.946 57.0576 389.221 57.0576C388.483 57.0576 387.922 56.8525 387.539 56.4424C387.17 56.0186 386.986 55.5127 386.986 54.9248ZM401.392 65.5479V83H397.598V60.8105H401.187L401.392 65.5479ZM400.49 71.0645L398.911 71.0029C398.924 69.4854 399.15 68.084 399.587 66.7988C400.025 65.5 400.64 64.3721 401.433 63.415C402.226 62.458 403.169 61.7197 404.263 61.2002C405.371 60.667 406.594 60.4004 407.934 60.4004C409.028 60.4004 410.012 60.5508 410.887 60.8516C411.762 61.1387 412.507 61.6035 413.122 62.2461C413.751 62.8887 414.23 63.7227 414.558 64.748C414.886 65.7598 415.05 66.9971 415.05 68.46V83H411.236V68.4189C411.236 67.2568 411.065 66.3271 410.723 65.6299C410.381 64.9189 409.882 64.4062 409.226 64.0918C408.57 63.7637 407.763 63.5996 406.806 63.5996C405.863 63.5996 405.001 63.7979 404.222 64.1943C403.456 64.5908 402.793 65.1377 402.233 65.835C401.686 66.5322 401.255 67.332 400.941 68.2344C400.64 69.123 400.49 70.0664 400.49 71.0645ZM435.865 51.5V83H432.071V51.5H435.865ZM434.962 71.0645L433.383 71.0029C433.397 69.4854 433.623 68.084 434.06 66.7988C434.498 65.5 435.113 64.3721 435.906 63.415C436.699 62.458 437.642 61.7197 438.736 61.2002C439.843 60.667 441.067 60.4004 442.407 60.4004C443.501 60.4004 444.485 60.5508 445.36 60.8516C446.235 61.1387 446.98 61.6035 447.595 62.2461C448.224 62.8887 448.703 63.7227 449.031 64.748C449.359 65.7598 449.523 66.9971 449.523 68.46V83H445.709V68.4189C445.709 67.2568 445.538 66.3271 445.196 65.6299C444.854 64.9189 444.355 64.4062 443.699 64.0918C443.043 63.7637 442.236 63.5996 441.279 63.5996C440.336 63.5996 439.474 63.7979 438.695 64.1943C437.929 64.5908 437.266 65.1377 436.706 65.835C436.159 66.5322 435.728 67.332 435.414 68.2344C435.113 69.123 434.962 70.0664 434.962 71.0645ZM454.619 72.1514V71.6797C454.619 70.0801 454.851 68.5967 455.316 67.2295C455.781 65.8486 456.451 64.6523 457.326 63.6406C458.201 62.6152 459.26 61.8223 460.505 61.2617C461.749 60.6875 463.143 60.4004 464.688 60.4004C466.247 60.4004 467.648 60.6875 468.892 61.2617C470.15 61.8223 471.216 62.6152 472.091 63.6406C472.98 64.6523 473.657 65.8486 474.122 67.2295C474.587 68.5967 474.819 70.0801 474.819 71.6797V72.1514C474.819 73.751 474.587 75.2344 474.122 76.6016C473.657 77.9688 472.98 79.165 472.091 80.1904C471.216 81.2021 470.157 81.9951 468.913 82.5693C467.682 83.1299 466.288 83.4102 464.729 83.4102C463.171 83.4102 461.769 83.1299 460.525 82.5693C459.281 81.9951 458.215 81.2021 457.326 80.1904C456.451 79.165 455.781 77.9688 455.316 76.6016C454.851 75.2344 454.619 73.751 454.619 72.1514ZM458.413 71.6797V72.1514C458.413 73.2588 458.543 74.3047 458.802 75.2891C459.062 76.2598 459.452 77.1211 459.971 77.873C460.505 78.625 461.168 79.2197 461.961 79.6572C462.754 80.0811 463.676 80.293 464.729 80.293C465.768 80.293 466.677 80.0811 467.457 79.6572C468.25 79.2197 468.906 78.625 469.425 77.873C469.945 77.1211 470.335 76.2598 470.594 75.2891C470.868 74.3047 471.005 73.2588 471.005 72.1514V71.6797C471.005 70.5859 470.868 69.5537 470.594 68.583C470.335 67.5986 469.938 66.7305 469.405 65.9785C468.885 65.2129 468.229 64.6113 467.436 64.1738C466.657 63.7363 465.741 63.5176 464.688 63.5176C463.649 63.5176 462.733 63.7363 461.94 64.1738C461.161 64.6113 460.505 65.2129 459.971 65.9785C459.452 66.7305 459.062 67.5986 458.802 68.583C458.543 69.5537 458.413 70.5859 458.413 71.6797ZM493.573 77.873V60.8105H497.387V83H493.758L493.573 77.873ZM494.291 73.1973L495.87 73.1562C495.87 74.6328 495.713 76 495.398 77.2578C495.097 78.502 494.605 79.582 493.922 80.498C493.238 81.4141 492.343 82.1318 491.235 82.6514C490.128 83.1572 488.781 83.4102 487.195 83.4102C486.115 83.4102 485.124 83.2529 484.221 82.9385C483.333 82.624 482.567 82.1387 481.925 81.4824C481.282 80.8262 480.783 79.9717 480.427 78.9189C480.086 77.8662 479.915 76.6016 479.915 75.125V60.8105H483.709V75.166C483.709 76.1641 483.818 76.9912 484.037 77.6475C484.269 78.29 484.577 78.8027 484.96 79.1855C485.356 79.5547 485.794 79.8145 486.272 79.9648C486.764 80.1152 487.27 80.1904 487.79 80.1904C489.403 80.1904 490.681 79.8828 491.625 79.2676C492.568 78.6387 493.245 77.7979 493.655 76.7451C494.079 75.6787 494.291 74.4961 494.291 73.1973ZM507.385 64.2969V83H503.591V60.8105H507.282L507.385 64.2969ZM514.316 60.6875L514.296 64.2148C513.981 64.1465 513.681 64.1055 513.393 64.0918C513.12 64.0645 512.806 64.0508 512.45 64.0508C511.575 64.0508 510.803 64.1875 510.133 64.4609C509.463 64.7344 508.895 65.1172 508.431 65.6094C507.966 66.1016 507.597 66.6895 507.323 67.373C507.063 68.043 506.892 68.7812 506.81 69.5879L505.744 70.2031C505.744 68.8633 505.874 67.6055 506.134 66.4297C506.407 65.2539 506.824 64.2148 507.385 63.3125C507.945 62.3965 508.656 61.6855 509.517 61.1797C510.392 60.6602 511.431 60.4004 512.635 60.4004C512.908 60.4004 513.223 60.4346 513.578 60.5029C513.933 60.5576 514.18 60.6191 514.316 60.6875ZM531.163 77.1143C531.163 76.5674 531.04 76.0615 530.794 75.5967C530.561 75.1182 530.076 74.6875 529.338 74.3047C528.613 73.9082 527.519 73.5664 526.057 73.2793C524.826 73.0195 523.712 72.7119 522.714 72.3564C521.729 72.001 520.889 71.5703 520.191 71.0645C519.508 70.5586 518.981 69.9639 518.612 69.2803C518.243 68.5967 518.059 67.7969 518.059 66.8809C518.059 66.0059 518.25 65.1787 518.633 64.3994C519.029 63.6201 519.583 62.9297 520.294 62.3281C521.018 61.7266 521.887 61.2549 522.898 60.9131C523.91 60.5713 525.038 60.4004 526.282 60.4004C528.059 60.4004 529.577 60.7148 530.835 61.3438C532.093 61.9727 533.057 62.8135 533.726 63.8662C534.396 64.9053 534.731 66.0605 534.731 67.332H530.937C530.937 66.7168 530.753 66.1221 530.384 65.5479C530.028 64.96 529.502 64.4746 528.805 64.0918C528.121 63.709 527.28 63.5176 526.282 63.5176C525.229 63.5176 524.375 63.6816 523.719 64.0098C523.076 64.3242 522.604 64.7275 522.304 65.2197C522.017 65.7119 521.873 66.2314 521.873 66.7783C521.873 67.1885 521.941 67.5576 522.078 67.8857C522.228 68.2002 522.488 68.4941 522.857 68.7676C523.226 69.0273 523.746 69.2734 524.416 69.5059C525.086 69.7383 525.94 69.9707 526.979 70.2031C528.798 70.6133 530.295 71.1055 531.471 71.6797C532.646 72.2539 533.521 72.958 534.096 73.792C534.67 74.626 534.957 75.6377 534.957 76.8271C534.957 77.7979 534.752 78.6865 534.342 79.4932C533.945 80.2998 533.364 80.9971 532.599 81.585C531.847 82.1592 530.944 82.6104 529.892 82.9385C528.852 83.2529 527.684 83.4102 526.385 83.4102C524.43 83.4102 522.775 83.0615 521.422 82.3643C520.068 81.667 519.043 80.7646 518.346 79.6572C517.648 78.5498 517.3 77.3809 517.3 76.1504H521.114C521.169 77.1895 521.47 78.0166 522.017 78.6318C522.563 79.2334 523.233 79.6641 524.026 79.9238C524.819 80.1699 525.605 80.293 526.385 80.293C527.424 80.293 528.292 80.1562 528.989 79.8828C529.7 79.6094 530.24 79.2334 530.609 78.7549C530.978 78.2764 531.163 77.7295 531.163 77.1143ZM540.422 80.9902C540.422 80.3477 540.62 79.8076 541.017 79.3701C541.427 78.9189 542.015 78.6934 542.78 78.6934C543.546 78.6934 544.127 78.9189 544.523 79.3701C544.934 79.8076 545.139 80.3477 545.139 80.9902C545.139 81.6191 544.934 82.1523 544.523 82.5898C544.127 83.0273 543.546 83.2461 542.78 83.2461C542.015 83.2461 541.427 83.0273 541.017 82.5898C540.62 82.1523 540.422 81.6191 540.422 80.9902Z" fill="white"/>
</svg>
