<svg width="1197" height="168" viewBox="0 0 1197 168" fill="none" xmlns="http://www.w3.org/2000/svg">
<path d="M32.8125 62.6836V67.2832H9.72656V62.6836H32.8125ZM10.6055 44.3438V87H4.95117V44.3438H10.6055ZM37.7344 44.3438V87H32.1094V44.3438H37.7344ZM46.1273 71.502V70.8281C46.1273 68.543 46.4594 66.4238 47.1234 64.4707C47.7875 62.498 48.7445 60.7891 49.9945 59.3438C51.2445 57.8789 52.7582 56.7461 54.5355 55.9453C56.3129 55.125 58.3051 54.7148 60.5121 54.7148C62.7387 54.7148 64.7406 55.125 66.518 55.9453C68.3148 56.7461 69.8383 57.8789 71.0883 59.3438C72.3578 60.7891 73.3246 62.498 73.9887 64.4707C74.6527 66.4238 74.9848 68.543 74.9848 70.8281V71.502C74.9848 73.7871 74.6527 75.9062 73.9887 77.8594C73.3246 79.8125 72.3578 81.5215 71.0883 82.9863C69.8383 84.4316 68.3246 85.5645 66.5473 86.3848C64.7895 87.1855 62.7973 87.5859 60.5707 87.5859C58.3441 87.5859 56.3422 87.1855 54.5648 86.3848C52.7875 85.5645 51.2641 84.4316 49.9945 82.9863C48.7445 81.5215 47.7875 79.8125 47.1234 77.8594C46.4594 75.9062 46.1273 73.7871 46.1273 71.502ZM51.5473 70.8281V71.502C51.5473 73.084 51.7328 74.5781 52.1039 75.9844C52.475 77.3711 53.0316 78.6016 53.7738 79.6758C54.5355 80.75 55.4828 81.5996 56.6156 82.2246C57.7484 82.8301 59.0668 83.1328 60.5707 83.1328C62.0551 83.1328 63.3539 82.8301 64.4672 82.2246C65.6 81.5996 66.5375 80.75 67.2797 79.6758C68.0219 78.6016 68.5785 77.3711 68.9496 75.9844C69.3402 74.5781 69.5355 73.084 69.5355 71.502V70.8281C69.5355 69.2656 69.3402 67.791 68.9496 66.4043C68.5785 64.998 68.0121 63.7578 67.2504 62.6836C66.5082 61.5898 65.5707 60.7305 64.4379 60.1055C63.3246 59.4805 62.016 59.168 60.5121 59.168C59.0277 59.168 57.7191 59.4805 56.5863 60.1055C55.473 60.7305 54.5355 61.5898 53.7738 62.6836C53.0316 63.7578 52.475 64.998 52.1039 66.4043C51.7328 67.791 51.5473 69.2656 51.5473 70.8281ZM90.409 81.375L98.5535 55.3008H102.128L101.425 60.4863L93.1336 87H89.6473L90.409 81.375ZM84.9305 55.3008L91.8738 81.668L92.3719 87H88.7098L79.5105 55.3008H84.9305ZM109.921 81.4629L116.542 55.3008H121.932L112.733 87H109.1L109.921 81.4629ZM102.919 55.3008L110.887 80.9355L111.796 87H108.339L99.8133 60.4277L99.1102 55.3008H102.919ZM167.136 76.2188C167.136 75.2227 166.98 74.3438 166.668 73.582C166.375 72.8008 165.847 72.0977 165.086 71.4727C164.343 70.8477 163.308 70.252 161.98 69.6855C160.671 69.1191 159.011 68.543 157 67.957C154.89 67.332 152.986 66.6387 151.287 65.877C149.587 65.0957 148.132 64.207 146.921 63.2109C145.711 62.2148 144.783 61.0723 144.138 59.7832C143.494 58.4941 143.171 57.0195 143.171 55.3594C143.171 53.6992 143.513 52.166 144.197 50.7598C144.88 49.3535 145.857 48.1328 147.127 47.0977C148.416 46.043 149.949 45.2227 151.726 44.6367C153.504 44.0508 155.486 43.7578 157.673 43.7578C160.877 43.7578 163.591 44.373 165.818 45.6035C168.064 46.8145 169.773 48.4062 170.945 50.3789C172.117 52.332 172.703 54.4219 172.703 56.6484H167.078C167.078 55.0469 166.736 53.6309 166.052 52.4004C165.369 51.1504 164.334 50.1738 162.947 49.4707C161.56 48.748 159.802 48.3867 157.673 48.3867C155.662 48.3867 154.002 48.6895 152.693 49.2949C151.384 49.9004 150.408 50.7207 149.763 51.7559C149.138 52.791 148.826 53.9727 148.826 55.3008C148.826 56.1992 149.011 57.0195 149.382 57.7617C149.773 58.4844 150.369 59.1582 151.17 59.7832C151.99 60.4082 153.025 60.9844 154.275 61.5117C155.545 62.0391 157.058 62.5469 158.816 63.0352C161.238 63.7188 163.328 64.4805 165.086 65.3203C166.843 66.1602 168.289 67.1074 169.421 68.1621C170.574 69.1973 171.423 70.3789 171.97 71.707C172.537 73.0156 172.82 74.5 172.82 76.1602C172.82 77.8984 172.468 79.4707 171.765 80.877C171.062 82.2832 170.056 83.4844 168.748 84.4805C167.439 85.4766 165.867 86.248 164.031 86.7949C162.214 87.3223 160.183 87.5859 157.937 87.5859C155.964 87.5859 154.021 87.3125 152.107 86.7656C150.212 86.2188 148.484 85.3984 146.921 84.3047C145.379 83.2109 144.138 81.8633 143.201 80.2617C142.283 78.6406 141.824 76.7656 141.824 74.6367H147.449C147.449 76.1016 147.732 77.3613 148.298 78.416C148.865 79.4512 149.636 80.3105 150.613 80.9941C151.609 81.6777 152.732 82.1855 153.982 82.5176C155.252 82.8301 156.57 82.9863 157.937 82.9863C159.91 82.9863 161.58 82.7129 162.947 82.166C164.314 81.6191 165.349 80.8379 166.052 79.8223C166.775 78.8066 167.136 77.6055 167.136 76.2188ZM185.227 61.3945V99.1875H179.777V55.3008H184.758L185.227 61.3945ZM206.584 70.8867V71.502C206.584 73.8066 206.311 75.9453 205.764 77.918C205.217 79.8711 204.416 81.5703 203.361 83.0156C202.326 84.4609 201.047 85.584 199.523 86.3848C198 87.1855 196.252 87.5859 194.279 87.5859C192.268 87.5859 190.49 87.2539 188.947 86.5898C187.404 85.9258 186.096 84.959 185.021 83.6895C183.947 82.4199 183.088 80.8965 182.443 79.1191C181.818 77.3418 181.389 75.3398 181.154 73.1133V69.832C181.389 67.4883 181.828 65.3887 182.473 63.5332C183.117 61.6777 183.967 60.0957 185.021 58.7871C186.096 57.459 187.395 56.4531 188.918 55.7695C190.441 55.0664 192.199 54.7148 194.191 54.7148C196.184 54.7148 197.951 55.1055 199.494 55.8867C201.037 56.6484 202.336 57.7422 203.391 59.168C204.445 60.5938 205.236 62.3027 205.764 64.2949C206.311 66.2676 206.584 68.4648 206.584 70.8867ZM201.135 71.502V70.8867C201.135 69.3047 200.969 67.8203 200.637 66.4336C200.305 65.0273 199.787 63.7969 199.084 62.7422C198.4 61.668 197.521 60.8281 196.447 60.2227C195.373 59.5977 194.094 59.2852 192.609 59.2852C191.242 59.2852 190.051 59.5195 189.035 59.9883C188.039 60.457 187.189 61.0918 186.486 61.8926C185.783 62.6738 185.207 63.5723 184.758 64.5879C184.328 65.584 184.006 66.6191 183.791 67.6934V75.2812C184.182 76.6484 184.729 77.9375 185.432 79.1484C186.135 80.3398 187.072 81.3066 188.244 82.0488C189.416 82.7715 190.891 83.1328 192.668 83.1328C194.133 83.1328 195.393 82.8301 196.447 82.2246C197.521 81.5996 198.4 80.75 199.084 79.6758C199.787 78.6016 200.305 77.3711 200.637 75.9844C200.969 74.5781 201.135 73.084 201.135 71.502ZM219.518 60.2812V87H214.098V55.3008H219.371L219.518 60.2812ZM229.42 55.125L229.391 60.1641C228.942 60.0664 228.512 60.0078 228.102 59.9883C227.711 59.9492 227.262 59.9297 226.754 59.9297C225.504 59.9297 224.401 60.125 223.444 60.5156C222.487 60.9062 221.676 61.4531 221.012 62.1562C220.348 62.8594 219.821 63.6992 219.43 64.6758C219.059 65.6328 218.815 66.6875 218.698 67.8398L217.174 68.7188C217.174 66.8047 217.36 65.0078 217.731 63.3281C218.121 61.6484 218.717 60.1641 219.518 58.875C220.319 57.5664 221.334 56.5508 222.565 55.8281C223.815 55.0859 225.299 54.7148 227.018 54.7148C227.409 54.7148 227.858 54.7637 228.366 54.8613C228.873 54.9395 229.225 55.0273 229.42 55.125ZM240.919 55.3008V87H235.47V55.3008H240.919ZM235.059 46.8926C235.059 46.0137 235.323 45.2715 235.85 44.666C236.397 44.0605 237.198 43.7578 238.253 43.7578C239.288 43.7578 240.079 44.0605 240.626 44.666C241.192 45.2715 241.475 46.0137 241.475 46.8926C241.475 47.7324 241.192 48.4551 240.626 49.0605C240.079 49.6465 239.288 49.9395 238.253 49.9395C237.198 49.9395 236.397 49.6465 235.85 49.0605C235.323 48.4551 235.059 47.7324 235.059 46.8926ZM270.757 55.3008H275.679V86.3262C275.679 89.1191 275.113 91.502 273.98 93.4746C272.847 95.4473 271.265 96.9414 269.234 97.957C267.222 98.9922 264.898 99.5098 262.261 99.5098C261.167 99.5098 259.878 99.334 258.394 98.9824C256.929 98.6504 255.484 98.0742 254.058 97.2539C252.652 96.4531 251.47 95.3691 250.513 94.002L253.355 90.7793C254.683 92.3809 256.07 93.4941 257.515 94.1191C258.98 94.7441 260.425 95.0566 261.851 95.0566C263.57 95.0566 265.054 94.7344 266.304 94.0898C267.554 93.4453 268.521 92.4883 269.204 91.2188C269.907 89.9688 270.259 88.4258 270.259 86.5898V62.2734L270.757 55.3008ZM248.931 71.502V70.8867C248.931 68.4648 249.214 66.2676 249.78 64.2949C250.366 62.3027 251.196 60.5938 252.271 59.168C253.364 57.7422 254.683 56.6484 256.226 55.8867C257.769 55.1055 259.507 54.7148 261.441 54.7148C263.433 54.7148 265.171 55.0664 266.655 55.7695C268.159 56.4531 269.429 57.459 270.464 58.7871C271.519 60.0957 272.349 61.6777 272.954 63.5332C273.56 65.3887 273.98 67.4883 274.214 69.832V72.5273C273.999 74.8516 273.579 76.9414 272.954 78.7969C272.349 80.6523 271.519 82.2344 270.464 83.543C269.429 84.8516 268.159 85.8574 266.655 86.5605C265.152 87.2441 263.394 87.5859 261.382 87.5859C259.488 87.5859 257.769 87.1855 256.226 86.3848C254.702 85.584 253.394 84.4609 252.3 83.0156C251.206 81.5703 250.366 79.8711 249.78 77.918C249.214 75.9453 248.931 73.8066 248.931 71.502ZM254.351 70.8867V71.502C254.351 73.084 254.507 74.5684 254.82 75.9551C255.152 77.3418 255.65 78.5625 256.314 79.6172C256.997 80.6719 257.866 81.502 258.921 82.1074C259.976 82.6934 261.236 82.9863 262.7 82.9863C264.497 82.9863 265.982 82.6055 267.154 81.8438C268.325 81.082 269.253 80.0762 269.937 78.8262C270.64 77.5762 271.187 76.2188 271.577 74.7539V67.6934C271.363 66.6191 271.03 65.584 270.581 64.5879C270.152 63.5723 269.585 62.6738 268.882 61.8926C268.198 61.0918 267.349 60.457 266.333 59.9883C265.318 59.5195 264.126 59.2852 262.759 59.2852C261.275 59.2852 259.995 59.5977 258.921 60.2227C257.866 60.8281 256.997 61.668 256.314 62.7422C255.65 63.7969 255.152 65.0273 254.82 66.4336C254.507 67.8203 254.351 69.3047 254.351 70.8867ZM319.975 80.8477V42H325.424V87H320.443L319.975 80.8477ZM298.646 71.502V70.8867C298.646 68.4648 298.939 66.2676 299.525 64.2949C300.131 62.3027 300.98 60.5938 302.074 59.168C303.188 57.7422 304.506 56.6484 306.029 55.8867C307.572 55.1055 309.291 54.7148 311.186 54.7148C313.178 54.7148 314.916 55.0664 316.4 55.7695C317.904 56.4531 319.174 57.459 320.209 58.7871C321.264 60.0957 322.094 61.6777 322.699 63.5332C323.305 65.3887 323.725 67.4883 323.959 69.832V72.5273C323.744 74.8516 323.324 76.9414 322.699 78.7969C322.094 80.6523 321.264 82.2344 320.209 83.543C319.174 84.8516 317.904 85.8574 316.4 86.5605C314.896 87.2441 313.139 87.5859 311.127 87.5859C309.271 87.5859 307.572 87.1855 306.029 86.3848C304.506 85.584 303.188 84.4609 302.074 83.0156C300.98 81.5703 300.131 79.8711 299.525 77.918C298.939 75.9453 298.646 73.8066 298.646 71.502ZM304.096 70.8867V71.502C304.096 73.084 304.252 74.5684 304.564 75.9551C304.896 77.3418 305.404 78.5625 306.088 79.6172C306.771 80.6719 307.641 81.502 308.695 82.1074C309.75 82.6934 311.01 82.9863 312.475 82.9863C314.271 82.9863 315.746 82.6055 316.898 81.8438C318.07 81.082 319.008 80.0762 319.711 78.8262C320.414 77.5762 320.961 76.2188 321.352 74.7539V67.6934C321.117 66.6191 320.775 65.584 320.326 64.5879C319.896 63.5723 319.33 62.6738 318.627 61.8926C317.943 61.0918 317.094 60.457 316.078 59.9883C315.082 59.5195 313.9 59.2852 312.533 59.2852C311.049 59.2852 309.77 59.5977 308.695 60.2227C307.641 60.8281 306.771 61.668 306.088 62.7422C305.404 63.7969 304.896 65.0273 304.564 66.4336C304.252 67.8203 304.096 69.3047 304.096 70.8867ZM347.616 87.5859C345.409 87.5859 343.407 87.2148 341.61 86.4727C339.832 85.7109 338.299 84.6465 337.01 83.2793C335.741 81.9121 334.764 80.291 334.08 78.416C333.397 76.541 333.055 74.4902 333.055 72.2637V71.0332C333.055 68.4551 333.436 66.1602 334.198 64.1484C334.959 62.1172 335.995 60.3984 337.303 58.9922C338.612 57.5859 340.096 56.5215 341.756 55.7988C343.416 55.0762 345.135 54.7148 346.913 54.7148C349.178 54.7148 351.131 55.1055 352.772 55.8867C354.432 56.668 355.789 57.7617 356.844 59.168C357.899 60.5547 358.68 62.1953 359.188 64.0898C359.696 65.9648 359.95 68.0156 359.95 70.2422V72.6738H336.278V68.25H354.53V67.8398C354.452 66.4336 354.159 65.0664 353.651 63.7383C353.163 62.4102 352.381 61.3164 351.307 60.457C350.233 59.5977 348.768 59.168 346.913 59.168C345.682 59.168 344.549 59.4316 343.514 59.959C342.479 60.4668 341.59 61.2285 340.848 62.2441C340.106 63.2598 339.53 64.5 339.12 65.9648C338.709 67.4297 338.504 69.1191 338.504 71.0332V72.2637C338.504 73.7676 338.709 75.1836 339.12 76.5117C339.549 77.8203 340.164 78.9727 340.965 79.9688C341.786 80.9648 342.772 81.7461 343.924 82.3125C345.096 82.8789 346.424 83.1621 347.909 83.1621C349.823 83.1621 351.444 82.7715 352.772 81.9902C354.1 81.209 355.262 80.1641 356.258 78.8555L359.539 81.4629C358.856 82.498 357.987 83.4844 356.932 84.4219C355.877 85.3594 354.579 86.1211 353.036 86.707C351.512 87.293 349.705 87.5859 347.616 87.5859ZM372.766 42V87H367.317V42H372.766ZM387.956 55.3008V87H382.507V55.3008H387.956ZM382.097 46.8926C382.097 46.0137 382.361 45.2715 382.888 44.666C383.435 44.0605 384.236 43.7578 385.29 43.7578C386.325 43.7578 387.116 44.0605 387.663 44.666C388.23 45.2715 388.513 46.0137 388.513 46.8926C388.513 47.7324 388.23 48.4551 387.663 49.0605C387.116 49.6465 386.325 49.9395 385.29 49.9395C384.236 49.9395 383.435 49.6465 382.888 49.0605C382.361 48.4551 382.097 47.7324 382.097 46.8926ZM406.896 82.1074L415.568 55.3008H421.105L409.709 87H406.076L406.896 82.1074ZM399.66 55.3008L408.595 82.2539L409.211 87H405.578L394.093 55.3008H399.66ZM439.664 87.5859C437.457 87.5859 435.455 87.2148 433.658 86.4727C431.881 85.7109 430.348 84.6465 429.059 83.2793C427.789 81.9121 426.812 80.291 426.129 78.416C425.445 76.541 425.104 74.4902 425.104 72.2637V71.0332C425.104 68.4551 425.484 66.1602 426.246 64.1484C427.008 62.1172 428.043 60.3984 429.352 58.9922C430.66 57.5859 432.145 56.5215 433.805 55.7988C435.465 55.0762 437.184 54.7148 438.961 54.7148C441.227 54.7148 443.18 55.1055 444.82 55.8867C446.48 56.668 447.838 57.7617 448.893 59.168C449.947 60.5547 450.729 62.1953 451.236 64.0898C451.744 65.9648 451.998 68.0156 451.998 70.2422V72.6738H428.326V68.25H446.578V67.8398C446.5 66.4336 446.207 65.0664 445.699 63.7383C445.211 62.4102 444.43 61.3164 443.355 60.457C442.281 59.5977 440.816 59.168 438.961 59.168C437.73 59.168 436.598 59.4316 435.562 59.959C434.527 60.4668 433.639 61.2285 432.896 62.2441C432.154 63.2598 431.578 64.5 431.168 65.9648C430.758 67.4297 430.553 69.1191 430.553 71.0332V72.2637C430.553 73.7676 430.758 75.1836 431.168 76.5117C431.598 77.8203 432.213 78.9727 433.014 79.9688C433.834 80.9648 434.82 81.7461 435.973 82.3125C437.145 82.8789 438.473 83.1621 439.957 83.1621C441.871 83.1621 443.492 82.7715 444.82 81.9902C446.148 81.209 447.311 80.1641 448.307 78.8555L451.588 81.4629C450.904 82.498 450.035 83.4844 448.98 84.4219C447.926 85.3594 446.627 86.1211 445.084 86.707C443.561 87.293 441.754 87.5859 439.664 87.5859ZM464.346 60.2812V87H458.926V55.3008H464.2L464.346 60.2812ZM474.248 55.125L474.219 60.1641C473.77 60.0664 473.34 60.0078 472.93 59.9883C472.539 59.9492 472.09 59.9297 471.582 59.9297C470.332 59.9297 469.229 60.125 468.272 60.5156C467.315 60.9062 466.504 61.4531 465.84 62.1562C465.176 62.8594 464.649 63.6992 464.258 64.6758C463.887 65.6328 463.643 66.6875 463.526 67.8398L462.002 68.7188C462.002 66.8047 462.188 65.0078 462.559 63.3281C462.95 61.6484 463.545 60.1641 464.346 58.875C465.147 57.5664 466.163 56.5508 467.393 55.8281C468.643 55.0859 470.127 54.7148 471.846 54.7148C472.237 54.7148 472.686 54.7637 473.194 54.8613C473.702 54.9395 474.053 55.0273 474.248 55.125ZM498.315 78.5918C498.315 77.8105 498.139 77.0879 497.788 76.4238C497.456 75.7402 496.763 75.125 495.708 74.5781C494.673 74.0117 493.11 73.5234 491.02 73.1133C489.263 72.7422 487.671 72.3027 486.245 71.7949C484.839 71.2871 483.638 70.6719 482.641 69.9492C481.665 69.2266 480.913 68.377 480.386 67.4004C479.858 66.4238 479.595 65.2812 479.595 63.9727C479.595 62.7227 479.868 61.541 480.415 60.4277C480.981 59.3145 481.772 58.3281 482.788 57.4688C483.823 56.6094 485.063 55.9355 486.509 55.4473C487.954 54.959 489.565 54.7148 491.343 54.7148C493.882 54.7148 496.05 55.1641 497.846 56.0625C499.643 56.9609 501.02 58.1621 501.977 59.666C502.934 61.1504 503.413 62.8008 503.413 64.6172H497.993C497.993 63.7383 497.729 62.8887 497.202 62.0684C496.694 61.2285 495.942 60.5352 494.946 59.9883C493.97 59.4414 492.768 59.168 491.343 59.168C489.839 59.168 488.618 59.4023 487.68 59.8711C486.763 60.3203 486.089 60.8965 485.659 61.5996C485.249 62.3027 485.044 63.0449 485.044 63.8262C485.044 64.4121 485.141 64.9395 485.337 65.4082C485.552 65.8574 485.923 66.2773 486.45 66.668C486.977 67.0391 487.72 67.3906 488.677 67.7227C489.634 68.0547 490.854 68.3867 492.339 68.7188C494.936 69.3047 497.075 70.0078 498.755 70.8281C500.434 71.6484 501.684 72.6543 502.505 73.8457C503.325 75.0371 503.735 76.4824 503.735 78.1816C503.735 79.5684 503.442 80.8379 502.856 81.9902C502.29 83.1426 501.46 84.1387 500.366 84.9785C499.292 85.7988 498.003 86.4434 496.499 86.9121C495.014 87.3613 493.345 87.5859 491.489 87.5859C488.696 87.5859 486.333 87.0879 484.399 86.0918C482.466 85.0957 481.001 83.8066 480.005 82.2246C479.009 80.6426 478.511 78.9727 478.511 77.2148H483.96C484.038 78.6992 484.468 79.8809 485.249 80.7598C486.03 81.6191 486.987 82.2344 488.12 82.6055C489.253 82.957 490.376 83.1328 491.489 83.1328C492.973 83.1328 494.214 82.9375 495.21 82.5469C496.225 82.1562 496.997 81.6191 497.524 80.9355C498.052 80.252 498.315 79.4707 498.315 78.5918ZM545.629 81.5801V65.2617C545.629 64.0117 545.375 62.9277 544.867 62.0098C544.379 61.0723 543.636 60.3496 542.64 59.8418C541.644 59.334 540.414 59.0801 538.949 59.0801C537.582 59.0801 536.38 59.3145 535.345 59.7832C534.33 60.252 533.529 60.8672 532.943 61.6289C532.377 62.3906 532.093 63.2109 532.093 64.0898H526.673C526.673 62.957 526.966 61.834 527.552 60.7207C528.138 59.6074 528.978 58.6016 530.072 57.7031C531.185 56.7852 532.513 56.0625 534.056 55.5352C535.619 54.9883 537.357 54.7148 539.271 54.7148C541.576 54.7148 543.607 55.1055 545.365 55.8867C547.142 56.668 548.529 57.8496 549.525 59.4316C550.541 60.9941 551.048 62.957 551.048 65.3203V80.0859C551.048 81.1406 551.136 82.2637 551.312 83.4551C551.507 84.6465 551.791 85.6719 552.162 86.5312V87H546.507C546.234 86.375 546.019 85.5449 545.863 84.5098C545.707 83.4551 545.629 82.4785 545.629 81.5801ZM546.566 67.7812L546.625 71.5898H541.146C539.603 71.5898 538.226 71.7168 537.015 71.9707C535.804 72.2051 534.789 72.5664 533.968 73.0547C533.148 73.543 532.523 74.1582 532.093 74.9004C531.664 75.623 531.449 76.4727 531.449 77.4492C531.449 78.4453 531.673 79.3535 532.123 80.1738C532.572 80.9941 533.246 81.6484 534.144 82.1367C535.062 82.6055 536.185 82.8398 537.513 82.8398C539.173 82.8398 540.638 82.4883 541.908 81.7852C543.177 81.082 544.183 80.2227 544.925 79.207C545.687 78.1914 546.097 77.2051 546.156 76.248L548.47 78.8555C548.334 79.6758 547.963 80.584 547.357 81.5801C546.752 82.5762 545.941 83.5332 544.925 84.4512C543.929 85.3496 542.738 86.1016 541.351 86.707C539.984 87.293 538.441 87.5859 536.722 87.5859C534.574 87.5859 532.689 87.166 531.068 86.3262C529.466 85.4863 528.216 84.3633 527.318 82.957C526.439 81.5312 526 79.9395 526 78.1816C526 76.4824 526.332 74.9883 526.996 73.6992C527.66 72.3906 528.617 71.3066 529.867 70.4473C531.117 69.5684 532.621 68.9043 534.379 68.4551C536.136 68.0059 538.099 67.7812 540.267 67.7812H546.566ZM572.859 83.1328C574.148 83.1328 575.34 82.8691 576.434 82.3418C577.527 81.8145 578.426 81.0918 579.129 80.1738C579.832 79.2363 580.232 78.1719 580.33 76.9805H585.486C585.389 78.8555 584.754 80.6035 583.582 82.2246C582.43 83.8262 580.916 85.125 579.041 86.1211C577.166 87.0977 575.105 87.5859 572.859 87.5859C570.477 87.5859 568.396 87.166 566.619 86.3262C564.861 85.4863 563.396 84.334 562.225 82.8691C561.072 81.4043 560.203 79.7246 559.617 77.8301C559.051 75.916 558.768 73.8945 558.768 71.7656V70.5352C558.768 68.4062 559.051 66.3945 559.617 64.5C560.203 62.5859 561.072 60.8965 562.225 59.4316C563.396 57.9668 564.861 56.8145 566.619 55.9746C568.396 55.1348 570.477 54.7148 572.859 54.7148C575.34 54.7148 577.508 55.2227 579.363 56.2383C581.219 57.2344 582.674 58.6016 583.729 60.3398C584.803 62.0586 585.389 64.0117 585.486 66.1992H580.33C580.232 64.8906 579.861 63.709 579.217 62.6543C578.592 61.5996 577.732 60.7598 576.639 60.1348C575.564 59.4902 574.305 59.168 572.859 59.168C571.199 59.168 569.803 59.5 568.67 60.1641C567.557 60.8086 566.668 61.6875 566.004 62.8008C565.359 63.8945 564.891 65.1152 564.598 66.4629C564.324 67.791 564.188 69.1484 564.188 70.5352V71.7656C564.188 73.1523 564.324 74.5195 564.598 75.8672C564.871 77.2148 565.33 78.4355 565.975 79.5293C566.639 80.623 567.527 81.502 568.641 82.166C569.773 82.8105 571.18 83.1328 572.859 83.1328ZM604.866 83.1328C606.155 83.1328 607.346 82.8691 608.44 82.3418C609.534 81.8145 610.432 81.0918 611.135 80.1738C611.838 79.2363 612.239 78.1719 612.336 76.9805H617.493C617.395 78.8555 616.76 80.6035 615.588 82.2246C614.436 83.8262 612.922 85.125 611.047 86.1211C609.172 87.0977 607.112 87.5859 604.866 87.5859C602.483 87.5859 600.403 87.166 598.625 86.3262C596.868 85.4863 595.403 84.334 594.231 82.8691C593.078 81.4043 592.209 79.7246 591.623 77.8301C591.057 75.916 590.774 73.8945 590.774 71.7656V70.5352C590.774 68.4062 591.057 66.3945 591.623 64.5C592.209 62.5859 593.078 60.8965 594.231 59.4316C595.403 57.9668 596.868 56.8145 598.625 55.9746C600.403 55.1348 602.483 54.7148 604.866 54.7148C607.346 54.7148 609.514 55.2227 611.37 56.2383C613.225 57.2344 614.68 58.6016 615.735 60.3398C616.809 62.0586 617.395 64.0117 617.493 66.1992H612.336C612.239 64.8906 611.868 63.709 611.223 62.6543C610.598 61.5996 609.739 60.7598 608.645 60.1348C607.571 59.4902 606.311 59.168 604.866 59.168C603.205 59.168 601.809 59.5 600.676 60.1641C599.563 60.8086 598.674 61.6875 598.01 62.8008C597.366 63.8945 596.897 65.1152 596.604 66.4629C596.33 67.791 596.194 69.1484 596.194 70.5352V71.7656C596.194 73.1523 596.33 74.5195 596.604 75.8672C596.877 77.2148 597.336 78.4355 597.981 79.5293C598.645 80.623 599.534 81.502 600.647 82.166C601.78 82.8105 603.186 83.1328 604.866 83.1328ZM643.581 79.6758V55.3008H649.03V87H643.845L643.581 79.6758ZM644.606 72.9961L646.862 72.9375C646.862 75.0469 646.638 77 646.188 78.7969C645.759 80.5742 645.055 82.1172 644.079 83.4258C643.102 84.7344 641.823 85.7598 640.241 86.502C638.659 87.2246 636.735 87.5859 634.47 87.5859C632.927 87.5859 631.511 87.3613 630.221 86.9121C628.952 86.4629 627.858 85.7695 626.94 84.832C626.022 83.8945 625.309 82.6738 624.802 81.1699C624.313 79.666 624.069 77.8594 624.069 75.75V55.3008H629.489V75.8086C629.489 77.2344 629.645 78.416 629.958 79.3535C630.29 80.2715 630.729 81.0039 631.276 81.5508C631.843 82.0781 632.468 82.4492 633.151 82.6641C633.854 82.8789 634.577 82.9863 635.319 82.9863C637.624 82.9863 639.45 82.5469 640.798 81.668C642.145 80.7695 643.112 79.5684 643.698 78.0645C644.304 76.541 644.606 74.8516 644.606 72.9961ZM663.312 60.2812V87H657.892V55.3008H663.165L663.312 60.2812ZM673.214 55.125L673.185 60.1641C672.736 60.0664 672.306 60.0078 671.896 59.9883C671.505 59.9492 671.056 59.9297 670.548 59.9297C669.298 59.9297 668.195 60.125 667.237 60.5156C666.28 60.9062 665.47 61.4531 664.806 62.1562C664.142 62.8594 663.614 63.6992 663.224 64.6758C662.853 65.6328 662.609 66.6875 662.491 67.8398L660.968 68.7188C660.968 66.8047 661.154 65.0078 661.525 63.3281C661.915 61.6484 662.511 60.1641 663.312 58.875C664.112 57.5664 665.128 56.5508 666.359 55.8281C667.609 55.0859 669.093 54.7148 670.812 54.7148C671.202 54.7148 671.652 54.7637 672.159 54.8613C672.667 54.9395 673.019 55.0273 673.214 55.125ZM696.343 81.5801V65.2617C696.343 64.0117 696.089 62.9277 695.582 62.0098C695.093 61.0723 694.351 60.3496 693.355 59.8418C692.359 59.334 691.129 59.0801 689.664 59.0801C688.297 59.0801 687.095 59.3145 686.06 59.7832C685.045 60.252 684.244 60.8672 683.658 61.6289C683.091 62.3906 682.808 63.2109 682.808 64.0898H677.388C677.388 62.957 677.681 61.834 678.267 60.7207C678.853 59.6074 679.693 58.6016 680.787 57.7031C681.9 56.7852 683.228 56.0625 684.771 55.5352C686.334 54.9883 688.072 54.7148 689.986 54.7148C692.291 54.7148 694.322 55.1055 696.08 55.8867C697.857 56.668 699.244 57.8496 700.24 59.4316C701.255 60.9941 701.763 62.957 701.763 65.3203V80.0859C701.763 81.1406 701.851 82.2637 702.027 83.4551C702.222 84.6465 702.505 85.6719 702.877 86.5312V87H697.222C696.949 86.375 696.734 85.5449 696.578 84.5098C696.422 83.4551 696.343 82.4785 696.343 81.5801ZM697.281 67.7812L697.339 71.5898H691.861C690.318 71.5898 688.941 71.7168 687.73 71.9707C686.519 72.2051 685.504 72.5664 684.683 73.0547C683.863 73.543 683.238 74.1582 682.808 74.9004C682.379 75.623 682.164 76.4727 682.164 77.4492C682.164 78.4453 682.388 79.3535 682.838 80.1738C683.287 80.9941 683.961 81.6484 684.859 82.1367C685.777 82.6055 686.9 82.8398 688.228 82.8398C689.888 82.8398 691.353 82.4883 692.623 81.7852C693.892 81.082 694.898 80.2227 695.64 79.207C696.402 78.1914 696.812 77.2051 696.871 76.248L699.185 78.8555C699.048 79.6758 698.677 80.584 698.072 81.5801C697.466 82.5762 696.656 83.5332 695.64 84.4512C694.644 85.3496 693.453 86.1016 692.066 86.707C690.699 87.293 689.156 87.5859 687.437 87.5859C685.289 87.5859 683.404 87.166 681.783 86.3262C680.181 85.4863 678.931 84.3633 678.033 82.957C677.154 81.5312 676.714 79.9395 676.714 78.1816C676.714 76.4824 677.047 74.9883 677.711 73.6992C678.375 72.3906 679.332 71.3066 680.582 70.4473C681.832 69.5684 683.336 68.9043 685.093 68.4551C686.851 68.0059 688.814 67.7812 690.982 67.7812H697.281ZM724.16 55.3008V59.4609H707.021V55.3008H724.16ZM712.822 47.5957H718.242V79.1484C718.242 80.2227 718.408 81.0332 718.74 81.5801C719.072 82.127 719.502 82.4883 720.029 82.6641C720.557 82.8398 721.123 82.9277 721.729 82.9277C722.178 82.9277 722.646 82.8887 723.135 82.8105C723.643 82.7129 724.023 82.6348 724.277 82.5762L724.307 87C723.877 87.1367 723.311 87.2637 722.607 87.3809C721.924 87.5176 721.094 87.5859 720.117 87.5859C718.789 87.5859 717.568 87.3223 716.455 86.7949C715.342 86.2676 714.453 85.3887 713.789 84.1582C713.145 82.9082 712.822 81.2285 712.822 79.1191V47.5957ZM744.272 87.5859C742.065 87.5859 740.063 87.2148 738.266 86.4727C736.489 85.7109 734.955 84.6465 733.666 83.2793C732.397 81.9121 731.42 80.291 730.737 78.416C730.053 76.541 729.711 74.4902 729.711 72.2637V71.0332C729.711 68.4551 730.092 66.1602 730.854 64.1484C731.616 62.1172 732.651 60.3984 733.959 58.9922C735.268 57.5859 736.752 56.5215 738.412 55.7988C740.073 55.0762 741.791 54.7148 743.569 54.7148C745.834 54.7148 747.787 55.1055 749.428 55.8867C751.088 56.668 752.446 57.7617 753.5 59.168C754.555 60.5547 755.336 62.1953 755.844 64.0898C756.352 65.9648 756.606 68.0156 756.606 70.2422V72.6738H732.934V68.25H751.186V67.8398C751.108 66.4336 750.815 65.0664 750.307 63.7383C749.819 62.4102 749.037 61.3164 747.963 60.457C746.889 59.5977 745.424 59.168 743.569 59.168C742.338 59.168 741.205 59.4316 740.17 59.959C739.135 60.4668 738.246 61.2285 737.504 62.2441C736.762 63.2598 736.186 64.5 735.776 65.9648C735.366 67.4297 735.161 69.1191 735.161 71.0332V72.2637C735.161 73.7676 735.366 75.1836 735.776 76.5117C736.205 77.8203 736.821 78.9727 737.621 79.9688C738.442 80.9648 739.428 81.7461 740.58 82.3125C741.752 82.8789 743.08 83.1621 744.565 83.1621C746.479 83.1621 748.1 82.7715 749.428 81.9902C750.756 81.209 751.918 80.1641 752.914 78.8555L756.196 81.4629C755.512 82.498 754.643 83.4844 753.588 84.4219C752.534 85.3594 751.235 86.1211 749.692 86.707C748.168 87.293 746.362 87.5859 744.272 87.5859ZM768.456 80.5547V84.9199C768.456 86.6973 768.007 88.5723 767.108 90.5449C766.21 92.5371 764.95 94.1973 763.329 95.5254L760.253 93.3867C760.878 92.5273 761.405 91.6484 761.835 90.75C762.264 89.8711 762.587 88.9531 762.802 87.9961C763.036 87.0586 763.153 86.0625 763.153 85.0078V80.5547H768.456ZM797.341 55.3008V87H791.892V55.3008H797.341ZM791.482 46.8926C791.482 46.0137 791.746 45.2715 792.273 44.666C792.82 44.0605 793.621 43.7578 794.675 43.7578C795.711 43.7578 796.502 44.0605 797.048 44.666C797.615 45.2715 797.898 46.0137 797.898 46.8926C797.898 47.7324 797.615 48.4551 797.048 49.0605C796.502 49.6465 795.711 49.9395 794.675 49.9395C793.621 49.9395 792.82 49.6465 792.273 49.0605C791.746 48.4551 791.482 47.7324 791.482 46.8926ZM812.062 62.0684V87H806.643V55.3008H811.77L812.062 62.0684ZM810.773 69.9492L808.518 69.8613C808.537 67.6934 808.859 65.6914 809.484 63.8555C810.109 62 810.988 60.3887 812.121 59.0215C813.254 57.6543 814.602 56.5996 816.164 55.8574C817.746 55.0957 819.494 54.7148 821.408 54.7148C822.971 54.7148 824.377 54.9297 825.627 55.3594C826.877 55.7695 827.941 56.4336 828.82 57.3516C829.719 58.2695 830.402 59.4609 830.871 60.9258C831.34 62.3711 831.574 64.1387 831.574 66.2285V87H826.125V66.1699C826.125 64.5098 825.881 63.1816 825.393 62.1855C824.904 61.1699 824.191 60.4375 823.254 59.9883C822.316 59.5195 821.164 59.2852 819.797 59.2852C818.449 59.2852 817.219 59.5684 816.105 60.1348C815.012 60.7012 814.064 61.4824 813.264 62.4785C812.482 63.4746 811.867 64.6172 811.418 65.9062C810.988 67.1758 810.773 68.5234 810.773 69.9492ZM851.686 66.6387V71.0918H837.389V66.6387H851.686ZM877.569 80.8477V42H883.018V87H878.038L877.569 80.8477ZM856.241 71.502V70.8867C856.241 68.4648 856.534 66.2676 857.12 64.2949C857.725 62.3027 858.575 60.5938 859.669 59.168C860.782 57.7422 862.1 56.6484 863.624 55.8867C865.167 55.1055 866.886 54.7148 868.78 54.7148C870.772 54.7148 872.511 55.0664 873.995 55.7695C875.499 56.4531 876.768 57.459 877.804 58.7871C878.858 60.0957 879.688 61.6777 880.294 63.5332C880.899 65.3887 881.319 67.4883 881.554 69.832V72.5273C881.339 74.8516 880.919 76.9414 880.294 78.7969C879.688 80.6523 878.858 82.2344 877.804 83.543C876.768 84.8516 875.499 85.8574 873.995 86.5605C872.491 87.2441 870.733 87.5859 868.721 87.5859C866.866 87.5859 865.167 87.1855 863.624 86.3848C862.1 85.584 860.782 84.4609 859.669 83.0156C858.575 81.5703 857.725 79.8711 857.12 77.918C856.534 75.9453 856.241 73.8066 856.241 71.502ZM861.69 70.8867V71.502C861.69 73.084 861.846 74.5684 862.159 75.9551C862.491 77.3418 862.999 78.5625 863.682 79.6172C864.366 80.6719 865.235 81.502 866.29 82.1074C867.345 82.6934 868.604 82.9863 870.069 82.9863C871.866 82.9863 873.341 82.6055 874.493 81.8438C875.665 81.082 876.602 80.0762 877.305 78.8262C878.009 77.5762 878.555 76.2188 878.946 74.7539V67.6934C878.712 66.6191 878.37 65.584 877.921 64.5879C877.491 63.5723 876.925 62.6738 876.221 61.8926C875.538 61.0918 874.688 60.457 873.673 59.9883C872.677 59.5195 871.495 59.2852 870.128 59.2852C868.643 59.2852 867.364 59.5977 866.29 60.2227C865.235 60.8281 864.366 61.668 863.682 62.7422C862.999 63.7969 862.491 65.0273 862.159 66.4336C861.846 67.8203 861.69 69.3047 861.69 70.8867ZM905.21 87.5859C903.003 87.5859 901.001 87.2148 899.204 86.4727C897.427 85.7109 895.894 84.6465 894.605 83.2793C893.335 81.9121 892.359 80.291 891.675 78.416C890.991 76.541 890.65 74.4902 890.65 72.2637V71.0332C890.65 68.4551 891.03 66.1602 891.792 64.1484C892.554 62.1172 893.589 60.3984 894.898 58.9922C896.206 57.5859 897.691 56.5215 899.351 55.7988C901.011 55.0762 902.73 54.7148 904.507 54.7148C906.773 54.7148 908.726 55.1055 910.366 55.8867C912.027 56.668 913.384 57.7617 914.439 59.168C915.493 60.5547 916.275 62.1953 916.782 64.0898C917.29 65.9648 917.544 68.0156 917.544 70.2422V72.6738H893.872V68.25H912.124V67.8398C912.046 66.4336 911.753 65.0664 911.245 63.7383C910.757 62.4102 909.976 61.3164 908.902 60.457C907.827 59.5977 906.362 59.168 904.507 59.168C903.277 59.168 902.144 59.4316 901.109 59.959C900.073 60.4668 899.185 61.2285 898.443 62.2441C897.7 63.2598 897.124 64.5 896.714 65.9648C896.304 67.4297 896.099 69.1191 896.099 71.0332V72.2637C896.099 73.7676 896.304 75.1836 896.714 76.5117C897.144 77.8203 897.759 78.9727 898.56 79.9688C899.38 80.9648 900.366 81.7461 901.519 82.3125C902.691 82.8789 904.019 83.1621 905.503 83.1621C907.417 83.1621 909.038 82.7715 910.366 81.9902C911.695 81.209 912.857 80.1641 913.853 78.8555L917.134 81.4629C916.45 82.498 915.581 83.4844 914.527 84.4219C913.472 85.3594 912.173 86.1211 910.63 86.707C909.107 87.293 907.3 87.5859 905.21 87.5859ZM929.892 61.3945V99.1875H924.443V55.3008H929.423L929.892 61.3945ZM951.25 70.8867V71.502C951.25 73.8066 950.976 75.9453 950.429 77.918C949.882 79.8711 949.082 81.5703 948.027 83.0156C946.992 84.4609 945.713 85.584 944.189 86.3848C942.666 87.1855 940.918 87.5859 938.945 87.5859C936.933 87.5859 935.156 87.2539 933.613 86.5898C932.07 85.9258 930.761 84.959 929.687 83.6895C928.613 82.4199 927.754 80.8965 927.109 79.1191C926.484 77.3418 926.054 75.3398 925.82 73.1133V69.832C926.054 67.4883 926.494 65.3887 927.138 63.5332C927.783 61.6777 928.632 60.0957 929.687 58.7871C930.761 57.459 932.06 56.4531 933.584 55.7695C935.107 55.0664 936.865 54.7148 938.857 54.7148C940.849 54.7148 942.617 55.1055 944.16 55.8867C945.703 56.6484 947.002 57.7422 948.056 59.168C949.111 60.5938 949.902 62.3027 950.429 64.2949C950.976 66.2676 951.25 68.4648 951.25 70.8867ZM945.8 71.502V70.8867C945.8 69.3047 945.634 67.8203 945.302 66.4336C944.97 65.0273 944.453 63.7969 943.75 62.7422C943.066 61.668 942.187 60.8281 941.113 60.2227C940.039 59.5977 938.759 59.2852 937.275 59.2852C935.908 59.2852 934.716 59.5195 933.701 59.9883C932.705 60.457 931.855 61.0918 931.152 61.8926C930.449 62.6738 929.873 63.5723 929.423 64.5879C928.994 65.584 928.672 66.6191 928.457 67.6934V75.2812C928.847 76.6484 929.394 77.9375 930.097 79.1484C930.8 80.3398 931.738 81.3066 932.91 82.0488C934.082 82.7715 935.556 83.1328 937.334 83.1328C938.798 83.1328 940.058 82.8301 941.113 82.2246C942.187 81.5996 943.066 80.75 943.75 79.6758C944.453 78.6016 944.97 77.3711 945.302 75.9844C945.634 74.5781 945.8 73.084 945.8 71.502ZM972.035 55.3008V59.4609H954.896V55.3008H972.035ZM960.697 47.5957H966.117V79.1484C966.117 80.2227 966.283 81.0332 966.615 81.5801C966.947 82.127 967.377 82.4883 967.904 82.6641C968.432 82.8398 968.998 82.9277 969.604 82.9277C970.053 82.9277 970.521 82.8887 971.01 82.8105C971.518 82.7129 971.898 82.6348 972.152 82.5762L972.182 87C971.752 87.1367 971.186 87.2637 970.482 87.3809C969.799 87.5176 968.969 87.5859 967.992 87.5859C966.664 87.5859 965.443 87.3223 964.33 86.7949C963.217 86.2676 962.328 85.3887 961.664 84.1582C961.02 82.9082 960.697 81.2285 960.697 79.1191V47.5957ZM984.412 42V87H978.993V42H984.412ZM983.123 69.9492L980.868 69.8613C980.887 67.6934 981.209 65.6914 981.834 63.8555C982.459 62 983.338 60.3887 984.471 59.0215C985.604 57.6543 986.952 56.5996 988.514 55.8574C990.096 55.0957 991.844 54.7148 993.758 54.7148C995.321 54.7148 996.727 54.9297 997.977 55.3594C999.227 55.7695 1000.29 56.4336 1001.17 57.3516C1002.07 58.2695 1002.75 59.4609 1003.22 60.9258C1003.69 62.3711 1003.92 64.1387 1003.92 66.2285V87H998.475V66.1699C998.475 64.5098 998.231 63.1816 997.743 62.1855C997.254 61.1699 996.541 60.4375 995.604 59.9883C994.666 59.5195 993.514 59.2852 992.147 59.2852C990.799 59.2852 989.569 59.5684 988.455 60.1348C987.362 60.7012 986.414 61.4824 985.614 62.4785C984.832 63.4746 984.217 64.6172 983.768 65.9062C983.338 67.1758 983.123 68.5234 983.123 69.9492ZM23.5254 143.676V119.301H28.9746V151H23.7891L23.5254 143.676ZM24.5508 136.996L26.8066 136.938C26.8066 139.047 26.582 141 26.1328 142.797C25.7031 144.574 25 146.117 24.0234 147.426C23.0469 148.734 21.7676 149.76 20.1855 150.502C18.6035 151.225 16.6797 151.586 14.4141 151.586C12.8711 151.586 11.4551 151.361 10.166 150.912C8.89648 150.463 7.80273 149.77 6.88477 148.832C5.9668 147.895 5.25391 146.674 4.74609 145.17C4.25781 143.666 4.01367 141.859 4.01367 139.75V119.301H9.43359V139.809C9.43359 141.234 9.58984 142.416 9.90234 143.354C10.2344 144.271 10.6738 145.004 11.2207 145.551C11.7871 146.078 12.4121 146.449 13.0957 146.664C13.7988 146.879 14.5215 146.986 15.2637 146.986C17.5684 146.986 19.3945 146.547 20.7422 145.668C22.0898 144.77 23.0566 143.568 23.6426 142.064C24.248 140.541 24.5508 138.852 24.5508 136.996ZM56.2934 142.592C56.2934 141.811 56.1176 141.088 55.766 140.424C55.434 139.74 54.7406 139.125 53.6859 138.578C52.6508 138.012 51.0883 137.523 48.9984 137.113C47.2406 136.742 45.6488 136.303 44.223 135.795C42.8168 135.287 41.6156 134.672 40.6195 133.949C39.643 133.227 38.891 132.377 38.3637 131.4C37.8363 130.424 37.5727 129.281 37.5727 127.973C37.5727 126.723 37.8461 125.541 38.393 124.428C38.9594 123.314 39.7504 122.328 40.766 121.469C41.8012 120.609 43.0414 119.936 44.4867 119.447C45.932 118.959 47.5434 118.715 49.3207 118.715C51.8598 118.715 54.0277 119.164 55.8246 120.062C57.6215 120.961 58.9984 122.162 59.9555 123.666C60.9125 125.15 61.391 126.801 61.391 128.617H55.9711C55.9711 127.738 55.7074 126.889 55.1801 126.068C54.6723 125.229 53.9203 124.535 52.9242 123.988C51.9477 123.441 50.7465 123.168 49.3207 123.168C47.8168 123.168 46.5961 123.402 45.6586 123.871C44.7406 124.32 44.0668 124.896 43.6371 125.6C43.227 126.303 43.0219 127.045 43.0219 127.826C43.0219 128.412 43.1195 128.939 43.3148 129.408C43.5297 129.857 43.9008 130.277 44.4281 130.668C44.9555 131.039 45.6977 131.391 46.6547 131.723C47.6117 132.055 48.8324 132.387 50.3168 132.719C52.9145 133.305 55.0531 134.008 56.7328 134.828C58.4125 135.648 59.6625 136.654 60.4828 137.846C61.3031 139.037 61.7133 140.482 61.7133 142.182C61.7133 143.568 61.4203 144.838 60.8344 145.99C60.268 147.143 59.4379 148.139 58.3441 148.979C57.2699 149.799 55.9809 150.443 54.477 150.912C52.9926 151.361 51.3227 151.586 49.4672 151.586C46.6742 151.586 44.3109 151.088 42.3773 150.092C40.4437 149.096 38.9789 147.807 37.9828 146.225C36.9867 144.643 36.4887 142.973 36.4887 141.215H41.9379C42.016 142.699 42.4457 143.881 43.227 144.76C44.0082 145.619 44.9652 146.234 46.098 146.605C47.2309 146.957 48.3539 147.133 49.4672 147.133C50.9516 147.133 52.1918 146.938 53.1879 146.547C54.2035 146.156 54.975 145.619 55.5023 144.936C56.0297 144.252 56.2934 143.471 56.2934 142.592ZM82.5867 151.586C80.3797 151.586 78.3777 151.215 76.5809 150.473C74.8035 149.711 73.2703 148.646 71.9812 147.279C70.7117 145.912 69.7352 144.291 69.0516 142.416C68.368 140.541 68.0262 138.49 68.0262 136.264V135.033C68.0262 132.455 68.407 130.16 69.1687 128.148C69.9305 126.117 70.9656 124.398 72.2742 122.992C73.5828 121.586 75.0672 120.521 76.7273 119.799C78.3875 119.076 80.1062 118.715 81.8836 118.715C84.1492 118.715 86.1023 119.105 87.743 119.887C89.4031 120.668 90.7605 121.762 91.8152 123.168C92.8699 124.555 93.6512 126.195 94.159 128.09C94.6668 129.965 94.9207 132.016 94.9207 134.242V136.674H71.2488V132.25H89.5008V131.84C89.4227 130.434 89.1297 129.066 88.6219 127.738C88.1336 126.41 87.3523 125.316 86.2781 124.457C85.2039 123.598 83.7391 123.168 81.8836 123.168C80.6531 123.168 79.5203 123.432 78.4852 123.959C77.45 124.467 76.5613 125.229 75.8191 126.244C75.077 127.26 74.5008 128.5 74.0906 129.965C73.6805 131.43 73.4754 133.119 73.4754 135.033V136.264C73.4754 137.768 73.6805 139.184 74.0906 140.512C74.5203 141.82 75.1355 142.973 75.9363 143.969C76.7566 144.965 77.743 145.746 78.8953 146.312C80.0672 146.879 81.3953 147.162 82.8797 147.162C84.7937 147.162 86.4148 146.771 87.743 145.99C89.0711 145.209 90.2332 144.164 91.2293 142.855L94.5105 145.463C93.827 146.498 92.9578 147.484 91.9031 148.422C90.8484 149.359 89.5496 150.121 88.0066 150.707C86.4832 151.293 84.6766 151.586 82.5867 151.586ZM107.269 124.281V151H101.849V119.301H107.122L107.269 124.281ZM117.171 119.125L117.142 124.164C116.693 124.066 116.263 124.008 115.853 123.988C115.462 123.949 115.013 123.93 114.505 123.93C113.255 123.93 112.152 124.125 111.195 124.516C110.238 124.906 109.427 125.453 108.763 126.156C108.099 126.859 107.571 127.699 107.181 128.676C106.81 129.633 106.566 130.688 106.448 131.84L104.925 132.719C104.925 130.805 105.111 129.008 105.482 127.328C105.872 125.648 106.468 124.164 107.269 122.875C108.07 121.566 109.085 120.551 110.316 119.828C111.566 119.086 113.05 118.715 114.769 118.715C115.159 118.715 115.609 118.764 116.116 118.861C116.624 118.939 116.976 119.027 117.171 119.125ZM144.152 119.301V151H138.703V119.301H144.152ZM138.293 110.893C138.293 110.014 138.557 109.271 139.084 108.666C139.631 108.061 140.432 107.758 141.486 107.758C142.521 107.758 143.312 108.061 143.859 108.666C144.426 109.271 144.709 110.014 144.709 110.893C144.709 111.732 144.426 112.455 143.859 113.061C143.312 113.646 142.521 113.939 141.486 113.939C140.432 113.939 139.631 113.646 139.084 113.061C138.557 112.455 138.293 111.732 138.293 110.893ZM158.873 126.068V151H153.454V119.301H158.58L158.873 126.068ZM157.584 133.949L155.329 133.861C155.348 131.693 155.67 129.691 156.295 127.855C156.92 126 157.799 124.389 158.932 123.021C160.065 121.654 161.413 120.6 162.975 119.857C164.557 119.096 166.305 118.715 168.219 118.715C169.782 118.715 171.188 118.93 172.438 119.359C173.688 119.77 174.752 120.434 175.631 121.352C176.53 122.27 177.213 123.461 177.682 124.926C178.151 126.371 178.385 128.139 178.385 130.229V151H172.936V130.17C172.936 128.51 172.692 127.182 172.204 126.186C171.715 125.17 171.002 124.438 170.065 123.988C169.127 123.52 167.975 123.285 166.608 123.285C165.26 123.285 164.03 123.568 162.916 124.135C161.823 124.701 160.875 125.482 160.075 126.479C159.293 127.475 158.678 128.617 158.229 129.906C157.799 131.176 157.584 132.523 157.584 133.949ZM205.675 142.592C205.675 141.811 205.499 141.088 205.147 140.424C204.815 139.74 204.122 139.125 203.067 138.578C202.032 138.012 200.47 137.523 198.38 137.113C196.622 136.742 195.03 136.303 193.604 135.795C192.198 135.287 190.997 134.672 190.001 133.949C189.024 133.227 188.272 132.377 187.745 131.4C187.218 130.424 186.954 129.281 186.954 127.973C186.954 126.723 187.227 125.541 187.774 124.428C188.341 123.314 189.132 122.328 190.147 121.469C191.182 120.609 192.423 119.936 193.868 119.447C195.313 118.959 196.925 118.715 198.702 118.715C201.241 118.715 203.409 119.164 205.206 120.062C207.003 120.961 208.38 122.162 209.337 123.666C210.294 125.15 210.772 126.801 210.772 128.617H205.352C205.352 127.738 205.089 126.889 204.561 126.068C204.054 125.229 203.302 124.535 202.305 123.988C201.329 123.441 200.128 123.168 198.702 123.168C197.198 123.168 195.977 123.402 195.04 123.871C194.122 124.32 193.448 124.896 193.018 125.6C192.608 126.303 192.403 127.045 192.403 127.826C192.403 128.412 192.501 128.939 192.696 129.408C192.911 129.857 193.282 130.277 193.809 130.668C194.337 131.039 195.079 131.391 196.036 131.723C196.993 132.055 198.214 132.387 199.698 132.719C202.296 133.305 204.434 134.008 206.114 134.828C207.794 135.648 209.044 136.654 209.864 137.846C210.684 139.037 211.095 140.482 211.095 142.182C211.095 143.568 210.802 144.838 210.216 145.99C209.649 147.143 208.819 148.139 207.725 148.979C206.651 149.799 205.362 150.443 203.858 150.912C202.374 151.361 200.704 151.586 198.848 151.586C196.055 151.586 193.692 151.088 191.759 150.092C189.825 149.096 188.36 147.807 187.364 146.225C186.368 144.643 185.87 142.973 185.87 141.215H191.319C191.397 142.699 191.827 143.881 192.608 144.76C193.389 145.619 194.346 146.234 195.479 146.605C196.612 146.957 197.735 147.133 198.848 147.133C200.333 147.133 201.573 146.938 202.569 146.547C203.585 146.156 204.356 145.619 204.884 144.936C205.411 144.252 205.675 143.471 205.675 142.592ZM224.702 119.301V151H219.253V119.301H224.702ZM218.843 110.893C218.843 110.014 219.107 109.271 219.634 108.666C220.181 108.061 220.982 107.758 222.036 107.758C223.071 107.758 223.863 108.061 224.409 108.666C224.976 109.271 225.259 110.014 225.259 110.893C225.259 111.732 224.976 112.455 224.409 113.061C223.863 113.646 223.071 113.939 222.036 113.939C220.982 113.939 220.181 113.646 219.634 113.061C219.107 112.455 218.843 111.732 218.843 110.893ZM254.541 119.301H259.462V150.326C259.462 153.119 258.896 155.502 257.763 157.475C256.63 159.447 255.048 160.941 253.017 161.957C251.005 162.992 248.681 163.51 246.045 163.51C244.951 163.51 243.662 163.334 242.177 162.982C240.712 162.65 239.267 162.074 237.841 161.254C236.435 160.453 235.254 159.369 234.296 158.002L237.138 154.779C238.466 156.381 239.853 157.494 241.298 158.119C242.763 158.744 244.209 159.057 245.634 159.057C247.353 159.057 248.837 158.734 250.087 158.09C251.337 157.445 252.304 156.488 252.988 155.219C253.691 153.969 254.043 152.426 254.043 150.59V126.273L254.541 119.301ZM232.714 135.502V134.887C232.714 132.465 232.998 130.268 233.564 128.295C234.15 126.303 234.98 124.594 236.054 123.168C237.148 121.742 238.466 120.648 240.009 119.887C241.552 119.105 243.291 118.715 245.224 118.715C247.216 118.715 248.955 119.066 250.439 119.77C251.943 120.453 253.212 121.459 254.248 122.787C255.302 124.096 256.132 125.678 256.738 127.533C257.343 129.389 257.763 131.488 257.998 133.832V136.527C257.783 138.852 257.363 140.941 256.738 142.797C256.132 144.652 255.302 146.234 254.248 147.543C253.212 148.852 251.943 149.857 250.439 150.561C248.935 151.244 247.177 151.586 245.166 151.586C243.271 151.586 241.552 151.186 240.009 150.385C238.486 149.584 237.177 148.461 236.084 147.016C234.99 145.57 234.15 143.871 233.564 141.918C232.998 139.945 232.714 137.807 232.714 135.502ZM238.134 134.887V135.502C238.134 137.084 238.291 138.568 238.603 139.955C238.935 141.342 239.433 142.562 240.097 143.617C240.781 144.672 241.65 145.502 242.705 146.107C243.759 146.693 245.019 146.986 246.484 146.986C248.281 146.986 249.765 146.605 250.937 145.844C252.109 145.082 253.037 144.076 253.72 142.826C254.423 141.576 254.97 140.219 255.361 138.754V131.693C255.146 130.619 254.814 129.584 254.365 128.588C253.935 127.572 253.369 126.674 252.666 125.893C251.982 125.092 251.132 124.457 250.117 123.988C249.101 123.52 247.91 123.285 246.543 123.285C245.058 123.285 243.779 123.598 242.705 124.223C241.65 124.828 240.781 125.668 240.097 126.742C239.433 127.797 238.935 129.027 238.603 130.434C238.291 131.82 238.134 133.305 238.134 134.887ZM273.715 106V151H268.295V106H273.715ZM272.426 133.949L270.17 133.861C270.189 131.693 270.512 129.691 271.137 127.855C271.762 126 272.641 124.389 273.773 123.021C274.906 121.654 276.254 120.6 277.816 119.857C279.398 119.096 281.146 118.715 283.061 118.715C284.623 118.715 286.029 118.93 287.279 119.359C288.529 119.77 289.594 120.434 290.473 121.352C291.371 122.27 292.055 123.461 292.523 124.926C292.992 126.371 293.227 128.139 293.227 130.229V151H287.777V130.17C287.777 128.51 287.533 127.182 287.045 126.186C286.557 125.17 285.844 124.438 284.906 123.988C283.969 123.52 282.816 123.285 281.449 123.285C280.102 123.285 278.871 123.568 277.758 124.135C276.664 124.701 275.717 125.482 274.916 126.479C274.135 127.475 273.52 128.617 273.07 129.906C272.641 131.176 272.426 132.523 272.426 133.949ZM315.213 119.301V123.461H298.075V119.301H315.213ZM303.875 111.596H309.295V143.148C309.295 144.223 309.461 145.033 309.793 145.58C310.125 146.127 310.555 146.488 311.082 146.664C311.61 146.84 312.176 146.928 312.782 146.928C313.231 146.928 313.7 146.889 314.188 146.811C314.696 146.713 315.077 146.635 315.33 146.576L315.36 151C314.93 151.137 314.364 151.264 313.661 151.381C312.977 151.518 312.147 151.586 311.17 151.586C309.842 151.586 308.621 151.322 307.508 150.795C306.395 150.268 305.506 149.389 304.842 148.158C304.198 146.908 303.875 145.229 303.875 143.119V111.596ZM340.628 142.592C340.628 141.811 340.452 141.088 340.1 140.424C339.768 139.74 339.075 139.125 338.02 138.578C336.985 138.012 335.423 137.523 333.333 137.113C331.575 136.742 329.983 136.303 328.557 135.795C327.151 135.287 325.95 134.672 324.954 133.949C323.977 133.227 323.225 132.377 322.698 131.4C322.171 130.424 321.907 129.281 321.907 127.973C321.907 126.723 322.18 125.541 322.727 124.428C323.294 123.314 324.085 122.328 325.1 121.469C326.136 120.609 327.376 119.936 328.821 119.447C330.266 118.959 331.878 118.715 333.655 118.715C336.194 118.715 338.362 119.164 340.159 120.062C341.956 120.961 343.333 122.162 344.29 123.666C345.247 125.15 345.725 126.801 345.725 128.617H340.305C340.305 127.738 340.042 126.889 339.514 126.068C339.007 125.229 338.255 124.535 337.259 123.988C336.282 123.441 335.081 123.168 333.655 123.168C332.151 123.168 330.93 123.402 329.993 123.871C329.075 124.32 328.401 124.896 327.971 125.6C327.561 126.303 327.356 127.045 327.356 127.826C327.356 128.412 327.454 128.939 327.649 129.408C327.864 129.857 328.235 130.277 328.763 130.668C329.29 131.039 330.032 131.391 330.989 131.723C331.946 132.055 333.167 132.387 334.651 132.719C337.249 133.305 339.388 134.008 341.067 134.828C342.747 135.648 343.997 136.654 344.817 137.846C345.638 139.037 346.048 140.482 346.048 142.182C346.048 143.568 345.755 144.838 345.169 145.99C344.602 147.143 343.772 148.139 342.679 148.979C341.604 149.799 340.315 150.443 338.811 150.912C337.327 151.361 335.657 151.586 333.802 151.586C331.009 151.586 328.645 151.088 326.712 150.092C324.778 149.096 323.313 147.807 322.317 146.225C321.321 144.643 320.823 142.973 320.823 141.215H326.272C326.35 142.699 326.78 143.881 327.561 144.76C328.343 145.619 329.3 146.234 330.432 146.605C331.565 146.957 332.688 147.133 333.802 147.133C335.286 147.133 336.526 146.938 337.522 146.547C338.538 146.156 339.309 145.619 339.837 144.936C340.364 144.252 340.628 143.471 340.628 142.592ZM375.138 119.301V151H369.689V119.301H375.138ZM369.279 110.893C369.279 110.014 369.543 109.271 370.07 108.666C370.617 108.061 371.418 107.758 372.472 107.758C373.507 107.758 374.298 108.061 374.845 108.666C375.412 109.271 375.695 110.014 375.695 110.893C375.695 111.732 375.412 112.455 374.845 113.061C374.298 113.646 373.507 113.939 372.472 113.939C371.418 113.939 370.617 113.646 370.07 113.061C369.543 112.455 369.279 111.732 369.279 110.893ZM389.859 126.068V151H384.439V119.301H389.566L389.859 126.068ZM388.57 133.949L386.314 133.861C386.334 131.693 386.656 129.691 387.281 127.855C387.906 126 388.785 124.389 389.918 123.021C391.051 121.654 392.398 120.6 393.961 119.857C395.543 119.096 397.291 118.715 399.205 118.715C400.768 118.715 402.174 118.93 403.424 119.359C404.674 119.77 405.738 120.434 406.617 121.352C407.516 122.27 408.199 123.461 408.668 124.926C409.137 126.371 409.371 128.139 409.371 130.229V151H403.922V130.17C403.922 128.51 403.678 127.182 403.189 126.186C402.701 125.17 401.988 124.438 401.051 123.988C400.113 123.52 398.961 123.285 397.594 123.285C396.246 123.285 395.016 123.568 393.902 124.135C392.809 124.701 391.861 125.482 391.061 126.479C390.279 127.475 389.664 128.617 389.215 129.906C388.785 131.176 388.57 132.523 388.57 133.949ZM439.106 124.281V151H433.686V119.301H438.96L439.106 124.281ZM449.009 119.125L448.979 124.164C448.53 124.066 448.1 124.008 447.69 123.988C447.3 123.949 446.85 123.93 446.343 123.93C445.093 123.93 443.989 124.125 443.032 124.516C442.075 124.906 441.264 125.453 440.6 126.156C439.936 126.859 439.409 127.699 439.018 128.676C438.647 129.633 438.403 130.688 438.286 131.84L436.763 132.719C436.763 130.805 436.948 129.008 437.319 127.328C437.71 125.648 438.305 124.164 439.106 122.875C439.907 121.566 440.923 120.551 442.153 119.828C443.403 119.086 444.888 118.715 446.606 118.715C446.997 118.715 447.446 118.764 447.954 118.861C448.462 118.939 448.813 119.027 449.009 119.125ZM467.187 151.586C464.98 151.586 462.978 151.215 461.181 150.473C459.404 149.711 457.87 148.646 456.581 147.279C455.312 145.912 454.335 144.291 453.652 142.416C452.968 140.541 452.626 138.49 452.626 136.264V135.033C452.626 132.455 453.007 130.16 453.769 128.148C454.53 126.117 455.566 124.398 456.874 122.992C458.183 121.586 459.667 120.521 461.327 119.799C462.987 119.076 464.706 118.715 466.484 118.715C468.749 118.715 470.702 119.105 472.343 119.887C474.003 120.668 475.361 121.762 476.415 123.168C477.47 124.555 478.251 126.195 478.759 128.09C479.267 129.965 479.521 132.016 479.521 134.242V136.674H455.849V132.25H474.101V131.84C474.023 130.434 473.73 129.066 473.222 127.738C472.734 126.41 471.952 125.316 470.878 124.457C469.804 123.598 468.339 123.168 466.484 123.168C465.253 123.168 464.12 123.432 463.085 123.959C462.05 124.467 461.161 125.229 460.419 126.244C459.677 127.26 459.101 128.5 458.691 129.965C458.28 131.43 458.075 133.119 458.075 135.033V136.264C458.075 137.768 458.28 139.184 458.691 140.512C459.12 141.82 459.736 142.973 460.536 143.969C461.357 144.965 462.343 145.746 463.495 146.312C464.667 146.879 465.995 147.162 467.48 147.162C469.394 147.162 471.015 146.771 472.343 145.99C473.671 145.209 474.833 144.164 475.829 142.855L479.111 145.463C478.427 146.498 477.558 147.484 476.503 148.422C475.448 149.359 474.15 150.121 472.607 150.707C471.083 151.293 469.277 151.586 467.187 151.586ZM505.14 145.58V129.262C505.14 128.012 504.886 126.928 504.379 126.01C503.89 125.072 503.148 124.35 502.152 123.842C501.156 123.334 499.925 123.08 498.461 123.08C497.093 123.08 495.892 123.314 494.857 123.783C493.841 124.252 493.041 124.867 492.455 125.629C491.888 126.391 491.605 127.211 491.605 128.09H486.185C486.185 126.957 486.478 125.834 487.064 124.721C487.65 123.607 488.49 122.602 489.584 121.703C490.697 120.785 492.025 120.062 493.568 119.535C495.13 118.988 496.869 118.715 498.783 118.715C501.087 118.715 503.119 119.105 504.877 119.887C506.654 120.668 508.041 121.85 509.037 123.432C510.052 124.994 510.56 126.957 510.56 129.32V144.086C510.56 145.141 510.648 146.264 510.824 147.455C511.019 148.646 511.302 149.672 511.673 150.531V151H506.019C505.746 150.375 505.531 149.545 505.375 148.51C505.218 147.455 505.14 146.479 505.14 145.58ZM506.078 131.781L506.136 135.59H500.658C499.115 135.59 497.738 135.717 496.527 135.971C495.316 136.205 494.3 136.566 493.48 137.055C492.66 137.543 492.035 138.158 491.605 138.9C491.175 139.623 490.961 140.473 490.961 141.449C490.961 142.445 491.185 143.354 491.634 144.174C492.084 144.994 492.757 145.648 493.656 146.137C494.574 146.605 495.697 146.84 497.025 146.84C498.685 146.84 500.15 146.488 501.42 145.785C502.689 145.082 503.695 144.223 504.437 143.207C505.199 142.191 505.609 141.205 505.668 140.248L507.982 142.855C507.845 143.676 507.474 144.584 506.869 145.58C506.263 146.576 505.453 147.533 504.437 148.451C503.441 149.35 502.25 150.102 500.863 150.707C499.496 151.293 497.953 151.586 496.234 151.586C494.086 151.586 492.201 151.166 490.58 150.326C488.978 149.486 487.728 148.363 486.83 146.957C485.951 145.531 485.511 143.939 485.511 142.182C485.511 140.482 485.843 138.988 486.507 137.699C487.171 136.391 488.129 135.307 489.379 134.447C490.629 133.568 492.132 132.904 493.89 132.455C495.648 132.006 497.611 131.781 499.779 131.781H506.078ZM525.574 106V151H520.125V106H525.574ZM546.155 130.639V135.092H531.858V130.639H546.155ZM565.329 119.301V123.461H548.19V119.301H565.329ZM553.991 111.596H559.411V143.148C559.411 144.223 559.577 145.033 559.909 145.58C560.241 146.127 560.671 146.488 561.198 146.664C561.725 146.84 562.292 146.928 562.897 146.928C563.346 146.928 563.815 146.889 564.304 146.811C564.811 146.713 565.192 146.635 565.446 146.576L565.475 151C565.046 151.137 564.479 151.264 563.776 151.381C563.093 151.518 562.263 151.586 561.286 151.586C559.958 151.586 558.737 151.322 557.624 150.795C556.511 150.268 555.622 149.389 554.958 148.158C554.313 146.908 553.991 145.229 553.991 143.119V111.596ZM578.175 119.301V151H572.726V119.301H578.175ZM572.316 110.893C572.316 110.014 572.579 109.271 573.107 108.666C573.654 108.061 574.454 107.758 575.509 107.758C576.544 107.758 577.335 108.061 577.882 108.666C578.448 109.271 578.732 110.014 578.732 110.893C578.732 111.732 578.448 112.455 577.882 113.061C577.335 113.646 576.544 113.939 575.509 113.939C574.454 113.939 573.654 113.646 573.107 113.061C572.579 112.455 572.316 111.732 572.316 110.893ZM592.867 125.6V151H587.418V119.301H592.574L592.867 125.6ZM591.754 133.949L589.234 133.861C589.254 131.693 589.537 129.691 590.084 127.855C590.63 126 591.441 124.389 592.515 123.021C593.589 121.654 594.927 120.6 596.529 119.857C598.13 119.096 599.986 118.715 602.095 118.715C603.58 118.715 604.947 118.93 606.197 119.359C607.447 119.77 608.531 120.424 609.449 121.322C610.367 122.221 611.08 123.373 611.588 124.779C612.095 126.186 612.349 127.885 612.349 129.877V151H606.929V130.141C606.929 128.48 606.646 127.152 606.08 126.156C605.533 125.16 604.752 124.438 603.736 123.988C602.72 123.52 601.529 123.285 600.162 123.285C598.56 123.285 597.222 123.568 596.148 124.135C595.074 124.701 594.214 125.482 593.57 126.479C592.925 127.475 592.457 128.617 592.164 129.906C591.89 131.176 591.754 132.523 591.754 133.949ZM612.291 130.961L608.658 132.074C608.677 130.336 608.961 128.666 609.507 127.064C610.074 125.463 610.884 124.037 611.939 122.787C613.013 121.537 614.332 120.551 615.894 119.828C617.457 119.086 619.244 118.715 621.255 118.715C622.955 118.715 624.459 118.939 625.767 119.389C627.095 119.838 628.209 120.531 629.107 121.469C630.025 122.387 630.718 123.568 631.187 125.014C631.656 126.459 631.89 128.178 631.89 130.17V151H626.441V130.111C626.441 128.334 626.158 126.957 625.591 125.98C625.045 124.984 624.263 124.291 623.248 123.9C622.252 123.49 621.06 123.285 619.673 123.285C618.482 123.285 617.427 123.49 616.509 123.9C615.591 124.311 614.82 124.877 614.195 125.6C613.57 126.303 613.091 127.113 612.759 128.031C612.447 128.949 612.291 129.926 612.291 130.961ZM653.848 151.586C651.641 151.586 649.639 151.215 647.842 150.473C646.064 149.711 644.531 148.646 643.242 147.279C641.973 145.912 640.996 144.291 640.312 142.416C639.629 140.541 639.287 138.49 639.287 136.264V135.033C639.287 132.455 639.668 130.16 640.43 128.148C641.191 126.117 642.227 124.398 643.535 122.992C644.844 121.586 646.328 120.521 647.988 119.799C649.648 119.076 651.367 118.715 653.145 118.715C655.41 118.715 657.363 119.105 659.004 119.887C660.664 120.668 662.021 121.762 663.076 123.168C664.131 124.555 664.912 126.195 665.42 128.09C665.928 129.965 666.182 132.016 666.182 134.242V136.674H642.51V132.25H660.762V131.84C660.684 130.434 660.391 129.066 659.883 127.738C659.395 126.41 658.613 125.316 657.539 124.457C656.465 123.598 655 123.168 653.145 123.168C651.914 123.168 650.781 123.432 649.746 123.959C648.711 124.467 647.822 125.229 647.08 126.244C646.338 127.26 645.762 128.5 645.352 129.965C644.941 131.43 644.736 133.119 644.736 135.033V136.264C644.736 137.768 644.941 139.184 645.352 140.512C645.781 141.82 646.396 142.973 647.197 143.969C648.018 144.965 649.004 145.746 650.156 146.312C651.328 146.879 652.656 147.162 654.141 147.162C656.055 147.162 657.676 146.771 659.004 145.99C660.332 145.209 661.494 144.164 662.49 142.855L665.771 145.463C665.088 146.498 664.219 147.484 663.164 148.422C662.109 149.359 660.811 150.121 659.268 150.707C657.744 151.293 655.938 151.586 653.848 151.586Z" fill="#0B2330"/>
<path d="M2.47461 7.04688V17H1.15527V7.04688H2.47461ZM6.64453 11.5244V12.6045H2.1875V11.5244H6.64453ZM7.32129 7.04688V8.12695H2.1875V7.04688H7.32129ZM16.6168 15.9268V17H11.3463V15.9268H16.6168ZM11.6129 7.04688V17H10.2936V7.04688H11.6129ZM15.9195 11.3262V12.3994H11.3463V11.3262H15.9195ZM16.5484 7.04688V8.12695H11.3463V7.04688H16.5484ZM23.3352 7.92871L20.0402 17H18.6936L22.4875 7.04688H23.3557L23.3352 7.92871ZM26.0969 17L22.7951 7.92871L22.7746 7.04688H23.6428L27.4504 17H26.0969ZM25.926 13.3154V14.3955H20.3342V13.3154H25.926ZM32.9725 7.04688V17H31.6736V7.04688H32.9725ZM36.1717 7.04688V8.12695H28.4813V7.04688H36.1717ZM44.7426 7.04688H46.0551V13.7803C46.0551 14.5277 45.8887 15.1497 45.5561 15.6465C45.2234 16.1432 44.7813 16.5169 44.2299 16.7676C43.683 17.0137 43.0883 17.1367 42.4457 17.1367C41.7712 17.1367 41.1605 17.0137 40.6137 16.7676C40.0714 16.5169 39.6407 16.1432 39.3217 15.6465C39.0072 15.1497 38.85 14.5277 38.85 13.7803V7.04688H40.1557V13.7803C40.1557 14.2998 40.2514 14.7282 40.4428 15.0654C40.6342 15.4027 40.9008 15.6533 41.2426 15.8174C41.5889 15.9814 41.99 16.0635 42.4457 16.0635C42.906 16.0635 43.307 15.9814 43.6488 15.8174C43.9952 15.6533 44.2641 15.4027 44.4555 15.0654C44.6469 14.7282 44.7426 14.2998 44.7426 13.7803V7.04688ZM49.5264 7.04688H52.8213C53.5687 7.04688 54.1999 7.16081 54.7148 7.38867C55.2344 7.61654 55.6286 7.95378 55.8975 8.40039C56.1709 8.84245 56.3076 9.38704 56.3076 10.0342C56.3076 10.4899 56.2142 10.9069 56.0273 11.2852C55.8451 11.6589 55.5807 11.9779 55.2344 12.2422C54.8926 12.502 54.4824 12.6956 54.0039 12.8232L53.6348 12.9668H50.5381L50.5244 11.8936H52.8623C53.3363 11.8936 53.7305 11.8115 54.0449 11.6475C54.3594 11.4788 54.5964 11.2533 54.7559 10.9707C54.9154 10.6882 54.9951 10.376 54.9951 10.0342C54.9951 9.65137 54.9199 9.31641 54.7695 9.0293C54.6191 8.74219 54.3822 8.52116 54.0586 8.36621C53.7396 8.20671 53.3271 8.12695 52.8213 8.12695H50.8457V17H49.5264V7.04688ZM55.3438 17L52.9238 12.4883L54.2979 12.4814L56.752 16.918V17H55.3438ZM65.8766 15.9268V17H60.6061V15.9268H65.8766ZM60.8727 7.04688V17H59.5533V7.04688H60.8727ZM65.1793 11.3262V12.3994H60.6061V11.3262H65.1793ZM65.8082 7.04688V8.12695H60.6061V7.04688H65.8082ZM74.215 14.4844C74.215 14.252 74.1786 14.0469 74.1057 13.8691C74.0373 13.6868 73.9143 13.5228 73.7365 13.377C73.5633 13.2311 73.3218 13.0921 73.0119 12.96C72.7066 12.8278 72.3192 12.6934 71.8498 12.5566C71.3576 12.4108 70.9133 12.249 70.5168 12.0713C70.1203 11.889 69.7808 11.6816 69.4982 11.4492C69.2157 11.2168 68.9992 10.9502 68.8488 10.6494C68.6984 10.3486 68.6232 10.0046 68.6232 9.61719C68.6232 9.22982 68.703 8.87207 68.8625 8.54395C69.022 8.21582 69.2499 7.93099 69.5461 7.68945C69.8469 7.44336 70.2046 7.25195 70.6193 7.11523C71.0341 6.97852 71.4966 6.91016 72.007 6.91016C72.7544 6.91016 73.3879 7.05371 73.9074 7.34082C74.4315 7.62337 74.8303 7.99479 75.1037 8.45508C75.3772 8.91081 75.5139 9.39844 75.5139 9.91797H74.2014C74.2014 9.54427 74.1216 9.21387 73.9621 8.92676C73.8026 8.63509 73.5611 8.40723 73.2375 8.24316C72.9139 8.07454 72.5038 7.99023 72.007 7.99023C71.5376 7.99023 71.1503 8.06087 70.8449 8.20215C70.5396 8.34342 70.3117 8.53483 70.1613 8.77637C70.0155 9.0179 69.9426 9.29362 69.9426 9.60352C69.9426 9.81315 69.9859 10.0046 70.0725 10.1777C70.1636 10.3464 70.3026 10.5036 70.4895 10.6494C70.6809 10.7952 70.9224 10.9297 71.2141 11.0527C71.5103 11.1758 71.8635 11.2943 72.2736 11.4082C72.8387 11.5677 73.3264 11.7454 73.7365 11.9414C74.1467 12.1374 74.4839 12.3584 74.7482 12.6045C75.0171 12.846 75.2154 13.1217 75.343 13.4316C75.4751 13.737 75.5412 14.0833 75.5412 14.4707C75.5412 14.8763 75.4592 15.2432 75.2951 15.5713C75.1311 15.8994 74.8964 16.1797 74.591 16.4121C74.2857 16.6445 73.9188 16.8245 73.4904 16.9521C73.0666 17.0752 72.5926 17.1367 72.0686 17.1367C71.6083 17.1367 71.1548 17.0729 70.7082 16.9453C70.2661 16.8177 69.8628 16.6263 69.4982 16.3711C69.1382 16.1159 68.8488 15.8014 68.6301 15.4277C68.4159 15.0495 68.3088 14.612 68.3088 14.1152H69.6213C69.6213 14.457 69.6874 14.751 69.8195 14.9971C69.9517 15.2386 70.1317 15.4391 70.3596 15.5986C70.592 15.7581 70.854 15.8766 71.1457 15.9541C71.4419 16.027 71.7495 16.0635 72.0686 16.0635C72.5288 16.0635 72.9185 15.9997 73.2375 15.8721C73.5565 15.7445 73.798 15.5622 73.9621 15.3252C74.1307 15.0882 74.215 14.8079 74.215 14.4844Z" fill="#375361"/>
</svg>
